<svg width="76" height="77" viewBox="0 0 76 77" fill="none" xmlns="http://www.w3.org/2000/svg">
<path d="M22.1885 0L0.143066 22.5L0 22.6455V53.6436L21.7354 76.0264H53.7646L75.5 53.6436V22.6455L53.3115 0H22.1885ZM66.3442 38.0137C66.3442 53.8174 53.4873 66.6738 37.6841 66.6738C21.8804 66.6738 9.02344 53.8174 9.02344 38.0137C9.02344 22.21 21.8804 9.35254 37.6841 9.35254C53.4873 9.35254 66.3442 22.21 66.3442 38.0137ZM37.6841 8.35254C33.9063 8.35254 30.295 9.07007 26.969 10.3635L23.1431 1H52.3569L48.5126 10.4084C45.1554 9.08673 41.5049 8.35254 37.6841 8.35254ZM26.0408 10.7365C19.0023 13.7524 13.3562 19.4136 10.3644 26.465L1.37183 22.6743L22.2231 1.39325L26.0408 10.7365ZM9.99603 27.3954C8.7265 30.6946 8.02344 34.2726 8.02344 38.0137C8.02344 41.9235 8.79114 45.6555 10.1719 49.0767L1 52.705V23.6032L9.99603 27.3954ZM10.5618 49.9977C13.5988 56.8436 19.1478 62.3355 26.0382 65.2888L21.7943 74.6516L1.38092 53.6296L10.5618 49.9977ZM26.967 65.662C30.2935 66.956 33.9055 67.6738 37.6841 67.6738C41.5051 67.6738 45.1556 66.9396 48.513 65.6178L52.7776 75.0264H22.7224L26.967 65.662ZM49.4393 65.2391C56.2933 62.2682 61.8096 56.7832 64.826 49.9534L74.1191 53.6296L53.7057 74.6516L49.4393 65.2391ZM65.2136 49.0314C66.5829 45.6224 67.3442 41.9063 67.3442 38.0137C67.3442 34.2908 66.6483 30.7291 65.3905 27.4432L74.5 23.6032V52.705L65.2136 49.0314ZM65.0229 26.5125C62.0521 19.4769 56.4403 13.8217 49.4386 10.7869L53.2769 1.39325L74.1282 22.6743L65.0229 26.5125Z" fill="black"/>
<path d="M37.6841 10.4688C22.4961 10.4688 10.1396 22.8252 10.1396 38.0137C10.1396 53.2012 22.4961 65.5576 37.6841 65.5576C52.8721 65.5576 65.228 53.2012 65.228 38.0137C65.228 22.8252 52.8721 10.4688 37.6841 10.4688ZM37.6841 64.5576C23.0474 64.5576 11.1396 52.6504 11.1396 38.0137C11.1396 23.377 23.0474 11.4688 37.6841 11.4688C52.3203 11.4688 64.228 23.377 64.228 38.0137C64.228 52.6504 52.3203 64.5576 37.6841 64.5576Z" fill="black"/>
<path d="M37.6841 15.3232C25.1724 15.3232 14.9937 25.502 14.9937 38.0137C14.9937 50.5254 25.1724 60.7041 37.6841 60.7041C50.1953 60.7041 60.374 50.5254 60.374 38.0137C60.374 25.502 50.1953 15.3232 37.6841 15.3232ZM37.6841 59.7041C25.7241 59.7041 15.9937 49.9736 15.9937 38.0137C15.9937 26.0537 25.7241 16.3232 37.6841 16.3232C49.644 16.3232 59.374 26.0537 59.374 38.0137C59.374 49.9736 49.644 59.7041 37.6841 59.7041Z" fill="black"/>
<path d="M37.6841 17.5811C26.417 17.5811 17.251 26.7471 17.251 38.0137C17.251 49.2803 26.417 58.4463 37.6841 58.4463C48.9507 58.4463 58.1167 49.2803 58.1167 38.0137C58.1167 26.7471 48.9507 17.5811 37.6841 17.5811ZM37.6841 57.4463C26.9688 57.4463 18.251 48.7285 18.251 38.0137C18.251 27.2988 26.9688 18.5811 37.6841 18.5811C48.3994 18.5811 57.1167 27.2988 57.1167 38.0137C57.1167 48.7285 48.3994 57.4463 37.6841 57.4463Z" fill="black"/>
<path d="M37.6841 21.7568C28.7202 21.7568 21.4277 29.0498 21.4277 38.0137C21.4277 46.9775 28.7202 54.2695 37.6841 54.2695C46.6475 54.2695 53.9399 46.9775 53.9399 38.0137C53.9399 29.0498 46.6475 21.7568 37.6841 21.7568ZM37.6841 53.2695C29.2715 53.2695 22.4277 46.4258 22.4277 38.0137C22.4277 29.6006 29.2715 22.7568 37.6841 22.7568C46.0962 22.7568 52.9399 29.6006 52.9399 38.0137C52.9399 46.4258 46.0962 53.2695 37.6841 53.2695Z" fill="black"/>
<path d="M45.581 29.4424C45.2626 29.2774 44.6195 28.9541 43.914 28.6572C44.7675 28.5117 45.0365 28.4102 45.2211 28.1172C45.4076 27.8213 45.3163 27.5166 45.2274 27.2217C44.9125 26.1709 43.3134 26.0156 43.1317 26.002C43.0507 25.9942 42.9687 26.0088 42.894 26.041C42.5356 26.1963 42.1757 26.3438 41.8212 26.4815C41.9389 26.3408 41.974 26.1397 41.8949 25.96C41.7836 25.707 41.4916 25.5928 41.2357 25.7031C39.5595 26.4424 37.6889 25.8789 37.6703 25.8721C37.5404 25.832 37.3964 25.8457 37.2773 25.9131C37.1889 25.9629 36.4115 26.418 36.3188 27.1514C36.2836 27.4258 36.3329 27.8399 36.7646 28.2529C36.9545 28.4346 37.2445 28.5283 37.6039 28.5547C36.6254 28.791 35.7367 29.2568 35.5619 29.3516C34.5639 29.9883 33.4237 30.6943 33.2646 30.7656C33.2055 30.7852 33.0502 30.8477 32.8461 30.9317C32.9413 30.7344 33.0365 30.4258 32.9066 30.1309C32.8461 29.9932 32.6859 29.7539 32.3832 29.7217C32.1855 29.5996 31.6825 28.8906 31.1757 28.084C31.1952 28.1045 31.2128 28.1279 31.2279 28.1524C31.5424 28.667 32.1078 29.2207 32.4355 29.5195C32.5912 29.7012 32.7333 29.7822 32.7943 29.8106C33.0219 29.9199 33.2934 29.8418 33.4296 29.6299C33.5658 29.418 33.5233 29.1387 33.331 28.9766C33.3285 28.9746 33.269 28.9238 33.1752 28.8399C33.038 28.6611 32.7802 28.1524 32.8681 26.9307C32.8988 26.5049 33.0312 26.2139 33.2724 26.0401C33.6977 25.7354 34.4106 25.8301 34.6503 25.8916C34.682 25.9004 34.7162 25.9053 34.7494 25.9072C34.786 25.9092 34.8129 25.919 34.85 25.9619C35.0053 26.1436 35.0819 26.6338 35.0326 27.127C34.9828 27.6211 34.515 27.9541 34.4975 27.9668C34.2699 28.1201 34.2084 28.4287 34.3612 28.6582C34.5141 28.8867 34.8227 28.9492 35.0546 28.7969C35.0902 28.7734 35.9296 28.2031 36.0277 27.2266C36.0575 26.9268 36.1161 25.9033 35.6098 25.3115C35.4115 25.0801 35.1527 24.9424 34.8583 24.9131C34.5937 24.8506 33.5102 24.6436 32.6947 25.2246C32.2006 25.5762 31.9237 26.126 31.871 26.8584C31.8583 27.0293 31.852 27.1914 31.8505 27.3438C31.2074 26.7246 30.1425 26.8408 30.0907 26.8477C29.9242 26.8672 29.7782 26.9688 29.703 27.1182C29.6274 27.2686 29.6317 27.4463 29.7152 27.5918C30.6454 29.2217 31.225 29.9834 31.5922 30.3447C30.6474 30.3936 29.684 30.5518 29.3495 30.9746C29.2099 31.1514 29.1606 31.3662 29.2108 31.582C29.4359 32.5361 30.8549 32.6651 31.1371 32.6807C31.1464 32.6817 31.1562 32.6817 31.1654 32.6817C31.2328 32.6817 31.2992 32.668 31.3617 32.6416C32.3354 32.2266 33.4442 31.7608 33.5805 31.7149C33.7694 31.6514 34.6171 31.1406 36.0683 30.2139C36.5998 29.9261 37.6912 29.4728 38.4968 29.421C38.5045 29.483 38.5224 29.5447 38.5546 29.6026L38.9438 30.3027C38.6337 30.584 37.9887 31.002 37.0834 30.6914C36.8246 30.6045 36.5385 30.7422 36.4491 31.0039C36.3598 31.2647 36.4994 31.5488 36.7611 31.6387C37.0946 31.752 37.411 31.8008 37.7069 31.8008C38.8173 31.7998 39.6352 31.1192 39.9613 30.668C40.0751 30.5108 40.0873 30.3018 39.9931 30.1318L39.8283 29.8353C40.7859 30.2949 41.6752 30.7149 41.6752 30.7149C41.745 30.7471 41.8188 30.7627 41.8988 30.7627L43.4887 30.7295C43.6181 30.9277 43.7123 31.1572 43.6757 31.2608C43.5785 31.5322 43.6088 31.8008 43.7607 32.0156C44.0478 32.4238 44.6469 32.4551 44.8236 32.4551C45.0522 32.4551 45.2519 32.2998 45.308 32.0781L45.8349 30.0088C45.8925 29.7842 45.787 29.5488 45.581 29.4424ZM31.0834 31.6729C30.8188 31.6455 30.5736 31.5772 30.4062 31.5059C30.7406 31.4248 31.2939 31.3594 31.8774 31.3369C31.5585 31.4707 31.2616 31.5967 31.0834 31.6729ZM37.456 27.5303C37.3837 27.4619 37.3002 27.3623 37.3105 27.2783C37.3251 27.1592 37.4672 27.0049 37.6117 26.8916C38.0829 27.0049 39.185 27.2061 40.4081 26.9893C38.9193 27.4795 37.7274 27.7139 37.456 27.5303ZM44.6098 30.7686C44.4672 30.3115 44.1586 29.9512 44.1064 29.8926C44.0111 29.7852 43.8749 29.7246 43.7323 29.7246C43.7289 29.7246 43.7255 29.7246 43.7221 29.7246L41.996 29.7608C41.6552 29.5996 40.5556 29.0781 39.5858 28.6084C39.3944 28.5156 39.1825 28.4609 38.9594 28.4356C40.3222 28.166 41.9804 27.5225 43.1698 27.0108C43.6107 27.0703 44.1957 27.2637 44.2777 27.5361C44.2807 27.5459 44.2836 27.5557 44.2865 27.5645C44.0199 27.6328 43.4867 27.7149 42.8485 27.8135C42.4691 27.8731 42.019 27.9424 41.4857 28.0293C41.4584 28.0322 41.432 28.0371 41.4066 28.043C41.142 28.0996 40.9706 28.3584 41.0214 28.624C41.0722 28.8906 41.328 29.0723 41.5932 29.0244C41.6151 29.0215 41.6371 29.0176 41.6591 29.0137C42.1112 28.9785 43.5204 29.5342 44.767 30.1504L44.6098 30.7686Z" fill="black"/>
<path d="M45.581 38.4726C45.2626 38.3076 44.6195 37.9844 43.914 37.6875C44.7675 37.542 45.0365 37.4404 45.2211 37.1474C45.4076 36.8515 45.3163 36.5469 45.2274 36.2519C44.9125 35.2011 43.3134 35.0459 43.1317 35.0322C43.0507 35.0244 42.9687 35.039 42.894 35.0713C42.5356 35.2265 42.1757 35.374 41.8212 35.5117C41.9389 35.3711 41.974 35.1699 41.8949 34.9902C41.7836 34.7373 41.4916 34.624 41.2357 34.7334C39.5595 35.4736 37.6889 34.9092 37.6703 34.9023C37.5404 34.8623 37.3964 34.876 37.2773 34.9433C37.1889 34.9931 36.4115 35.4482 36.3188 36.1816C36.2836 36.456 36.3329 36.8701 36.7646 37.2832C36.9545 37.4648 37.2445 37.5586 37.6039 37.5849C36.6254 37.8213 35.7367 38.2871 35.5619 38.3818C34.5639 39.0185 33.4237 39.7246 33.2646 39.7959C33.2055 39.8154 33.0502 39.8779 32.8461 39.9619C32.9413 39.7646 33.0365 39.456 32.9066 39.1611C32.8461 39.0234 32.6859 38.7842 32.3832 38.7519C32.1855 38.6299 31.6825 37.9209 31.1757 37.1142C31.1952 37.1347 31.2128 37.1582 31.2279 37.1826C31.5424 37.6972 32.1078 38.251 32.4355 38.5498C32.5912 38.7314 32.7333 38.8125 32.7943 38.8408C33.0219 38.9502 33.2934 38.872 33.4296 38.6601C33.5658 38.4482 33.5233 38.1689 33.331 38.0068C33.3285 38.0049 33.269 37.9541 33.1752 37.8701C33.038 37.6914 32.7802 37.1826 32.8681 35.9609C32.8988 35.5351 33.0312 35.2441 33.2724 35.0703C33.6977 34.7656 34.4106 34.8603 34.6503 34.9219C34.682 34.9306 34.7162 34.9355 34.7494 34.9375C34.786 34.9394 34.8129 34.9492 34.85 34.9922C35.0053 35.1738 35.0819 35.664 35.0326 36.1572C34.9828 36.6513 34.515 36.9844 34.4975 36.997C34.2699 37.1504 34.2084 37.459 34.3612 37.6885C34.5141 37.917 34.8227 37.9785 35.0546 37.8271C35.0902 37.8037 35.9296 37.2334 36.0277 36.2568C36.0575 35.957 36.1161 34.9336 35.6098 34.3418C35.4115 34.1103 35.1527 33.9726 34.8583 33.9433C34.5937 33.8808 33.5102 33.6728 32.6947 34.2549C32.2006 34.6064 31.9237 35.1562 31.871 35.8886C31.8583 36.0595 31.852 36.2217 31.8505 36.374C31.2074 35.7549 30.1425 35.872 30.0907 35.8779C29.9242 35.8974 29.7782 35.999 29.703 36.1484C29.6274 36.2988 29.6317 36.4765 29.7152 36.622C30.6454 38.2519 31.225 39.0136 31.5922 39.375C30.6474 39.4238 29.684 39.582 29.3495 40.0049C29.2099 40.1816 29.1606 40.3965 29.2108 40.6123C29.4359 41.5664 30.8549 41.6953 31.1371 41.7109C31.1464 41.7119 31.1562 41.7119 31.1654 41.7119C31.2328 41.7119 31.2992 41.6982 31.3617 41.6719C32.3354 41.2568 33.4442 40.791 33.5805 40.7451C33.7694 40.6816 34.6171 40.1709 36.0683 39.2441C36.5997 38.9563 37.6909 38.5025 38.4966 38.4508C38.5042 38.5129 38.5223 38.5747 38.5546 38.6328L38.9438 39.333C38.6337 39.6142 37.9887 40.0312 37.0834 39.7217C36.8246 39.6367 36.5385 39.7724 36.4491 40.0342C36.3598 40.2949 36.4994 40.5791 36.7611 40.6689C37.0946 40.7822 37.411 40.831 37.7069 40.831C38.8173 40.8301 39.6352 40.1494 39.9613 39.6982C40.0751 39.541 40.0873 39.332 39.9931 39.1621L39.8283 38.8656C40.7859 39.3251 41.6752 39.7451 41.6752 39.7451C41.745 39.7773 41.8188 39.789 41.8988 39.7929L43.4887 39.7597C43.6181 39.958 43.7123 40.1875 43.6757 40.291C43.5785 40.5625 43.6088 40.831 43.7607 41.0459C44.0478 41.4541 44.6469 41.4853 44.8236 41.4853C45.0522 41.4853 45.2519 41.3301 45.308 41.1084L45.8349 39.039C45.8925 38.8144 45.787 38.5791 45.581 38.4726ZM31.0834 40.7031C30.8188 40.6758 30.5736 40.6074 30.4062 40.5361C30.7406 40.4551 31.2939 40.3896 31.8774 40.3672C31.5585 40.501 31.2616 40.6269 31.0834 40.7031ZM37.456 36.5605C37.3837 36.4922 37.3002 36.3926 37.3105 36.3086C37.3251 36.1894 37.4672 36.0351 37.6117 35.9219C38.0829 36.0351 39.185 36.2363 40.4081 36.0195C38.9193 36.5088 37.7274 36.7441 37.456 36.5605ZM44.6098 39.7988C44.4672 39.3418 44.1586 38.9814 44.1064 38.9228C44.0111 38.8154 43.8749 38.7549 43.7323 38.7549C43.7289 38.7549 43.7255 38.7549 43.7221 38.7549L41.996 38.791C41.6552 38.6299 40.5556 38.1084 39.5858 37.6386C39.3944 37.5459 39.1825 37.4912 38.9594 37.4658C40.3222 37.1963 41.9804 36.5527 43.1698 36.041C43.6107 36.1006 44.1957 36.2939 44.2777 36.5664C44.2807 36.5761 44.2836 36.5859 44.2865 36.5947C44.0199 36.6631 43.4867 36.7451 42.8485 36.8437C42.4691 36.9033 42.019 36.9726 41.4857 37.0595C41.4584 37.0625 41.432 37.0674 41.4066 37.0732C41.142 37.1299 40.9706 37.3886 41.0214 37.6543C41.0722 37.9209 41.328 38.1015 41.5932 38.0547C41.6151 38.0517 41.6371 38.0478 41.6591 38.0439C42.1112 38.0166 43.5204 38.5644 44.767 39.1806L44.6098 39.7988Z" fill="black"/>
<path d="M45.581 47.5029C45.2631 47.3379 44.62 47.0147 43.9145 46.7178C44.7675 46.5723 45.0365 46.4707 45.2211 46.1787C45.4076 45.8828 45.3163 45.5781 45.2274 45.2822C44.9125 44.2315 43.3134 44.0762 43.1317 44.0625C43.0507 44.0547 42.9687 44.0693 42.894 44.1016C42.5356 44.2568 42.1757 44.4043 41.8212 44.542C41.9389 44.4014 41.974 44.2002 41.8949 44.0205C41.7836 43.7676 41.4916 43.6533 41.2357 43.7637C39.5595 44.5029 37.6889 43.9395 37.6703 43.9326C37.5404 43.8936 37.3964 43.9063 37.2773 43.9736C37.1889 44.0234 36.4115 44.4785 36.3188 45.2119C36.2836 45.4863 36.3329 45.9004 36.7646 46.3135C36.9545 46.4951 37.2445 46.5889 37.6039 46.6152C36.6254 46.8516 35.7367 47.3174 35.5619 47.4121C34.5639 48.0488 33.4237 48.7549 33.2626 48.8272C33.204 48.8467 33.0492 48.9092 32.8461 48.9922C32.9408 48.7959 33.0365 48.4863 32.9066 48.1914C32.8461 48.0537 32.6859 47.8145 32.3832 47.7822C32.1855 47.6602 31.6825 46.9512 31.1757 46.1445C31.1952 46.1651 31.2128 46.1885 31.2279 46.2129C31.5424 46.7276 32.1078 47.2813 32.4355 47.5801C32.5912 47.7617 32.7333 47.8428 32.7943 47.8711C33.0219 47.9815 33.2934 47.9024 33.4296 47.6904C33.5658 47.4785 33.5233 47.1992 33.331 47.0371C33.3285 47.0352 33.269 46.9844 33.1752 46.9004C33.038 46.7217 32.7802 46.2129 32.8681 44.9912C32.8988 44.5654 33.0312 44.2744 33.2724 44.1006C33.6977 43.7959 34.4106 43.8906 34.6503 43.9522C34.682 43.9609 34.7162 43.9658 34.7494 43.9678C34.786 43.9697 34.8129 43.9795 34.85 44.0225C35.0053 44.2041 35.0819 44.6943 35.0326 45.1875C34.9828 45.6817 34.515 46.0147 34.4975 46.0274C34.2699 46.1807 34.2084 46.4893 34.3612 46.7188C34.5141 46.9483 34.8227 47.0088 35.0546 46.8574C35.0902 46.834 35.9296 46.2637 36.0277 45.2871C36.0575 44.9873 36.1161 43.9639 35.6098 43.3721C35.4115 43.1406 35.1527 43.0029 34.8583 42.9736C34.5937 42.9111 33.5102 42.7041 32.6947 43.2852C32.2006 43.6367 31.9237 44.1865 31.871 44.919C31.8583 45.0899 31.852 45.252 31.8505 45.4043C31.2074 44.7842 30.1425 44.9014 30.0907 44.9082C29.9242 44.9277 29.7782 45.0293 29.703 45.1787C29.6274 45.3291 29.6317 45.5068 29.7152 45.6524C30.6454 47.2822 31.225 48.044 31.5922 48.4053C30.6474 48.4541 29.684 48.6123 29.3495 49.0352C29.2099 49.2119 29.1606 49.4268 29.2108 49.6426C29.4359 50.5967 30.8549 50.7256 31.1371 50.7412C31.1464 50.7422 31.1562 50.7422 31.1654 50.7422C31.2328 50.7422 31.2992 50.7285 31.3612 50.7022C32.3378 50.2861 33.4482 49.8203 33.5805 49.7754C33.7694 49.7119 34.6171 49.2012 36.0683 48.2744C36.5997 47.9866 37.6909 47.5328 38.4966 47.4811C38.5042 47.5432 38.5223 47.6051 38.5546 47.6631L38.9438 48.3633C38.6337 48.6445 37.9887 49.0615 37.0834 48.752C36.8246 48.666 36.5385 48.8027 36.4491 49.0645C36.3598 49.3252 36.4994 49.6094 36.7611 49.6992C37.0946 49.8125 37.411 49.8613 37.7069 49.8613C38.8173 49.8604 39.6352 49.1797 39.9613 48.7285C40.0751 48.5713 40.0873 48.3623 39.9931 48.1924L39.8283 47.8959C40.7859 48.3554 41.6752 48.7754 41.6752 48.7754C41.745 48.8076 41.8188 48.8154 41.8988 48.8233L43.4887 48.7901C43.6181 48.9883 43.7123 49.2178 43.6752 49.3213C43.5785 49.5938 43.6088 49.8623 43.7607 50.0772C44.0482 50.4854 44.6469 50.5166 44.8236 50.5166C45.0522 50.5166 45.2519 50.3613 45.308 50.1397L45.8349 48.0693C45.8925 47.8447 45.787 47.6094 45.581 47.5029ZM31.0834 49.7334C30.8188 49.7061 30.5736 49.6377 30.4062 49.5664C30.7411 49.4854 31.2943 49.4199 31.8783 49.3975C31.559 49.5313 31.2621 49.6582 31.0834 49.7334ZM37.456 45.5908C37.3837 45.5225 37.3002 45.4229 37.3105 45.3389C37.3251 45.2197 37.4672 45.0654 37.6117 44.9522C38.0829 45.0654 39.185 45.2666 40.4081 45.0498C38.9193 45.5391 37.7274 45.7744 37.456 45.5908ZM44.6098 48.8291C44.4672 48.3721 44.1586 48.0117 44.1064 47.9531C44.0111 47.8457 43.8749 47.7852 43.7323 47.7852C43.7289 47.7852 43.7255 47.7852 43.7221 47.7852L41.996 47.8213C41.6552 47.6602 40.5556 47.1387 39.5858 46.669C39.3944 46.5762 39.1825 46.5215 38.9594 46.4961C40.3222 46.2266 41.9804 45.583 43.1698 45.0713C43.6107 45.1309 44.1957 45.3242 44.2777 45.5967C44.2807 45.6065 44.2836 45.6162 44.2865 45.625C44.0209 45.6934 43.4897 45.7754 42.8534 45.874C42.4735 45.9326 42.0214 46.0029 41.4857 46.0899C41.4584 46.0928 41.432 46.0977 41.4066 46.1035C41.142 46.1602 40.9706 46.419 41.0214 46.6846C41.0722 46.9512 41.328 47.1358 41.5932 47.085C41.6151 47.082 41.6371 47.0781 41.6591 47.0742C42.1112 47.0401 43.5204 47.5947 44.767 48.2109L44.6098 48.8291Z" fill="black"/>
</svg>
