<svg width="48" height="87" viewBox="0 0 48 87" fill="none" xmlns="http://www.w3.org/2000/svg">
<path d="M11.4713 29.2158C11.4752 29.2158 11.4791 29.2158 11.483 29.2158L23.6588 28.9283L35.8341 29.2158C35.838 29.2158 35.8419 29.2158 35.8458 29.2158C36.1168 29.2158 36.3395 29 36.3458 28.7276C36.3522 28.4512 36.1339 28.2227 35.8576 28.2158L23.8749 27.9329C23.8576 27.9315 23.8419 27.9234 23.8244 27.9238L23.6588 27.9278L23.4933 27.9238C23.4751 27.9237 23.4605 27.9314 23.4429 27.9329L11.4596 28.2158C11.1832 28.2227 10.965 28.4512 10.9713 28.7276C10.9777 29 11.2003 29.2158 11.4713 29.2158Z" fill="black"/>
<path d="M47.2281 19.7148C47.2282 19.7141 47.2286 19.7136 47.2287 19.7129C47.2304 19.6992 47.225 19.687 47.2256 19.6735C47.1536 18.4291 47.065 17.7269 47.0598 17.6895C47.0241 17.4336 46.7863 17.2236 46.5417 17.2588L32.9799 17.8828H32.5473L33.7419 14.217C33.7449 14.2056 33.7519 14.1964 33.7541 14.1846C33.7544 14.1829 33.7537 14.1814 33.754 14.1797L36.5559 5.58148C36.587 5.58325 36.6166 5.59082 36.6481 5.59082C37.5671 5.59082 38.3146 4.84277 38.3146 3.92383C38.3146 3.00488 37.5671 2.25781 36.6481 2.25781C35.7292 2.25781 34.9816 3.00488 34.9816 3.92383C34.9816 4.38403 35.1693 4.80127 35.4719 5.10327L33.1774 7.40527L31.8366 3.81683C32.5421 3.62286 33.0646 2.98206 33.0646 2.21582C33.0646 1.29688 32.3171 0.548828 31.3981 0.548828C30.4792 0.548828 29.7316 1.29688 29.7316 2.21582C29.7316 2.73224 29.9727 3.18884 30.3425 3.49487L27.8171 6.42871L25.0968 2.47473C25.2314 2.23431 25.3146 1.96149 25.3146 1.66699C25.3146 0.748047 24.5671 0 23.6481 0C22.7292 0 21.9816 0.748047 21.9816 1.66699C21.9816 1.96643 22.0673 2.24384 22.2061 2.487L19.5002 6.42871L16.9748 3.495C17.3449 3.1889 17.5861 2.73224 17.5861 2.21582C17.5861 1.29688 16.8381 0.548828 15.9191 0.548828C15.0002 0.548828 14.2526 1.29688 14.2526 2.21582C14.2526 2.98206 14.7752 3.6228 15.4807 3.81683L14.1403 7.40527L11.8455 5.10333C12.1483 4.80133 12.3361 4.38409 12.3361 3.92383C12.3361 3.00488 11.5881 2.25781 10.6691 2.25781C9.75019 2.25781 9.00263 3.00488 9.00263 3.92383C9.00263 4.84277 9.75019 5.59082 10.6691 5.59082C10.7007 5.59082 10.7302 5.58325 10.7614 5.58148L13.5632 14.1796C13.5634 14.1803 13.5631 14.181 13.5632 14.1816C13.5642 14.1875 13.5679 14.192 13.5691 14.1977L14.77 17.8828H14.3378L0.775583 17.2588C0.521188 17.2363 0.293161 17.4336 0.257517 17.6895C0.252329 17.7267 0.164926 18.4199 0.0932099 19.6478C0.0929047 19.6699 0.0853365 19.6903 0.088083 19.7129C0.0882051 19.7141 0.0889985 19.715 0.0891816 19.7162C-0.246756 25.6181 -0.183279 43.71 10.697 63.9697C14.5796 70.5454 15.8695 72.2292 16.2232 72.6354C13.681 74.558 10.6845 77.6904 7.9372 82.791C7.93415 82.7968 7.93488 82.8035 7.93208 82.8093C7.90943 82.8554 7.89845 82.9051 7.89082 82.9562C7.88825 82.9733 7.88038 82.989 7.87959 83.0062C7.87653 83.0738 7.88575 83.1428 7.91181 83.21L7.91322 83.2136L8.93379 85.835C8.99629 85.9951 9.1374 86.1123 9.30634 86.1445C9.48359 86.1777 13.737 86.9658 21.8776 86.9658H25.4396C33.5803 86.9658 37.8342 86.1777 38.0114 86.1445C38.1809 86.1123 38.3215 85.9951 38.384 85.835L39.4039 83.2141L39.4055 83.21C39.4315 83.1429 39.4407 83.0739 39.4377 83.0064C39.4369 82.9884 39.4286 82.9719 39.4258 82.9541C39.4181 82.9039 39.4075 82.8552 39.3854 82.8099C39.3825 82.8039 39.3832 82.7969 39.3801 82.791C36.6334 77.6902 33.6365 74.5578 31.0939 72.6356C31.4476 72.2295 32.7385 70.5438 36.6301 63.9521C47.5031 43.7054 47.5644 25.6149 47.2281 19.7148ZM36.6481 3.25781C37.0158 3.25781 37.3146 3.55664 37.3146 3.92383C37.3146 4.29199 37.0158 4.59082 36.6481 4.59082C36.2805 4.59082 35.9816 4.29199 35.9816 3.92383C35.9816 3.55664 36.2805 3.25781 36.6481 3.25781ZM10.0026 3.92383C10.0026 3.55664 10.3015 3.25781 10.6691 3.25781C11.0368 3.25781 11.3361 3.55664 11.3361 3.92383C11.3361 4.29199 11.0368 4.59082 10.6691 4.59082C10.3015 4.59082 10.0026 4.29199 10.0026 3.92383ZM46.1882 19.0961C44.849 18.9846 41.8 18.8633 40.6071 19.9258C40.2004 20.2881 40.1975 20.6279 40.2663 20.8496C40.466 21.4883 41.4079 21.6523 42.717 21.8135C42.9235 21.8389 43.1018 21.8604 43.2214 21.8828C43.4694 21.9297 43.5837 22.0293 43.5949 22.0566C43.5988 22.0908 43.5373 22.2783 43.1677 22.5771C42.613 23.0234 41.0144 22.6396 39.9621 22.2002C38.8083 20.1191 37.9143 19.0459 37.3044 19.0088C36.5109 18.9404 35.5319 20.4268 34.8727 21.6689C34.7434 21.9131 34.8366 22.2158 35.0803 22.3447C35.2108 22.4147 35.3564 22.4161 35.485 22.3688C35.4693 22.3932 35.4482 22.4127 35.4367 22.4404C35.3303 22.6953 35.4509 22.9883 35.7058 23.0947C35.9699 23.2051 36.2463 23.3447 36.4572 23.4707C35.6419 23.6991 34.25 23.96 33.6097 24.0707C33.5201 24.055 33.4292 24.043 33.3352 24.043C32.5499 24.043 31.9003 24.6166 31.7727 25.3663L30.5604 24.5911L31.3153 18.8828H32.9816C32.9854 18.8828 32.9885 18.8807 32.9922 18.8807C32.9966 18.8802 33.0002 18.8825 33.0046 18.8818L46.1193 18.2793C46.1394 18.4844 46.1636 18.7593 46.1882 19.0961ZM24.0076 26.2451C23.9464 26.2227 23.8809 26.2134 23.8142 26.2227L23.6589 26.2296L23.5036 26.2227C23.4378 26.2143 23.373 26.2231 23.3125 26.2449L15.4819 26.5928L17.4917 25.3077C17.997 25.1899 21.056 24.4996 23.6588 24.4689C26.2589 24.4996 29.3204 25.19 29.8256 25.3077L31.8353 26.5927L24.0076 26.2451ZM13.9821 25.043C14.3073 25.043 14.572 25.3076 14.572 25.6328C14.572 25.957 14.3073 26.2217 13.9821 26.2217C13.6569 26.2217 13.3928 25.957 13.3928 25.6328C13.3928 25.3076 13.6569 25.043 13.9821 25.043ZM23.4816 18.8828H23.8361H30.3068L29.5994 24.2316C28.5402 24.0002 26.1058 23.5242 23.8687 23.4724C23.8574 23.4716 23.8477 23.4658 23.8361 23.4658C23.7776 23.4658 23.7178 23.4681 23.6589 23.4688C23.6 23.4681 23.5402 23.4658 23.4816 23.4658C23.4701 23.4658 23.4604 23.4716 23.449 23.4724C21.2116 23.5242 18.7771 24.0002 17.7178 24.2316L17.0105 18.8828H23.4816ZM33.3352 26.2217C33.01 26.2217 32.7458 25.957 32.7458 25.6328C32.7458 25.3076 33.01 25.043 33.3352 25.043C33.6603 25.043 33.9245 25.3076 33.9245 25.6328C33.9245 25.957 33.6603 26.2217 33.3352 26.2217ZM23.6568 15.7969C20.0548 15.7437 16.4686 16.087 15.2786 16.2143L14.7188 14.4968C16.0663 14.3024 19.6469 13.8716 23.7194 14.0908C23.7288 14.0916 23.7374 14.087 23.7467 14.0872C23.7563 14.087 23.7644 14.0915 23.7741 14.0908C27.8194 13.8724 31.2838 14.299 32.5992 14.494L32.0388 16.2139C30.8479 16.0861 27.2578 15.7426 23.6568 15.7969ZM14.1202 12.6601L17.0329 8.81934L19.9299 11.7246C20.0324 11.8271 20.1726 11.8818 20.32 11.8711C20.465 11.8604 20.5978 11.7871 20.6848 11.6709L23.6221 7.72632L26.6359 11.6758C26.7233 11.79 26.8561 11.8613 27.0002 11.8711C27.1496 11.8838 27.2853 11.8271 27.3874 11.7246L30.2844 8.81934L33.197 12.6594L32.914 13.528C31.6997 13.3351 28.0966 12.8533 23.7463 13.0916C19.4338 12.8604 15.6505 13.3452 14.4044 13.5319L14.1202 12.6601ZM31.3981 1.54883C31.7658 1.54883 32.0646 1.84766 32.0646 2.21582C32.0646 2.58398 31.7658 2.88281 31.3981 2.88281C31.0305 2.88281 30.7316 2.58398 30.7316 2.21582C30.7316 1.84766 31.0305 1.54883 31.3981 1.54883ZM23.6481 1C24.0158 1 24.3146 1.29883 24.3146 1.66699C24.3146 2.03516 24.0158 2.33398 23.6481 2.33398C23.2805 2.33398 22.9816 2.03516 22.9816 1.66699C22.9816 1.29883 23.2805 1 23.6481 1ZM15.2526 2.21582C15.2526 1.84766 15.5515 1.54883 15.9191 1.54883C16.2868 1.54883 16.5861 1.84766 16.5861 2.21582C16.5861 2.58398 16.2868 2.88281 15.9191 2.88281C15.5515 2.88281 15.2526 2.58398 15.2526 2.21582ZM13.9821 8.66211C14.1022 8.7832 14.2756 8.83301 14.4421 8.79785C14.6081 8.7627 14.7448 8.64355 14.8044 8.48438L16.3615 4.31543L19.1657 7.57324C19.2668 7.69043 19.4108 7.76367 19.572 7.74609C19.7268 7.73828 19.8688 7.6582 19.9567 7.53027L22.9475 3.17413C23.1612 3.27405 23.397 3.33398 23.6481 3.33398C23.9037 3.33398 24.1432 3.27148 24.3599 3.16815L27.3605 7.53027C27.4484 7.6582 27.591 7.73828 27.7458 7.74609C27.8972 7.76563 28.0505 7.69043 28.1516 7.57324L30.9558 4.31543L32.5134 8.48438C32.5729 8.64453 32.7097 8.7627 32.8757 8.79785C33.0441 8.83496 33.216 8.78418 33.3356 8.66211L35.0651 6.92676L33.5741 11.5024L30.7341 7.75781C30.6467 7.64258 30.5139 7.57031 30.3693 7.56055C30.2204 7.54395 30.0837 7.60449 29.9816 7.70703L27.0837 10.6133L24.0148 6.5918C24.0003 6.57263 23.9794 6.5625 23.9627 6.54602C23.946 6.52942 23.9356 6.50861 23.9162 6.49414C23.9079 6.48804 23.8978 6.48712 23.8893 6.48157C23.8582 6.46112 23.8253 6.44861 23.791 6.43573C23.7648 6.4259 23.74 6.41443 23.7129 6.40924C23.6766 6.40204 23.6409 6.4032 23.6039 6.40417C23.5769 6.40497 23.5509 6.40375 23.5243 6.40881C23.4905 6.41522 23.4596 6.42908 23.4273 6.44269C23.3979 6.45489 23.3696 6.46625 23.3427 6.48407C23.3336 6.49011 23.3229 6.49133 23.3142 6.49805C23.2948 6.51282 23.2846 6.53381 23.2681 6.55066C23.2516 6.5672 23.2309 6.57745 23.2165 6.59668L20.2287 10.6084L17.3356 7.70703C17.2336 7.60449 17.0891 7.54492 16.9479 7.56055C16.8034 7.57031 16.6706 7.64258 16.5832 7.75781L13.7431 11.503L12.2517 6.92676L13.9821 8.66211ZM15.5953 17.1861C16.9107 17.0501 20.1714 16.7573 23.4774 16.7952C23.4822 16.796 23.486 16.7982 23.4909 16.7988C23.5476 16.7978 23.6041 16.798 23.6607 16.7971C23.7161 16.798 23.7714 16.7978 23.8269 16.7988C23.8298 16.7988 23.8332 16.7988 23.8361 16.7988C23.8427 16.7988 23.8482 16.7954 23.8546 16.7952C27.1548 16.7589 30.4082 17.0507 31.7219 17.1862L31.4949 17.8828H23.8361H23.4816H15.8223L15.5953 17.1861ZM14.3132 18.8818C14.3177 18.8826 14.3214 18.8802 14.3259 18.8807C14.3295 18.8808 14.3325 18.8828 14.3361 18.8828H16.002L16.7568 24.5911L15.545 25.366C15.4172 24.6164 14.7672 24.043 13.9821 24.043C13.8881 24.043 13.7971 24.055 13.7076 24.0707C13.0699 23.9608 11.6868 23.7018 10.8615 23.4697C11.0725 23.3447 11.3478 23.2041 11.6115 23.0947C11.8664 22.9883 11.987 22.6953 11.8806 22.4404C11.869 22.4125 11.8478 22.3931 11.8321 22.3687C11.9605 22.4157 12.106 22.4142 12.237 22.3447C12.4807 22.2158 12.5739 21.9131 12.4445 21.6689C11.7858 20.4268 10.8146 18.9463 10.0134 19.0088C9.40302 19.0459 8.50947 20.1191 7.35566 22.2002C6.30244 22.6396 4.70429 23.0225 4.15009 22.5771C3.78047 22.2783 3.71894 22.0908 3.72187 22.0586C3.73359 22.0293 3.84834 21.9297 4.09541 21.8828C4.21552 21.8604 4.39375 21.8389 4.60029 21.8135C5.90937 21.6523 6.85127 21.4893 7.05097 20.8496C7.12031 20.6279 7.11738 20.2881 6.71015 19.9258C5.51844 18.8633 2.46858 18.9853 1.1291 19.0965C1.15363 18.7596 1.17787 18.4844 1.19795 18.2793L14.3132 18.8818ZM1.11158 27.017C1.83265 26.5006 5.60157 24.024 8.95136 26.0596C9.1872 26.2051 9.49433 26.1289 9.63838 25.8926C9.78193 25.6572 9.70674 25.3496 9.4709 25.2061C6.09834 23.1539 2.5276 24.9232 1.05567 25.8504C0.958566 23.4257 0.99885 21.4769 1.06782 20.1064C2.61677 19.9637 4.89228 19.978 5.88935 20.5781C5.48994 20.6963 4.78681 20.7832 4.47822 20.8213C4.2458 20.8496 4.04511 20.875 3.90937 20.9004C3.29902 21.0166 2.86689 21.3584 2.75215 21.8145C2.66474 22.1631 2.72724 22.7129 3.52168 23.3545C3.90205 23.6621 4.41474 23.7725 4.95576 23.7725C6.24336 23.7725 7.69404 23.1465 7.91523 23.0469C8.01484 23.0029 8.09736 22.9268 8.14961 22.8311C8.7956 21.6514 9.69013 20.3027 10.0734 20.0312C10.3786 20.2266 11.0441 21.1631 11.5607 22.1377C11.5668 22.1491 11.5776 22.1557 11.5844 22.1664C11.4721 22.1272 11.3463 22.1232 11.2268 22.1709C9.54414 22.8721 9.54804 23.415 9.54951 23.5938C9.55049 23.7334 9.60273 24.0781 10.0666 24.2627C10.5933 24.4736 11.7384 24.7173 12.5897 24.8821C12.4681 25.1067 12.3928 25.3599 12.3928 25.6328C12.3928 26.0499 12.5578 26.4271 12.8218 26.7109L12.6892 26.7168C12.4133 26.7285 12.1994 26.9619 12.2116 27.2383C12.2233 27.5059 12.445 27.7158 12.7106 27.7158C12.7185 27.7158 12.7258 27.7158 12.7331 27.7148L23.6589 27.2296L34.5847 27.7148C34.592 27.7158 34.5993 27.7158 34.6071 27.7158C34.8727 27.7158 35.0944 27.5059 35.1061 27.2383C35.1184 26.9619 34.9045 26.7285 34.6286 26.7168L34.4956 26.7109C34.7595 26.4271 34.9245 26.0499 34.9245 25.6328C34.9245 25.3599 34.8492 25.1068 34.7276 24.8821C35.5789 24.7174 36.724 24.4736 37.2502 24.2627C37.7145 24.0781 37.7668 23.7334 37.7678 23.5938C37.7692 23.415 37.7731 22.8721 36.0905 22.1709C35.971 22.1232 35.8452 22.1272 35.7329 22.1664C35.7397 22.1557 35.7505 22.1491 35.7565 22.1377C36.2727 21.1641 36.9377 20.2275 37.2434 20.0312C37.5978 20.2852 38.446 21.5137 39.1682 22.8311C39.2204 22.9268 39.3029 23.0029 39.4025 23.0469C39.6237 23.1465 41.0739 23.7725 42.3615 23.7725C42.903 23.7725 43.4157 23.6621 43.7961 23.3545C44.59 22.7129 44.6525 22.1631 44.5651 21.8145C44.4504 21.3584 44.0183 21.0166 43.4074 20.9004C43.2727 20.875 43.072 20.8496 42.8391 20.8213C42.5246 20.7822 41.8 20.6934 41.4055 20.5703C42.3096 19.976 44.6597 19.9619 46.2495 20.1071C46.3186 21.4777 46.359 23.4265 46.262 25.8509C44.7902 24.9238 41.2185 23.1536 37.8469 25.2061C37.611 25.3496 37.5358 25.6572 37.6794 25.8926C37.8239 26.1289 38.1306 26.2051 38.3664 26.0596C41.7078 24.0287 45.4844 26.5028 46.2062 27.0176C45.7358 35.4833 43.5764 48.9041 35.759 63.4619C35.6556 63.6371 35.5632 63.7914 35.4635 63.9596L29.7346 70.6844C34.1236 60.9125 36.9349 51.1295 38.0612 41.5869C39.2541 31.4785 36.7189 29.8076 36.426 29.6504C36.4208 29.6476 36.4152 29.648 36.41 29.6454C36.3815 29.6313 36.3497 29.6259 36.3184 29.6172C36.2865 29.6087 36.2556 29.5978 36.2235 29.596C36.2153 29.5955 36.2086 29.591 36.2004 29.5908C36.1343 29.5898 29.6465 29.4514 23.8388 29.4459C23.8378 29.4459 23.837 29.4453 23.8361 29.4453C23.7775 29.4453 23.7177 29.4456 23.6589 29.4456C23.6001 29.4456 23.5403 29.4453 23.4816 29.4453C23.4807 29.4453 23.4799 29.4459 23.479 29.4459C17.6708 29.4514 11.1829 29.5898 11.1169 29.5908C11.1098 29.5909 11.104 29.5948 11.0969 29.5953C11.0681 29.5969 11.0407 29.6075 11.0122 29.6143C10.9758 29.6231 10.9396 29.6295 10.9069 29.6458C10.9019 29.6482 10.8963 29.6478 10.8913 29.6504C10.5983 29.8076 8.06318 31.4785 9.25605 41.5869C10.3823 51.1291 13.1934 60.9119 17.5822 70.6833L11.8517 63.9572C11.7559 63.7955 11.6674 63.6476 11.5681 63.4795C3.74446 48.9105 1.58277 35.4845 1.11158 27.017ZM18.8146 70.9619C18.8103 70.9643 18.8054 70.9671 18.801 70.9695C14.2728 61.0592 11.39 51.1374 10.2492 41.4697C9.25501 33.0444 10.934 30.9418 11.3062 30.5872C12.3307 30.5659 18.3093 30.4481 23.6589 30.4456C29.0085 30.4481 34.9875 30.5659 36.0113 30.5872C36.3842 30.9429 38.062 33.0478 37.0681 41.4697C35.9273 51.1377 33.0443 61.0598 28.5159 70.9703C28.5116 70.968 28.5069 70.9652 28.5026 70.9629C25.6061 69.4121 21.7111 69.4141 18.8146 70.9619ZM17.0158 72.0225C16.9904 71.9974 16.5893 71.5811 15.2116 69.4421L17.2882 71.8795C17.2031 71.9359 17.1196 71.9891 17.0331 72.0484C17.0261 72.0404 17.0234 72.0301 17.0158 72.0225ZM37.5549 85.208C36.4953 85.3779 32.3425 85.9658 25.4396 85.9658H21.8776C14.9748 85.9658 10.8225 85.3779 9.76289 85.208L9.19892 83.7596C13.2335 84.6583 21.4915 84.7739 21.8776 84.7783H25.446C25.8264 84.7739 34.0841 84.6583 38.1185 83.7596L37.5549 85.208ZM38.1999 82.7188C34.4309 83.6553 25.5285 83.7773 25.4396 83.7783H21.884C21.7893 83.7773 12.8869 83.6553 9.11738 82.7188C12.6799 76.3311 16.5959 73.2822 19.2863 71.8438C21.8937 70.4492 25.4235 70.4492 28.031 71.8438C30.7219 73.2812 34.6379 76.3311 38.1999 82.7188ZM30.0291 71.88L32.1043 69.4442C30.7283 71.5811 30.3306 71.9938 30.3117 72.0127C30.3001 72.0234 30.2953 72.0379 30.2849 72.0494C30.1981 71.99 30.1145 71.9366 30.0291 71.88Z" fill="black"/>
</svg>
