<svg width="41" height="87" viewBox="0 0 41 87" fill="none" xmlns="http://www.w3.org/2000/svg">
<path d="M40.2199 0.00101955L30.0187 0.999066H20.8937C20.8921 0.999066 20.8908 0.999982 20.8891 0.999982L19.8803 1.0001C19.8784 1.0001 19.877 0.999066 19.8752 0.999066L10.799 1.00102L0.548978 0.00101955C0.374173 -0.00874605 0.224759 0.0518008 0.118314 0.175824C0.0128452 0.300824 -0.0252407 0.46977 0.0167515 0.628949L13.8474 52.2207C13.2815 53.6661 9.15793 64.3406 8.10568 70.9062C7.87771 71.2956 7.06808 72.8644 7.37027 74.8362L6.27188 79.3519L4.65719 83.9474L4.65445 83.9551C4.65451 83.955 4.65439 83.9552 4.65445 83.9551L4.65347 83.9581C4.6398 83.9971 4.63101 84.0362 4.6271 84.0772C4.61734 84.1817 4.63199 84.3926 4.83999 84.6211C5.88296 85.7676 11.2043 86.3741 20.2296 86.3741C20.2846 86.3741 20.335 86.3592 20.3844 86.3429C20.4339 86.3592 20.4843 86.3741 20.5392 86.3741C29.5646 86.3741 34.8859 85.7676 35.9289 84.6211C36.1369 84.3926 36.1515 84.1817 36.1418 84.0772C36.1378 84.0362 36.1291 83.9971 36.1154 83.9581L36.1145 83.9556C36.1146 83.9557 36.1145 83.9554 36.1145 83.9556L36.1117 83.9474L34.497 79.3519L33.3986 74.8362C33.7008 72.8644 32.8911 71.2956 32.6632 70.9062C31.6109 64.3406 27.4874 53.6661 26.9215 52.2207L40.7521 0.628949C40.7941 0.46977 40.756 0.300824 40.6505 0.175824C40.5451 0.0518008 40.3908 -0.00776945 40.2199 0.00101955ZM26.054 52.7491C26.7852 54.638 30.5486 64.5309 31.6209 70.7284C31.5494 70.7495 31.4797 70.7716 31.4066 70.7918C31.2782 70.8272 31.148 70.8614 31.0153 70.8941C30.8703 70.9298 30.7231 70.9639 30.5736 70.9965C30.435 71.0267 30.2955 71.056 30.1536 71.0836C30.0024 71.113 29.8494 71.1407 29.695 71.1673C29.5484 71.1926 29.4013 71.2174 29.2524 71.2402C29.0958 71.2643 28.9381 71.2865 28.7796 71.308C28.6298 71.3284 28.4799 71.3485 28.3289 71.3666C28.1691 71.3858 28.0089 71.4033 27.8485 71.4203C27.696 71.4364 27.5435 71.4525 27.391 71.4667C27.2327 71.4814 27.0752 71.4944 26.9175 71.5071C26.7638 71.5195 26.61 71.532 26.4575 71.5427C26.3029 71.5535 26.1502 71.5627 25.9974 71.5718C25.8456 71.5808 25.6935 71.5901 25.5442 71.5976C25.3924 71.6052 25.244 71.6113 25.0954 71.6174C24.9515 71.6233 24.8069 71.6296 24.6666 71.6343C24.5196 71.6392 24.3778 71.6427 24.2353 71.6463C24.1002 71.6497 23.9633 71.6535 23.833 71.656C23.6975 71.6585 23.5691 71.6598 23.4392 71.6613C23.3124 71.6628 23.1828 71.6647 23.0619 71.6653C22.9311 71.6661 22.8095 71.6658 22.6863 71.6656C22.5827 71.6655 22.4748 71.6659 22.3772 71.6653C22.2473 71.6645 22.13 71.6631 22.0115 71.6616C21.9325 71.6606 21.847 71.66 21.7735 71.6588C21.6633 71.657 21.5687 71.6549 21.4717 71.6528C21.4065 71.6514 21.3329 71.6501 21.274 71.6485C21.1805 71.6462 21.1055 71.6438 21.0292 71.6415C20.9876 71.6402 20.9355 71.639 20.8993 71.6377C20.8336 71.6355 20.7904 71.6339 20.7434 71.6321C20.643 71.6283 20.5706 71.6252 20.5646 71.625C20.5 71.6183 20.442 71.6289 20.3868 71.6441C20.3302 71.6277 20.2701 71.6177 20.2043 71.625C20.1772 71.6254 19.1374 71.6747 17.633 71.6645C17.6195 71.6645 17.605 71.6642 17.5915 71.6641C17.3602 71.6624 17.1182 71.6592 16.8673 71.6543C16.823 71.6535 16.7764 71.652 16.7315 71.651C16.5069 71.6462 16.2769 71.64 16.0405 71.6319C15.9702 71.6295 15.8976 71.6261 15.8264 71.6235C15.6105 71.6152 15.3919 71.6058 15.1691 71.5944C15.0756 71.5896 14.9804 71.5837 14.886 71.5783C14.6804 71.5665 14.4737 71.5539 14.2647 71.539C14.1541 71.5312 14.0428 71.522 13.9316 71.5133C13.735 71.4978 13.5379 71.4814 13.3402 71.4628C13.2188 71.4514 13.0974 71.4386 12.976 71.4259C12.7869 71.4063 12.5982 71.3855 12.41 71.3627C12.282 71.3472 12.1549 71.3301 12.0277 71.313C11.8484 71.289 11.6701 71.2637 11.4933 71.2364C11.3603 71.2158 11.229 71.1938 11.0978 71.1713C10.9307 71.1427 10.7652 71.1127 10.6017 71.0808C10.4682 71.0547 10.3367 71.0271 10.2061 70.9988C10.0504 70.965 9.89731 70.9294 9.74655 70.8923C9.61764 70.8605 9.49112 70.8273 9.36642 70.7929C9.29184 70.7724 9.22085 70.7498 9.14792 70.7283C10.2202 64.5307 13.9837 54.6379 14.7148 52.7491H16.1671H16.1789H20.2296C20.2834 52.7491 20.3361 52.7403 20.3849 52.7247C20.4328 52.7403 20.4855 52.7491 20.5392 52.7491H24.59H24.6017H26.054ZM20.8937 82.2071C20.9015 82.2071 20.9093 82.2071 20.9171 82.2061C27.6398 81.8956 32.1685 81.2663 33.8189 80.4388L34.1595 81.4079C34.1643 81.4391 34.162 81.4702 34.173 81.501L35.0802 84.0342C35.0188 84.0733 34.9261 84.1235 34.7884 84.1814C34.7864 84.1823 34.7835 84.1833 34.7815 84.1841C34.714 84.2124 34.6368 84.2424 34.5465 84.2738C34.5373 84.277 34.5245 84.2805 34.5151 84.2837C34.429 84.3132 34.3357 84.3436 34.2271 84.375C34.1939 84.3847 34.1505 84.3949 34.115 84.4048C34.0215 84.4306 33.9292 84.4563 33.8191 84.483C33.764 84.4964 33.6952 84.5101 33.6357 84.5236C33.5312 84.5473 33.4315 84.571 33.3127 84.595C33.2281 84.6122 33.1257 84.6293 33.0334 84.6465C32.9223 84.6672 32.8195 84.6879 32.6969 84.7085C32.5832 84.7276 32.4492 84.7464 32.3252 84.7654C32.2042 84.7839 32.0934 84.8026 31.9621 84.8208C31.7834 84.8457 31.5802 84.8697 31.3815 84.8939C31.2846 84.9057 31.2 84.918 31.0982 84.9295C30.9221 84.9495 30.7209 84.9683 30.5296 84.9876C30.3822 85.0024 30.2478 85.0179 30.091 85.0323C29.9009 85.0497 29.6846 85.0654 29.4802 85.0819C29.2984 85.0966 29.1302 85.1121 28.9368 85.126C28.636 85.1476 28.3047 85.1669 27.9746 85.1863C27.8534 85.1933 27.7464 85.2016 27.6211 85.2084C27.2644 85.2278 26.8751 85.2444 26.4843 85.2608C26.3637 85.2659 26.2572 85.2723 26.1332 85.2771C24.5564 85.3379 22.7074 85.3741 20.5392 85.3741C20.4843 85.3741 20.4339 85.389 20.3844 85.4053C20.335 85.389 20.2846 85.3741 20.2296 85.3741C18.0615 85.3741 16.2124 85.3379 14.6356 85.2771C14.5116 85.2723 14.4052 85.2659 14.2845 85.2608C13.8938 85.2444 13.5044 85.2278 13.1478 85.2084C13.0225 85.2016 12.9155 85.1933 12.7942 85.1863C12.4641 85.1669 12.1328 85.1476 11.8321 85.126C11.6485 85.1128 11.4893 85.098 11.3163 85.0842C11.1018 85.0669 10.8764 85.0505 10.6776 85.0323C10.528 85.0186 10.4003 85.0038 10.2594 84.9896C10.0608 84.9697 9.85293 84.9502 9.67062 84.9295C9.56881 84.918 9.48422 84.9057 9.38736 84.8939C9.18863 84.8697 8.98544 84.8457 8.80673 84.8208C8.67544 84.8026 8.56466 84.7839 8.44369 84.7654C8.31967 84.7464 8.18564 84.7276 8.07199 84.7085C7.95614 84.689 7.85965 84.6695 7.75418 84.6499C7.655 84.6316 7.54629 84.6132 7.45584 84.5949C7.34268 84.572 7.24826 84.5495 7.1481 84.5269C7.08346 84.5123 7.00931 84.4974 6.9498 84.483C6.83975 84.4563 6.74734 84.4306 6.6539 84.4048C6.61837 84.3949 6.57498 84.3847 6.54178 84.375C6.43313 84.3436 6.33981 84.3132 6.25375 84.2837C6.24435 84.2805 6.23153 84.277 6.22238 84.2738C6.14016 84.2452 6.07168 84.2182 6.00851 84.1922C6.00009 84.1887 5.98819 84.1847 5.98013 84.1813C5.84262 84.1234 5.74997 84.0732 5.68863 84.0342L6.59585 81.501C6.60684 81.4702 6.60458 81.4391 6.60934 81.4079L6.94992 80.4388C8.60031 81.2663 13.1291 81.8956 19.8517 82.2061C19.8595 82.2071 19.8673 82.2071 19.8752 82.2071C20.1408 82.2071 20.3625 81.9981 20.3742 81.7305C20.3878 81.4541 20.174 81.2207 19.8986 81.2081C10.0074 80.7498 7.72903 79.7657 7.26846 79.4818L8.14309 75.8859C10.0454 77.0518 15.0548 77.2676 18.4777 77.2676C19.1349 77.2676 19.7335 77.2598 20.2404 77.2491C20.2917 77.248 20.3381 77.2322 20.3844 77.2168C20.4308 77.2322 20.4772 77.248 20.5285 77.2491C21.0353 77.2598 21.6339 77.2676 22.2912 77.2676C25.7141 77.2676 30.7235 77.0518 32.6258 75.8859L33.5004 79.4818C33.0398 79.7657 30.7614 80.7498 20.8703 81.2081C20.5949 81.2207 20.381 81.4541 20.3947 81.7305C20.4064 81.9981 20.6281 82.2071 20.8937 82.2071ZM17.9611 72.6719C19.2609 72.6719 20.1515 72.629 20.255 72.6231C20.3014 72.6208 20.3424 72.6042 20.3844 72.5903C20.4264 72.6042 20.4675 72.6208 20.5138 72.6231C20.6173 72.629 21.508 72.6719 22.8078 72.6719C25.2502 72.6719 29.1243 72.5116 31.9356 71.673C32.1975 72.2154 32.6463 73.3992 32.4015 74.7872C32.2414 75.6934 26.7043 76.3819 20.55 76.2491C20.546 76.2491 20.5421 76.2491 20.5392 76.2491C20.4845 76.2491 20.4338 76.2635 20.3844 76.2798C20.3351 76.2635 20.2844 76.2491 20.2296 76.2491C20.2267 76.2491 20.2228 76.2491 20.2189 76.2491C14.0763 76.375 8.52749 75.6934 8.36734 74.7872C8.12253 73.3992 8.57138 72.2154 8.83322 71.673C11.6446 72.5116 15.5186 72.6719 17.9611 72.6719ZM24.3957 40.1104L24.1017 50.7354C24.0999 50.8006 24.1125 50.8625 24.1336 50.9202L24.1136 51.7491H20.5392C20.4855 51.7491 20.4328 51.7579 20.3849 51.7735C20.3361 51.7579 20.2834 51.7491 20.2296 51.7491H16.6553L16.6352 50.9202C16.6563 50.8625 16.669 50.8006 16.6671 50.7354L16.3892 40.7713L16.3732 40.1123C16.3731 40.108 16.3707 40.1045 16.3705 40.1003L16.3693 40.0586L11.3213 1.99907H19.8752C19.8768 1.99907 19.8781 1.99815 19.8797 1.99815L20.8886 1.99803C20.8904 1.99803 20.8919 1.99907 20.8937 1.99907L29.4479 1.99724L24.3957 40.1104ZM10.306 1.95585L15.3732 40.1377L15.3736 40.1516L15.6548 51.7491H14.757L1.17007 1.06645L10.306 1.95585ZM26.0119 51.7491H25.1141L25.3949 40.1654L30.4626 1.95854L39.5988 1.06645L26.0119 51.7491Z" fill="black"/>
<path d="M20.552 10.6241C18.6565 10.6241 17.1145 12.1661 17.1145 14.0616C17.1145 15.9571 18.6565 17.4991 20.552 17.4991C22.4475 17.4991 23.9895 15.9571 23.9895 14.0616C23.9895 12.1661 22.4475 10.6241 20.552 10.6241ZM20.552 16.4991C19.2083 16.4991 18.1145 15.4053 18.1145 14.0616C18.1145 12.7178 19.2083 11.6241 20.552 11.6241C21.8958 11.6241 22.9895 12.7178 22.9895 14.0616C22.9895 15.4053 21.8958 16.4991 20.552 16.4991Z" fill="black"/>
</svg>
