<svg width="34" height="88" viewBox="0 0 34 88" fill="none" xmlns="http://www.w3.org/2000/svg">
<path d="M33.2437 80.1874C33.2479 80.1395 33.2476 80.0933 33.2423 80.0447C33.2368 79.9941 33.2255 79.9471 33.2099 79.8986C33.2017 79.873 33.2039 79.8464 33.1927 79.8213C33.0794 79.5664 21.887 54.2158 21.8851 43.375C21.8841 35.6709 23.0619 21.063 30.9701 9.78809C31.4925 9.04199 31.3382 8.02832 30.6195 7.48145L29.6351 6.72998C29.2689 6.45068 28.8138 6.33496 28.3646 6.40039C27.9144 6.46631 27.5189 6.70605 27.2513 7.07471C27.1568 7.20471 26.9536 7.48804 26.6787 7.88116C26.0413 4.98621 23.9305 0 16.9476 0C9.54568 0 7.33895 5.43512 6.70113 8.09589C6.42629 7.68488 6.18966 7.34009 6.02181 7.1084C5.7474 6.73047 5.34213 6.48535 4.88021 6.41748C4.42025 6.34912 3.95541 6.46826 3.58041 6.75391L2.65658 7.4585C1.92269 8.01904 1.76547 9.05566 2.29916 9.81885C10.1888 21.0908 11.3636 35.6812 11.3626 43.375C11.3607 54.2139 0.167321 79.5664 0.05404 79.8203C0.0426264 79.846 0.0448237 79.873 0.0365229 79.8992C0.0209589 79.9476 0.00978947 79.9945 0.00423527 80.045C-0.000891726 80.093 -0.00131891 80.1383 0.00270939 80.1856C0.00649359 80.2336 0.0144892 80.2789 0.0276728 80.326C0.0414057 80.3746 0.0598994 80.4188 0.0830927 80.4636C0.0955439 80.4879 0.0978022 80.5148 0.113122 80.5381C0.30404 80.8271 4.90658 87.625 15.6507 87.625H17.597C28.3412 87.625 32.9427 80.8271 33.1331 80.5371C33.1476 80.5151 33.1496 80.4898 33.1615 80.467C33.186 80.4203 33.2053 80.3741 33.2196 80.3234C33.2323 80.2778 33.2399 80.2338 33.2437 80.1874ZM7.11569 66.2441C7.67788 66.0286 9.63131 65.353 12.6359 65.0393C12.2981 68.4683 12.0444 70.7927 11.9732 71.4367C8.92318 70.5941 7.00387 69.0469 6.31271 68.4108C6.57876 67.7048 6.84713 66.9796 7.11569 66.2441ZM14.154 64.9211C14.6775 64.8934 15.2197 64.875 15.7913 64.875H17.4554C18.1298 64.875 18.7707 64.8969 19.3777 64.9346C19.687 67.111 20.0343 69.3492 20.4292 71.6595C19.3259 71.894 18.0988 72.032 16.7396 72H16.4945C16.3949 72.002 16.2972 72.0029 16.1995 72.0029C15.21 72.0029 14.2974 71.9087 13.4461 71.7612C13.471 71.5389 13.758 68.9576 14.154 64.9211ZM16.6698 27.2059C16.6726 27.1809 16.6711 27.1566 16.6714 27.1312C16.7646 22.4348 16.714 18.0915 16.4388 14.5649L18.721 13.4023C18.6576 14.1484 18.5609 15.0576 18.4466 16.1299C17.6029 24.0393 15.9442 39.6319 19.1672 63.4224C18.6199 63.394 18.0534 63.375 17.4554 63.375H15.7913C15.2732 63.375 14.7807 63.3904 14.3005 63.412C15.1706 54.3503 16.421 39.5549 16.6698 27.2059ZM21.8855 71.2718C21.5233 69.1465 21.202 67.0828 20.9131 65.0721C23.7475 65.3982 25.5892 66.0364 26.1317 66.2444C26.4006 66.981 26.6693 67.7073 26.9358 68.4144C26.2964 69.0115 24.5901 70.4047 21.8855 71.2718ZM28.4652 7.95605C28.5013 7.90576 28.5492 7.88965 28.5824 7.88428C28.6224 7.87988 28.6722 7.88184 28.7249 7.92236L29.7103 8.6748C29.7874 8.7334 29.8011 8.84229 29.7415 8.92725C21.597 20.5391 20.3841 35.4941 20.3851 43.375C20.386 48.6561 22.8449 57.0042 25.4835 64.445C24.427 64.1318 22.8047 63.7499 20.6959 63.5372C18.3713 46.5536 18.5505 33.7625 19.1499 24.9638C21.3031 18.7006 26.0127 11.3331 28.4652 7.95605ZM7.94564 9.63525C7.96908 9.30273 8.61849 1.5 16.9476 1.5C24.6087 1.5 25.369 8.37842 25.4445 9.69812C23.8278 12.1384 21.4619 15.9518 19.5553 20.0237C19.6883 18.6295 19.821 17.3848 19.9378 16.2891C20.0687 15.061 20.1771 14.0439 20.2396 13.2383C20.2767 12.7554 20.0501 12.2886 19.6478 12.02C19.2415 11.7495 18.721 11.7197 18.2835 11.9414L15.6654 13.2759C15.1781 13.5239 14.891 14.0342 14.9349 14.5742C15.1372 17.1099 15.2185 20.0876 15.2144 23.3147C13.0719 18.4919 9.95303 13.1867 7.87179 9.90015C7.91061 9.81866 7.93887 9.73059 7.94564 9.63525ZM3.52767 8.95898C3.45541 8.85547 3.47201 8.72314 3.56674 8.65088L4.49056 7.94678C4.55697 7.89453 4.62826 7.896 4.66244 7.90137C4.70345 7.90771 4.76302 7.92773 4.80697 7.98877C6.31826 10.0737 12.7144 20.1381 15.1708 27.2347C14.9192 39.6188 13.6529 54.5076 12.7848 63.5125C10.5599 63.7192 8.85995 64.1199 7.76382 64.4448C10.4026 57.004 12.8617 48.6561 12.8626 43.375C12.8636 35.5049 11.6536 20.5679 3.52767 8.95898ZM17.597 86.125H15.6507C7.02712 86.125 2.62472 81.3127 1.60256 80.0264C2.15249 78.7698 3.83498 74.8712 5.7416 69.9119C7.25039 71.1743 10.7665 73.5029 16.179 73.5029C16.2874 73.5029 16.3968 73.502 16.5072 73.5H16.7269C22.313 73.6031 25.9588 71.1998 27.505 69.9105C29.4121 74.8715 31.0951 78.7712 31.6446 80.0264C30.6224 81.3126 26.2206 86.125 17.597 86.125Z" fill="black"/>
</svg>
