<svg width="500" height="461" viewBox="0 0 500 461" fill="none" xmlns="http://www.w3.org/2000/svg">
<path d="M41.1202 323.178H12.8972V340.931H40.2712V351.015H12.8972V373.074H41.1202V383.159H2.0752V313.094H41.1202V323.178Z" fill="black"/>
<path d="M65.841 313.094V355.322C65.841 359.103 65.947 363.726 68.069 367.402C70.191 370.974 74.966 374.651 81.225 374.651C87.485 374.651 92.26 370.974 94.382 367.402C96.504 363.726 96.61 359.104 96.61 355.322V313.094H107.432V358.158C107.432 363.726 106.265 370.449 100.854 376.331C97.14 380.323 90.881 384.525 81.225 384.525C71.57 384.525 65.31 380.323 61.597 376.331C56.185 370.449 55.019 363.726 55.019 358.158V313.094H65.841Z" fill="black"/>
<path d="M136.927 313.094C145.522 313.094 151.039 314.145 155.601 317.191C163.346 322.338 163.983 330.637 163.983 333.683C163.983 343.767 157.723 351.12 148.28 353.221L170.35 383.158H157.299L137.034 354.481H135.124V383.158H124.302V313.093L136.927 313.094ZM135.123 345.238H138.518C141.489 345.238 153.585 344.923 153.585 333.788C153.585 323.914 144.142 322.969 138.837 322.969H135.123V345.238Z" fill="black"/>
<path d="M251.091 348.179C251.091 368.768 235.494 384.525 214.274 384.525C193.054 384.525 177.456 368.768 177.456 348.179C177.456 327.591 193.054 311.834 214.274 311.834C235.494 311.834 251.091 327.591 251.091 348.179ZM240.269 348.179C240.269 332.633 229.447 321.708 214.274 321.708C199.101 321.708 188.279 332.633 188.279 348.179C188.279 363.726 199.101 374.651 214.274 374.651C229.447 374.651 240.269 363.726 240.269 348.179Z" fill="black"/>
<path d="M280.161 313.094C284.511 313.094 290.559 313.514 295.652 316.875C301.594 320.762 304.458 327.485 304.458 333.892C304.458 337.989 303.397 344.291 297.561 349.228C291.938 353.955 285.466 354.69 280.267 354.69H275.386V383.157H264.563V313.092H280.161V313.094ZM275.386 344.818H280.267C289.603 344.818 294.06 340.301 294.06 333.788C294.06 329.901 292.469 322.969 280.161 322.969H275.386V344.818Z" fill="black"/>
<path d="M354.43 323.178H326.207V340.931H353.581V351.015H326.207V373.074H354.43V383.159H315.385V313.094H354.43V323.178Z" fill="black"/>
<path d="M409.921 366.247H379.681L371.936 383.159H360.265L395.49 308.998L429.019 383.159H417.348L409.921 366.247ZM405.571 356.162L395.067 332.422L384.139 356.162H405.571Z" fill="black"/>
<path d="M437.823 383.159V308.367L489.177 361.624V313.094H500V387.466L448.646 334.208V383.159H437.823Z" fill="black"/>
<path d="M23.783 422.473C23.348 421.396 22.695 420.392 21.608 419.459C20.085 418.238 18.49 417.736 16.387 417.736C11.891 417.736 9.57101 420.392 9.57101 423.479C9.57101 424.915 10.079 427.426 14.792 429.292L19.65 431.23C28.569 434.818 31.034 439.843 31.034 445.298C31.034 454.414 24.509 460.659 15.444 460.659C9.861 460.659 6.526 458.578 4.06 455.85C1.45 452.979 0.29 449.821 0 446.519L7.323 444.94C7.323 447.308 8.193 449.534 9.353 451.041C10.731 452.763 12.761 453.912 15.661 453.912C20.156 453.912 23.636 450.683 23.636 445.874C23.636 440.993 19.866 438.983 16.675 437.691L12.034 435.753C8.047 434.102 2.173 430.8 2.173 423.623C2.173 417.162 7.24901 410.99 16.312 410.99C21.533 410.99 24.506 412.928 26.029 414.219C27.334 415.368 28.712 417.019 29.727 419.029L23.783 422.473Z" fill="#7A7A7A"/>
<path d="M51.7701 411.85V440.704C51.7701 443.289 51.8421 446.447 53.2921 448.958C54.7421 451.399 58.0051 453.911 62.2831 453.911C66.5601 453.911 69.824 451.399 71.274 448.958C72.724 446.446 72.7961 443.288 72.7961 440.704V411.85H80.192V442.643C80.192 446.447 79.3941 451.041 75.6961 455.061C73.1581 457.788 68.8801 460.659 62.2821 460.659C55.6841 460.659 51.4051 457.788 48.8681 455.061C45.1701 451.041 44.3721 446.448 44.3721 442.643V411.85H51.7701Z" fill="#7A7A7A"/>
<path d="M106.511 411.85C109.484 411.85 113.616 412.137 117.097 414.435C121.157 417.09 123.115 421.684 123.115 426.063C123.115 428.862 122.39 433.168 118.402 436.542C114.559 439.771 110.136 440.274 106.583 440.274H103.247V459.726H95.8521V411.85H106.511ZM103.248 433.526H106.584C112.965 433.526 116.01 430.44 116.01 425.989C116.01 423.334 114.923 418.596 106.512 418.596H103.248V433.526Z" fill="#7A7A7A"/>
<path d="M161.399 418.741H142.112V430.871H160.819V437.761H142.112V452.835H161.399V459.725H134.716V411.85H161.399V418.741Z" fill="#7A7A7A"/>
<path d="M183.658 411.85C189.531 411.85 193.301 412.568 196.419 414.65C201.712 418.167 202.147 423.838 202.147 425.919C202.147 432.81 197.869 437.834 191.415 439.27L206.497 459.726H197.579L183.731 440.13H182.426V459.726H175.03V411.85H183.658ZM182.426 433.814H184.746C186.775 433.814 195.042 433.599 195.042 425.99C195.042 419.244 188.589 418.597 184.963 418.597H182.426V433.814Z" fill="#7A7A7A"/>
<path d="M246.157 411.85V452.836H260.369V459.726H238.761V411.85H246.157Z" fill="#7A7A7A"/>
<path d="M298.072 418.741H278.785V430.871H297.492V437.761H278.785V452.835H298.072V459.725H271.389V411.85H298.072V418.741Z" fill="#7A7A7A"/>
<path d="M340.126 448.169H319.461L314.167 459.725H306.192L330.265 409.05L353.178 459.725H345.202L340.126 448.169ZM337.153 441.279L329.974 425.057L322.505 441.279H337.153Z" fill="#7A7A7A"/>
<path d="M387.254 434.818H407.194V435.177C407.194 443.36 404.729 450.035 400.015 454.557C395.012 459.366 389.067 460.658 383.555 460.658C376.522 460.658 371.519 458.648 367.096 454.127C362.383 449.317 359.917 442.93 359.917 436.039C359.917 428.574 362.963 422.114 366.95 418.167C371.084 414.004 377.681 410.989 385.15 410.989C389.501 410.989 393.996 411.922 397.767 414.003C401.754 416.228 404.22 419.028 405.597 421.181L399.724 425.273C398.274 423.263 396.099 421.11 393.779 419.818C391.096 418.239 388.195 417.736 385.223 417.736C378.915 417.736 374.854 420.321 372.462 422.689C369.272 425.848 367.314 430.943 367.314 436.111C367.314 440.921 369.127 445.73 372.318 449.103C375.653 452.62 379.787 453.912 384.427 453.912C388.632 453.912 392.112 452.692 395.231 449.677C397.914 447.093 399.001 444.294 399.291 441.566H387.254V434.818Z" fill="#7A7A7A"/>
<path d="M427.929 411.85V440.704C427.929 443.289 428.002 446.447 429.452 448.958C430.902 451.399 434.165 453.911 438.443 453.911C442.721 453.911 445.984 451.399 447.434 448.958C448.884 446.446 448.956 443.288 448.956 440.704V411.85H456.351V442.643C456.351 446.447 455.554 451.041 451.856 455.061C449.318 457.788 445.041 460.659 438.442 460.659C431.843 460.659 427.565 457.788 425.027 455.061C421.33 451.041 420.532 446.448 420.532 442.643V411.85H427.929Z" fill="#7A7A7A"/>
<path d="M498.695 418.741H479.408V430.871H498.115V437.761H479.408V452.835H498.695V459.725H472.012V411.85H498.695V418.741Z" fill="#7A7A7A"/>
<path d="M500 295.458H2.0752V300.281H500V295.458Z" fill="black"/>
<path d="M500 395.269H2.0752V400.092H500V395.269Z" fill="black"/>
<path d="M358.731 100.156L358.143 100.305C352.777 101.699 348.594 102.401 344.552 103.076C340.343 103.777 336.362 104.444 331.434 105.821C322.534 92.4929 310.503 82.0759 298.824 72.7979L298.158 72.2629L297.983 76.3399C297.343 91.3609 296.834 103.242 295.51 117.982C282.611 123.524 266.609 130.416 252.482 138.395L251.789 138.781L252.491 139.158C259.76 143.051 267.257 147.927 274.509 152.635C280.138 156.292 285.47 159.746 290.468 162.631C291.003 176.45 289.705 187.692 288.206 200.704C288.013 202.317 287.829 203.966 287.636 205.649L287.548 206.438L288.258 206.087C300.709 200.089 316.563 187.454 326.428 178.387C336.968 180.141 341.449 180.737 353.269 181.114L353.69 181.131L353.725 180.587C354.549 165.488 355.102 155.491 349.297 141.628C355.584 129.975 357.601 116.848 358.688 100.758L358.731 100.156ZM324.989 164.711L324.822 164.886C317.553 172.883 309.074 179.968 302.322 185.352C302.646 180.407 302.874 175.759 303.102 171.252C303.339 166.456 303.593 161.493 303.944 156.179L303.962 155.898L303.725 155.766C300.621 153.986 297.385 152.039 293.966 149.979C288.766 146.857 283.4 143.631 278.068 140.737C284.943 136.931 291.808 134.143 298.464 131.451C301.042 130.408 303.708 129.329 306.268 128.224L306.522 128.119L306.54 127.838C306.961 116.965 307.399 105.741 307.873 94.6049C316.589 101.655 324.095 110.266 329.61 119.552L329.794 119.868L330.136 119.737C335.274 117.817 342.237 115.44 350.821 113.976C347.524 125.349 344.762 134.056 339.878 141.886L339.764 142.07L339.843 142.272C343.719 152.4 345.437 159.827 346.104 169.446C344.657 169.095 343.263 168.745 341.913 168.411C336.178 166.982 331.224 165.745 325.226 164.754L324.989 164.711Z" fill="black"/>
<path d="M221.809 29.253C217.398 43.511 216.232 48.623 215.057 64.792L214.996 65.616L215.715 65.204C229.148 57.514 242.152 52.007 257.848 47.377C267.502 52.209 277.016 58.575 287.091 65.309C290.125 67.335 293.22 69.404 296.412 71.491L297.052 71.912L297.087 71.14C297.674 57.75 296.912 50.008 295.859 39.292C295.701 37.687 295.535 36.03 295.368 34.276C300.401 32.154 310.318 30.795 320.814 30.795H322.121L321.077 30.006C310.616 22.132 294.263 12.635 279.68 9.57498C276.778 7.13698 274.603 5.112 272.691 3.323C272.007 2.683 271.358 2.07799 270.727 1.49899C270.201 1.41999 269.684 1.34099 269.157 1.26199C266.395 0.866993 263.598 0.568978 260.774 0.358978C260.765 0.358978 260.765 0.349976 260.765 0.349976C259.801 0.279976 258.836 0.217988 257.863 0.174988C255.653 0.0609878 253.426 0 251.19 0C250.462 0 249.743 0.00899829 249.024 0.0169983C248.375 0.0259983 247.726 0.0429768 247.086 0.0699768C243.771 1.87598 241.79 3.104 237.739 7.146C218.746 9.514 204.559 13.731 194.378 20.027L193.361 20.65L194.545 20.834C204.334 22.326 211.454 24.843 221.809 29.253ZM259.514 0.483978C264.319 4.22798 267.327 7.25298 271.851 11.795L273.745 13.689L273.868 13.715C286.618 16.363 295.693 19.362 301.55 22.869C294.649 24.053 286.977 25.763 282.733 26.903L282.374 26.991L282.409 27.368C282.725 30.726 283.146 33.471 283.549 36.119C284.215 40.495 284.847 44.642 284.899 50.938C275.771 44.975 266.231 38.934 257.909 34.777L257.751 34.698L257.584 34.751C245.764 38.232 237.162 41.696 229.051 46.255C229.919 38.433 231.988 33.356 234.584 26.99C234.961 26.061 235.347 25.105 235.75 24.114L235.908 23.711L235.513 23.544C234.513 23.114 233.54 22.693 232.584 22.281C227.463 20.054 222.982 18.107 217.335 16.871C226.928 12.522 235.916 11.408 244.623 10.33L244.772 10.312L244.877 10.207C249.509 5.578 255.875 1.68498 259.514 0.483978Z" fill="black"/>
<path d="M281.348 237.946L280.585 237.814C282.839 229.028 283.9 222.618 286.074 207.098L286.197 206.23L285.425 206.651C271.711 214.21 257.927 220.321 244.449 224.811C231.138 218.463 219.467 212.114 205.867 201.872L205.227 201.39L205.166 202.179C204.377 211.579 205.438 218.743 206.464 225.679C206.762 227.705 207.069 229.8 207.332 231.931C197.362 233.062 192.136 233.036 181.579 230.756L179.895 230.397L181.201 231.519C189.654 238.815 210.602 248.144 226.088 252.906C226.097 252.915 226.106 252.915 226.114 252.915C229.13 253.529 232.173 254.02 235.26 254.406C235.286 254.415 235.304 254.415 235.321 254.415C237.557 254.704 239.811 254.924 242.082 255.081C242.591 255.116 243.099 255.151 243.608 255.177C245.791 255.309 247.984 255.388 250.202 255.396C250.526 255.405 250.86 255.405 251.193 255.405C251.965 255.405 252.745 255.396 253.508 255.379C253.525 255.388 253.543 255.379 253.561 255.379C268.608 254.151 293.704 246.724 304.84 240.078L306.471 239.105L304.577 239.263C294.063 240.156 286.715 238.884 281.348 237.946ZM242.337 254.089C241.942 253.642 241.337 252.958 240.127 252.125L240.031 252.055L239.917 252.046C232.56 251.432 210.744 245.785 202.519 239.744C209.788 239.735 213.874 239.665 220.17 238.937L220.696 238.876L220.117 237.026C218.644 232.37 217.127 227.556 217.337 219.103C227.149 225.767 234.374 230.625 243.95 234.772L244.09 234.833L244.239 234.789C256.226 231.571 263.618 227.958 274.008 222.469C272.193 230.703 270.062 234.324 267.142 239.27C266.783 239.893 266.397 240.533 266.011 241.208L265.695 241.752L266.317 241.857C267.387 242.041 268.825 242.392 270.482 242.795C274.016 243.663 278.716 244.803 283.407 245.18C274.945 249.257 256.005 251.362 247.666 251.748L247.561 251.757L247.465 251.818C246.334 252.484 245.475 253.028 244.817 253.44C242.854 254.668 242.854 254.677 242.337 254.089Z" fill="black"/>
<path d="M372.112 161.414C371.884 162.282 371.647 163.168 371.41 164.036C371.41 164.045 371.41 164.045 371.401 164.054C367.42 176.12 364.342 177.207 358.757 179.189C357.24 179.733 355.521 180.338 353.566 181.258L353.347 181.363L353.321 181.6C350.454 205.538 332.101 228.95 309.688 237.263L309.986 238.087C316.045 235.939 322.508 232.887 328.628 229.003C328.637 228.994 328.646 228.985 328.654 228.985C332.556 225.969 336.274 222.724 339.799 219.287C339.869 219.217 339.939 219.155 340.009 219.085C341.044 218.068 342.061 217.042 343.052 215.998C343.105 215.937 343.157 215.875 343.219 215.814C345.832 213.078 348.314 210.22 350.664 207.247C355.618 201.013 359.994 194.296 363.729 187.184C363.738 187.184 363.746 187.175 363.738 187.166C366.167 182.545 368.315 177.757 370.165 172.829C370.165 172.82 370.174 172.811 370.174 172.803C370.455 171.663 370.718 170.532 370.981 169.427C371.402 167.612 371.796 165.911 372.252 164.289H372.243C372.559 163.298 372.795 162.43 372.962 161.606L372.112 161.414Z" fill="black"/>
<path d="M141.962 165.544L141.971 165.421L142.348 165.456C154.001 166.833 159.552 167.131 170.381 166.964C179.255 177.96 192.592 192.305 203.588 199.794L204.202 200.224L204.263 199.479C204.938 191.806 205.464 185.686 205.99 179.425C206.543 172.927 207.104 166.281 207.867 157.6C220.108 154.058 234.944 146.701 248.045 140.194L250.921 138.773L250.29 138.352C235.506 128.443 222.643 120.113 210.989 112.879C210.27 98.63 211.261 86.863 212.418 73.245C212.576 71.369 212.734 69.448 212.9 67.484L212.97 66.651L212.242 67.072C197.519 75.542 184.472 83.417 174.011 93.807C166.952 90.808 161.332 88.888 154.238 86.468C152.151 85.758 149.933 84.995 147.504 84.153L146.969 83.96L146.925 84.53C145.522 101.708 146.864 115.676 151.029 127.216C144.225 138.449 143.479 147.243 142.453 159.397C142.295 161.186 142.146 163.036 141.962 164.983L141.936 165.211L141.708 165.106C139.481 164.106 137.403 163.308 135.386 162.528C133.781 161.914 132.256 161.327 130.747 160.669C129.09 156.662 127.389 152.54 125.617 147.823C125.854 149.34 126.117 150.848 126.415 152.339C126.415 152.348 126.415 152.348 126.415 152.357C127.774 159.372 129.712 166.176 132.176 172.726C132.316 173.112 132.465 173.498 132.614 173.883C133.824 174.418 135.122 174.953 136.56 175.488C137.332 179.574 138.121 183.748 139.024 187.887C139.024 187.896 139.024 187.896 139.024 187.896C139.515 188.825 140.024 189.729 140.532 190.641C140.541 190.65 140.541 190.65 140.541 190.65C145.425 199.287 151.274 207.302 157.964 214.536C157.964 214.536 157.964 214.545 157.973 214.554C159.411 216.106 160.884 217.623 162.401 219.114C167.066 222.402 172.108 225.068 177.43 227.023L177.807 226.234C151.38 210.693 139.989 191.402 141.962 165.544ZM175.748 107.645C181.947 100.051 190.199 92.861 200.274 86.25C199.345 95.439 199.09 104.217 198.818 113.494C198.765 115.335 198.704 117.203 198.651 119.08L198.642 119.343L198.879 119.475C207.411 124.114 215.188 128.954 225.553 136.083C217.118 139.836 205.403 144.773 196.09 147.728L195.792 147.816L195.783 148.132C195.66 151.218 195.59 154.296 195.52 157.269C195.336 165.056 195.169 172.43 194.126 179.278C188.663 173.78 179.202 163.749 172.871 154.287L172.74 154.085L172.503 154.094C166.418 154.19 161.332 154.673 155.448 155.234C154.063 155.366 152.633 155.506 151.151 155.637C153.203 146.237 155.369 137.67 160.498 128.595L160.594 128.428L160.533 128.244C157.35 118.204 155.64 109.847 154.684 99.571C162.506 101.939 168.617 104.692 175.22 107.77L175.527 107.91L175.748 107.645Z" fill="black"/>
<path d="M145.926 84.057L146.435 84.171L146.453 83.654C147.067 70.615 150.636 58.181 156.782 47.694C166.524 37.303 177.967 28.894 190.795 22.703L190.707 22.528H190.733L190.707 21.651C187.086 21.774 183.341 21.905 180.097 21.826H180.088C179.29 22.361 178.501 22.905 177.721 23.466C177.721 23.475 177.712 23.475 177.703 23.484C175.941 24.738 174.196 26.044 172.503 27.386C172.494 27.395 172.494 27.395 172.494 27.395C171.933 27.842 171.38 28.289 170.828 28.737C172.17 28.386 173.546 28.027 174.984 27.667C171.152 29.71 167.452 32.095 163.962 34.796L163.953 34.805C161.2 37.418 158.569 40.136 156.061 42.977L156.035 43.003C154.457 44.792 152.931 46.624 151.458 48.501L151.449 48.51C150.932 49.15 150.441 49.79 149.95 50.448L149.941 50.457C147.924 57.139 145.907 63.812 143.864 70.493C141.935 70.274 140.067 69.678 138.375 68.748C138.243 69.011 138.112 69.265 137.972 69.528C136.227 72.965 134.622 76.481 133.184 80.085C131.369 84.618 129.799 89.275 128.51 94.053C130.194 89.809 131.868 85.46 133.385 81.049C137.289 82.04 141.331 83.066 145.926 84.057Z" fill="black"/>
<path d="M370.516 85.75L370.419 85.531L370.305 85.513L370.173 85.241C367.902 86.381 365.385 86.925 362.851 86.811C361.72 78.91 360.624 71.01 359.519 63.066L359.466 62.908C354.065 53.832 346.936 45.871 338.72 39.689C340.912 40.618 342.946 41.513 344.928 42.399L346.375 43.03C345.147 41.636 343.902 40.285 342.613 38.953L342.604 38.944C340.447 36.989 338.106 35.147 335.817 33.35L335.721 33.271L335.598 33.253C332.134 32.858 328.057 32.078 324.111 31.324L323.944 32.183C323.953 32.183 323.962 32.192 323.97 32.192L323.865 32.35C335.58 40.443 345.594 50.519 353.608 62.295C358.062 73.607 359.667 86.435 358.255 99.412L358.202 99.929L358.719 99.894C363.428 99.622 367.575 99.236 371.574 98.859C372.688 105.12 374.099 111.302 375.476 117.282L376.151 120.255L376.335 117.212C376.987 106.54 374.979 95.658 370.516 85.75Z" fill="black"/>
</svg>
