<svg width="52" height="86" viewBox="0 0 52 86" fill="none" xmlns="http://www.w3.org/2000/svg">
<path d="M49.7896 3.99902C43.8213 0.0458984 26.2505 0 25.5 0C24.7549 0 7.18364 0.0458984 1.21635 3.99902C-0.0126532 4.8125 -0.365681 6.43848 0.41264 7.7002C0.717327 8.19336 1.00102 8.55762 1.0103 8.56836L17.5953 28.6133C17.7539 30.749 18.689 43.0293 19.42 46.249C18.7998 46.374 17.9737 46.6816 17.9737 47.4326C17.9737 47.4409 17.9784 47.4484 17.9787 47.4567C17.9791 47.4656 17.9752 47.4734 17.9761 47.4824C17.983 47.5479 18.6246 54.0693 17.5035 57.5127C17.4454 57.6914 17.4922 57.8877 17.6255 58.0205C18.5924 58.9879 19.8827 59.5409 21.1231 59.8687C17.316 60.4095 10.5224 61.7789 10.5633 64.6606C10.5633 64.6628 10.5621 64.6647 10.5621 64.667L10.5616 72.0791C10.5614 72.0894 10.5628 72.1405 10.5649 72.1946C10.2033 72.6255 9.2274 73.9188 9.25242 75.2802C9.2523 75.2844 9.25004 75.2878 9.25004 75.292V80.1982C9.25004 80.2861 9.27299 80.3721 9.31694 80.4482C9.4478 80.6748 12.667 86 25.1455 86H25.8599C38.3379 86 41.5577 80.6748 41.6885 80.4482C41.7325 80.3721 41.7554 80.2861 41.7554 80.1982V75.292C41.7554 75.2875 41.753 75.2838 41.7528 75.2794C41.7772 73.9183 40.8019 72.6257 40.4402 72.1948C40.4421 72.1439 40.4435 72.0935 40.4434 72.084L40.4429 64.667C40.4429 64.6647 40.4416 64.6629 40.4416 64.6606C40.483 61.7846 33.7159 60.4149 29.9045 59.8719C31.1387 59.5433 32.4197 58.9808 33.3799 58.0205C33.5132 57.8877 33.5601 57.6914 33.502 57.5127C32.3819 54.0713 33.0225 47.5479 33.0293 47.4824C33.0303 47.4734 33.0263 47.4656 33.0268 47.4567C33.0271 47.4484 33.0318 47.4409 33.0318 47.4326C33.0318 46.6816 32.2051 46.374 31.585 46.249C32.316 43.0293 33.2515 30.749 33.4102 28.6133L50.0044 8.55762C50.0044 8.55762 50.2881 8.19336 50.5918 7.7002C51.3706 6.43848 51.0181 4.81348 49.7896 3.99902ZM23.8121 60.2927C24.1457 60.3122 24.4489 60.3232 24.6685 60.3232C24.9439 60.3232 25.1153 60.3145 25.1455 60.3125L25.8316 60.3115C25.8954 60.3146 26.4231 60.3408 27.1929 60.2948V63.9102C26.8335 63.9688 26.3052 64.0547 25.8599 64.125L25.2198 64.1309C24.7281 64.0566 24.1788 63.9687 23.8121 63.9092V60.2927ZM39.443 66.3163L39.4434 72.0889C39.4434 72.1104 39.4419 74.292 37.4278 76.3271C35.1241 78.6543 31.232 79.834 25.8599 79.834H25.1455C19.7911 79.834 15.9063 78.6611 13.5997 76.3496C11.5796 74.3252 11.5616 72.1094 11.5616 72.084L11.5619 66.316C14.5098 68.6146 23.1167 69.356 25.1455 69.5L25.8955 69.499C27.8948 69.3558 36.4959 68.6146 39.443 66.3163ZM25.8599 85H25.1455C14.2442 85 10.7554 80.7559 10.25 80.0479V77.5488C11.9897 79.9075 15.9853 82.8232 25.1455 82.8232H25.8599C35.0201 82.8232 39.0157 79.9075 40.7554 77.5488V80.0498C40.2549 80.7637 36.8184 85 25.8599 85ZM40.6001 75.9121C39.4966 78.1201 36.1138 81.8232 25.8599 81.8232H25.1455C14.8916 81.8232 11.5088 78.1201 10.4053 75.9121C10.0233 75.1481 10.409 74.2301 10.8111 73.5733C11.082 74.5259 11.6482 75.8 12.8672 77.0312C15.3653 79.5547 19.4966 80.834 25.1455 80.834H25.8599C31.5088 80.834 35.6397 79.5547 38.1382 77.0312C39.3572 75.7998 39.9233 74.5256 40.194 73.5735C40.5962 74.2303 40.9819 75.1481 40.6001 75.9121ZM39.4429 64.6543C39.3936 66.6396 31.4493 68.0986 25.8599 68.5L25.1812 68.501C19.5562 68.0986 11.6119 66.6396 11.5621 64.6543C11.5145 62.7487 17.9336 61.2124 22.8121 60.6626V64.334C22.8121 64.5781 22.9888 64.7871 23.23 64.8271C23.23 64.8271 24.2344 64.9941 25.1455 65.125L25.9341 65.1191C26.7705 64.9941 27.7749 64.8271 27.7749 64.8271C28.0162 64.7871 28.1929 64.5781 28.1929 64.334V60.6625C33.0714 61.2123 39.4909 62.7477 39.4429 64.6543ZM25.8599 59.3125L25.1172 59.3135C25.0728 59.3145 20.8418 59.5312 18.5479 57.5156C19.3863 54.5903 19.1783 50.1102 19.0428 48.2437C20.289 48.5183 22.5143 48.5745 24.399 48.584H26.605C26.6714 48.584 26.7373 48.584 26.8042 48.584C28.6472 48.584 30.7607 48.5146 31.9626 48.2448C31.8272 50.1118 31.6193 54.5908 32.4576 57.5156C30.1675 59.5273 25.9322 59.3193 25.8599 59.3125ZM49.7408 7.17578C49.4737 7.60938 49.2242 7.93164 49.2247 7.93164L32.5381 28.0986C32.4722 28.1777 32.4322 28.2764 32.4248 28.3799C31.9327 35.042 31.0118 45.3535 30.4913 46.4531C30.42 46.6025 30.4283 46.7783 30.5122 46.9209C30.5962 47.0635 30.7461 47.1553 30.9112 47.166C31.1778 47.1836 31.4698 47.2393 31.69 47.2988C30.7325 47.4795 28.6104 47.584 26.7364 47.584C26.6929 47.584 26.6421 47.5811 26.6065 47.584H24.3975C22.5162 47.5732 20.3184 47.4844 19.3311 47.3018C19.5513 47.2363 19.8345 47.1826 20.0938 47.166C20.2588 47.1553 20.4087 47.0635 20.4927 46.9209C20.5767 46.7773 20.585 46.6025 20.5137 46.4531C19.9927 45.3535 19.0723 35.042 18.5806 28.3799C18.5733 28.2764 18.5332 28.1777 18.4673 28.0986L1.79008 7.94336C1.78373 7.93457 1.53325 7.61133 1.26371 7.1748C0.77055 6.375 0.99223 5.34668 1.7686 4.83301C7.48588 1.04492 25.3204 1 25.5054 1C25.6851 1 43.5191 1.04492 49.2369 4.83301C50 5.33789 50.2261 6.38867 49.7408 7.17578Z" fill="black"/>
</svg>
