<svg xmlns="http://www.w3.org/2000/svg" version="1.1" xmlnsXlink="http://www.w3.org/1999/xlink"
    xmlnsSvgjs="http://svgjs.com/svgjs" width="512" height="512" x="0" y="0" viewBox="0 0 152 152"
    style="enable-background:new 0 0 512 512" xmlSpace="preserve" class="">
    <g>
        <g data-name="Layer 2">
            <path
                d="M76 0a76 76 0 1 0 76 76A76 76 0 0 0 76 0zM53.9 116H37.32V62.59H53.9zm-8.3-60.7a9.65 9.65 0 1 1 9.61-9.7 9.68 9.68 0 0 1-9.61 9.7zM116 116H99.43V90c0-6.2-.12-14.15-8.62-14.15s-10 6.74-10 13.7V116H64.3V62.59h15.91v7.28h.23c2.21-4.2 7.62-8.63 15.69-8.63 16.78 0 19.87 11.06 19.87 25.42z"
                data-name="10.Linkedin" fill="#23064b" data-original="#23064b" class=""></path>
        </g>
    </g>
</svg>