<svg width="50" height="90" viewBox="0 0 50 90" fill="none" xmlns="http://www.w3.org/2000/svg">
<path d="M24.8157 24.5981C27.5354 24.5981 29.7473 22.3862 29.7473 19.667C29.7473 16.9478 27.5354 14.7358 24.8157 14.7358C22.0969 14.7358 19.885 16.9478 19.885 19.667C19.885 22.3862 22.0969 24.5981 24.8157 24.5981ZM24.8157 16.2358C26.7083 16.2358 28.2473 17.7749 28.2473 19.667C28.2473 21.5591 26.7083 23.0981 24.8157 23.0981C22.9241 23.0981 21.385 21.5591 21.385 19.667C21.385 17.7749 22.9241 16.2358 24.8157 16.2358Z" fill="black"/>
<path d="M42.3519 71.1414V62.8335C42.3519 62.828 42.3487 62.8232 42.3486 62.8177C42.3471 62.7516 42.3273 62.6887 42.3086 62.625C42.2992 62.5933 42.299 62.5594 42.2855 62.5292C42.2617 62.4756 42.2196 62.4311 42.1828 62.3834C42.1584 62.352 42.144 62.3141 42.1146 62.2866L35.6234 56.2036C35.6222 56.2025 35.6206 56.2023 35.6194 56.2012C33.8621 54.3055 30.2291 53.5735 29.079 53.3856C27.9787 51.423 27.0628 49.6918 26.9075 49.1333C26.6946 48.3657 27.8909 44.8599 29.1214 42.0508C29.2435 41.7744 29.1868 41.4517 28.9778 41.2329L28.4614 40.6904C35.1144 39.6964 37.3785 35.6688 38.4202 33.813C38.5687 33.5493 38.6859 33.335 38.7894 33.1938C38.9449 32.9818 39.0436 32.7198 39.1055 32.4295C52.6559 28.8839 49.489 1.81372 49.346 0.658203C49.3001 0.282227 48.9808 0 48.6019 0H39.5189C39.1146 0 38.7825 0.320801 38.7689 0.725098L38.598 5.88245C35.6855 4.16272 28.7507 3.84631 25.3284 3.79883H24.4271C21.0132 3.84631 14.0802 4.16272 11.1677 5.88226L10.9974 0.725098C10.9837 0.320801 10.6517 0 10.2474 0H1.16388C0.784976 0 0.46564 0.282227 0.419742 0.658203C0.277225 1.81372 -2.88965 28.8831 10.6602 32.4293C10.7219 32.7197 10.8204 32.9818 10.9759 33.1938C11.0794 33.3354 11.1976 33.5503 11.346 33.8145C12.3876 35.6697 14.6531 39.6959 21.304 40.6902L20.7874 41.2324C20.5784 41.4517 20.5218 41.7744 20.6439 42.0513C21.8743 44.8599 23.0706 48.3657 22.8577 49.1333C22.7032 49.6908 21.7903 51.4172 20.6876 53.3853C19.4594 53.5861 15.3799 54.4042 13.804 56.6077L7.65509 62.2827C7.50128 62.4243 7.41388 62.6245 7.41388 62.8335V71.2894C6.44062 72.222 2.99738 75.7573 2.99738 79.0835C2.99738 83.478 9.66779 89.6665 24.4974 89.6665H25.2689C40.0989 89.6665 46.7689 83.478 46.7689 79.0835C46.7689 75.7513 43.3069 72.0878 42.3519 71.1414ZM8.91388 64.6781C11.3086 66.7122 16.8672 70.5835 24.4974 70.5835H25.2689C32.8965 70.5835 38.4542 66.6463 40.8519 64.574V74.5595C39.1887 76.9907 34.5264 82.2505 25.2689 82.2505H24.4974C15.1621 82.2505 10.5624 77.033 8.91388 74.5834V64.6781ZM14.2689 60.8989C16.6595 63.2964 22.4095 64.3335 24.8157 64.3335C24.8395 64.3335 24.8595 64.3221 24.8826 64.32C24.9058 64.3221 24.9258 64.3335 24.9495 64.3335C27.3558 64.3335 33.1068 63.2964 35.4974 60.8989C36.0519 60.343 36.3952 59.7413 36.5277 59.106L40.5176 62.8455C38.835 64.4171 33.174 69.0835 25.2689 69.0835H24.4974C16.5007 69.0835 10.802 64.3981 9.19 62.9068L13.2501 59.1597C13.3906 59.7752 13.73 60.3586 14.2689 60.8989ZM47.9261 1.5C48.3199 5.59869 49.8873 27.4863 39.1291 30.8547C38.9448 29.3983 38.3416 27.7983 38.0229 27.0281L38.348 14.3452L39.8626 11.1553C39.8635 11.1534 39.8632 11.1515 39.864 11.1497C39.8659 11.1456 39.8654 11.1406 39.8672 11.1365C39.9069 11.0471 39.9305 10.9545 39.934 10.8621C39.934 10.8608 39.9348 10.8597 39.9349 10.8584L40.2444 1.5H47.9261ZM24.4378 5.29883H25.3177C32.1829 5.39502 38.4349 6.55127 38.4349 7.72461C38.4349 8.90771 32.1829 10.2461 25.3128 10.5347L24.4691 10.5352C17.5931 10.248 11.3304 8.90869 11.3304 7.72461C11.3304 6.55127 17.5833 5.39502 24.4378 5.29883ZM24.4378 12.0347H25.3284C25.3392 12.0347 25.3489 12.0347 25.3597 12.0342C28.7206 11.8941 35.4958 11.3979 38.4727 9.66718L38.44 10.6531L36.9241 13.8452C36.8792 13.9399 36.8548 14.043 36.8519 14.1479L36.5247 26.917C35.9964 27.5811 33.3431 30.3335 25.7327 30.3335H24.0335C16.4974 30.3335 13.7786 27.5659 13.2415 26.9116L12.9144 14.1479C12.9114 14.043 12.887 13.9399 12.8421 13.8452L11.3253 10.653L11.2927 9.66705C14.2707 11.398 21.052 11.8942 24.4378 12.0347ZM1.83966 1.5H9.52179L9.83087 10.8584C9.83093 10.8597 9.83167 10.8608 9.83173 10.8622C9.83319 10.9011 9.8512 10.9388 9.85889 10.9777C9.87097 11.0383 9.87769 11.1005 9.90314 11.1552C9.90314 11.1551 9.90314 11.1552 9.90314 11.1552L11.4183 14.3452L11.7433 27.0283C11.4252 27.7985 10.8218 29.3984 10.6371 30.8547C-0.114865 27.4874 1.44678 5.59912 1.83966 1.5ZM12.6536 33.0796C12.4681 32.749 12.3157 32.4839 12.1849 32.3066C11.8694 31.8753 12.2102 30.1886 12.7676 28.5717C14.177 29.8372 17.4408 31.8335 24.0335 31.8335H25.7327C32.3259 31.8335 35.5898 29.8366 36.999 28.571C37.5569 30.1874 37.8975 31.8737 37.5804 32.3066C37.4495 32.4839 37.2982 32.749 37.1126 33.0786C35.9573 35.1362 33.553 39.417 25.2689 39.417H24.4974C16.2142 39.417 13.8089 35.1367 12.6536 33.0796ZM24.303 49.5347C24.7171 48.0444 23.0101 43.7681 22.2161 41.9077L23.2025 40.8726C23.6231 40.8958 24.0464 40.917 24.4974 40.917H25.2689C25.7199 40.917 26.1434 40.8958 26.5642 40.8726L27.5491 41.9077C26.7552 43.7681 25.0491 48.0444 25.4622 49.5347C25.8939 51.0864 30.1419 58.2397 30.5921 58.9888C30.5931 58.9917 30.7366 59.3433 30.5941 59.6567C30.4222 60.0327 29.8958 60.2476 29.4857 60.3608C27.2376 60.979 25.347 60.8364 25.2689 60.8335L24.4349 60.8364C24.4173 60.8374 22.5443 60.9858 20.2796 60.3608C19.8743 60.2485 19.3538 60.0376 19.1771 59.6665C19.0355 59.3706 19.1546 59.0425 19.1468 59.0425C19.6517 58.1948 23.8743 51.0815 24.303 49.5347ZM19.7011 55.1241C19.0505 56.2577 18.391 57.3846 17.8206 58.3442C17.7737 58.4429 17.3753 59.3325 17.8079 60.2798C18.139 61.0044 18.8362 61.5181 19.8812 61.8062C21.5784 62.2749 23.0745 62.353 23.8763 62.353C24.264 62.353 24.4896 62.3354 24.4974 62.3335L25.2064 62.3306C25.2923 62.3384 27.3675 62.5015 29.8841 61.8062C30.929 61.5181 31.6273 61.0044 31.9583 60.2798C32.3909 59.3325 31.9925 58.4429 31.9134 58.2827C31.3563 57.3477 30.7084 56.2419 30.0665 55.1247C32.1573 55.6395 35.0868 56.7447 35.0921 58.5024C35.0931 58.9575 34.8782 59.395 34.4349 59.8403C32.4749 61.8052 27.2181 62.8335 24.9495 62.8335C24.9258 62.8335 24.9058 62.8448 24.8826 62.847C24.8595 62.8448 24.8395 62.8335 24.8157 62.8335C22.5472 62.8335 17.2913 61.8052 15.3314 59.8403C14.888 59.395 14.6732 58.9575 14.6741 58.5024C14.6794 56.7441 17.6104 55.6387 19.7011 55.1241ZM25.2689 88.1665H24.4974C9.53351 88.1665 4.49738 81.9292 4.49738 79.0835C4.49738 77.368 5.74274 75.4655 6.8722 74.0905C6.95355 74.2468 7.15186 74.5999 7.47174 75.0876C7.5105 75.1811 7.5672 75.2646 7.63812 75.3346C9.46228 78.007 14.535 83.7505 24.4974 83.7505H25.2689C35.2321 83.7505 40.3047 78.006 42.1285 75.334C42.1989 75.2644 42.2552 75.1813 42.2938 75.0886C42.6705 74.5145 42.8723 74.1351 42.9216 74.0365C44.045 75.4515 45.2689 77.3803 45.2689 79.0835C45.2689 81.9292 40.2327 88.1665 25.2689 88.1665Z" fill="black"/>
</svg>
