<svg width="52" height="89" viewBox="0 0 52 89" fill="none" xmlns="http://www.w3.org/2000/svg">
<path d="M35.4367 77.5601L35.2004 77.4956C34.1652 77.2134 32.7658 75.439 32.4269 73.979C32.3488 73.6401 32.2639 73.0308 32.5383 72.7876C34.2463 71.4731 34.9953 70.4233 34.8967 69.4849C34.8649 69.184 34.7434 68.944 34.5934 68.7596C37.0471 64.9527 39.1283 59.814 40.8439 54.4556C41.2279 54.5915 41.6562 54.3898 41.7961 54.0015C51.7824 26.1543 51.5265 20.8257 51.256 15.1841C51.215 14.3267 51.174 13.4683 51.174 12.5186C51.174 5.25684 45.4416 0 41.5773 0C37.8058 0 35.4709 2.66455 35.4709 5.13281C35.4709 7.54102 36.048 9.10498 37.464 10.5308C37.8586 10.9287 38.4318 11.3369 39.0939 11.8101C40.7844 13.0161 43.0998 14.6685 43.0998 16.8198C43.0998 19.1221 41.3937 20.1973 40.7082 20.5361L41.0617 19.5103C41.6662 19.0747 42.3381 18.1187 41.8 16.6582C40.6564 13.3179 29.4709 13.2471 26.0754 13.3105H25.2805C21.8791 13.252 10.6862 13.3164 9.54901 16.6416C9.00604 18.1162 9.67645 19.0742 10.2809 19.5103L10.634 20.5342C9.95037 20.1924 8.24334 19.1089 8.24334 16.8198C8.24334 14.6685 10.5583 13.0161 12.2492 11.8101C12.9113 11.3369 13.4846 10.9287 13.8791 10.5308C15.2951 9.10498 15.8722 7.54102 15.8722 5.13281C15.8722 2.66455 13.5373 0 9.7658 0C5.90155 0 0.169124 5.25684 0.169124 12.5186C0.169124 13.4683 0.12762 14.3267 0.0866041 15.1841C-0.183415 20.8257 -0.438787 26.1543 9.54657 54.0015C9.65643 54.3081 9.945 54.4985 10.2526 54.4985C10.3346 54.4985 10.4178 54.4844 10.4994 54.4557C12.215 59.8141 14.2963 64.9527 16.7498 68.7596C16.5997 68.944 16.4782 69.184 16.4465 69.4849C16.3478 70.4233 17.0969 71.4731 18.7668 72.7563C19.0793 73.0308 18.9943 73.6401 18.9162 73.979C18.5773 75.439 17.1779 77.2134 16.1428 77.4956L15.9055 77.5601C13.6769 78.1626 9.52703 79.2837 9.32098 82.9858C9.11932 86.6206 20.3703 87.772 25.2678 88.1001L26.1262 88.0981C30.9728 87.772 42.2238 86.6206 42.0217 82.9858C41.8156 79.2837 37.6662 78.1626 35.4367 77.5601ZM44.5998 16.8198C44.5998 13.896 41.9211 11.9849 39.965 10.5889C39.3586 10.1558 38.8342 9.78125 38.5285 9.47412C37.3928 8.33057 36.9709 7.15381 36.9709 5.13281C36.9709 3.38574 38.7316 1.5 41.5773 1.5C44.3576 1.5 49.674 5.79102 49.674 12.5186C49.674 13.4941 49.716 14.3755 49.758 15.2559C49.9758 19.7905 50.1935 24.4709 43.8691 43.4492C45.8434 35.1169 46.8625 28.2516 46.9455 27.6816C46.9963 27.3359 46.8 27.001 46.4748 26.8745L43.4924 25.7183C41.2414 24.8452 41.7463 22.7236 41.8117 22.4805C41.8882 22.2097 41.7971 21.9387 41.611 21.7532C42.6704 21.1675 44.5998 19.7059 44.5998 16.8198ZM1.58514 15.2559C1.62713 14.3755 1.66912 13.4941 1.66912 12.5186C1.66912 5.79102 6.98553 1.5 9.7658 1.5C12.6115 1.5 14.3722 3.38574 14.3722 5.13281C14.3722 7.15381 13.9504 8.33057 12.8146 9.47412C12.509 9.78125 11.9846 10.1558 11.3781 10.5889C9.42205 11.9849 6.74334 13.896 6.74334 16.8198C6.74334 19.7054 8.6726 21.167 9.73205 21.7529C9.54498 21.9392 9.45379 22.2119 9.53143 22.4839C9.55877 22.5791 10.1691 24.8193 7.85125 25.7183L4.86883 26.8745C4.54266 27.001 4.34735 27.3359 4.39764 27.6816C4.48059 28.2516 5.50024 35.1196 7.4754 43.4543C1.14965 24.4717 1.36779 19.791 1.58514 15.2559ZM26.0754 86.6001L25.3185 86.6021C17.5187 86.0767 10.7433 84.4263 10.819 83.0698C10.9533 80.6509 13.717 79.7046 16.2971 79.0083L16.5373 78.9429C18.2785 78.4683 19.9582 76.1245 20.3771 74.3179C20.6428 73.1704 20.423 72.2153 19.7189 71.5981C18.2287 70.4517 17.9855 69.853 17.9455 69.689C18.2158 69.4872 18.3157 69.1239 18.184 68.8046C18.2671 68.5873 18.2609 68.3391 18.1232 68.1294C10.7399 56.8618 6.62127 32.1841 5.97235 28.0552L8.39324 27.1167C11.2275 26.0177 11.3304 23.3901 10.9843 22.1147H11.714C11.9562 22.1147 12.1838 21.9976 12.3244 21.8003C12.465 21.6025 12.5021 21.3491 12.423 21.1201L11.6105 18.7666C11.549 18.5854 11.4025 18.4268 11.2331 18.3384C11.0539 18.2446 10.6686 17.9424 10.9621 17.1436C11.5041 15.5591 18.7931 14.6997 25.2678 14.8105H26.0881C32.5256 14.6938 39.8381 15.5576 40.3859 17.1602C40.675 17.9424 40.2892 18.2446 40.1232 18.3315C39.9396 18.4175 39.798 18.5747 39.7316 18.7666L38.9201 21.1201C38.841 21.3496 38.8781 21.6025 39.0187 21.8003C39.1594 21.9976 39.3869 22.1147 39.6291 22.1147H40.3588C40.0117 23.3901 40.1166 26.0177 42.9494 27.1167L45.3703 28.0552C44.7219 32.1841 40.6037 56.8618 33.2199 68.1294C33.0774 68.3465 33.0751 68.605 33.1686 68.8272C33.0529 69.1317 33.1432 69.4803 33.3986 69.6851C33.3615 69.8433 33.1213 70.4458 31.5861 71.6294C30.9201 72.2153 30.7004 73.1704 30.966 74.3179C31.3849 76.1245 33.0646 78.4683 34.8058 78.9429L35.0461 79.0083C37.6262 79.7046 40.3898 80.6509 40.5236 83.0698C40.5988 84.4253 33.8244 86.0757 26.0754 86.6001Z" fill="black"/>
</svg>
