<svg width="137" height="134" viewBox="0 0 137 134" fill="none" xmlns="http://www.w3.org/2000/svg">
<path d="M68.5647 133.732C105.218 133.732 134.931 104.019 134.931 67.3662C134.931 30.7132 105.218 1 68.5647 1C31.9117 1 2.19849 30.7132 2.19849 67.3662C2.19849 104.019 31.9117 133.732 68.5647 133.732Z" fill="#FFE680" fill-opacity="0.08" stroke="#141414" stroke-width="0.269658" stroke-linecap="round" stroke-linejoin="round"/>
<path d="M84.7502 95.415H52.3905L36.2107 67.3906L52.3905 39.3663H84.7502L100.93 67.3906L84.7502 95.415Z" stroke="#141414" stroke-width="0.674146" stroke-linecap="round" stroke-linejoin="round"/>
<path d="M79.1765 100.431H57.936V126.674H79.1765V100.431Z" fill="#D0CAB3" stroke="#918F87" stroke-width="0.269658" stroke-linecap="round" stroke-linejoin="round"/>
<path d="M136.268 67.4211H1" stroke="#141414" stroke-width="0.674146" stroke-linecap="round"/>
<path d="M102.601 8.73682L34.6292 125.934" stroke="#141414" stroke-width="0.674146" stroke-linecap="round"/>
<path d="M102.568 125.904L34.4739 8.76501" stroke="#141414" stroke-width="0.674146" stroke-linecap="round"/>
<path d="M37.4844 67.1806H68.2216L52.8994 40.6418L37.4844 67.1806Z" fill="white" stroke="#F2F2F2" stroke-width="0.134829"/>
<path d="M46.1387 62.4113H59.5674L52.8733 50.8169L46.1387 62.4113Z" fill="#F9F9F9" stroke="#F2F2F2" stroke-width="0.134829"/>
<path d="M68.8494 67.1806H99.5865L84.2644 40.6418L68.8494 67.1806Z" fill="white" stroke="#F2F2F2" stroke-width="0.134829"/>
<path d="M77.5037 62.4113H90.9324L84.2383 50.8169L77.5037 62.4113Z" fill="#F9F9F9" stroke="#F2F2F2" stroke-width="0.134829"/>
<path d="M53.178 40.4491H83.9152L68.593 66.9879L53.178 40.4491Z" fill="white" stroke="#F2F2F2" stroke-width="0.134829"/>
<path d="M61.8323 45.2185H75.261L68.5669 56.8129L61.8323 45.2185Z" fill="#F9F9F9" stroke="#F2F2F2" stroke-width="0.134829"/>
<path d="M37.4844 67.5742H68.2216L52.8994 94.1132L37.4844 67.5742Z" fill="white" stroke="#F2F2F2" stroke-width="0.134829"/>
<path d="M46.1387 72.3439H59.5674L52.8733 83.9383L46.1387 72.3439Z" fill="#F9F9F9" stroke="#F2F2F2" stroke-width="0.134829"/>
<path d="M68.8494 67.5742H99.5865L84.2644 94.1132L68.8494 67.5742Z" fill="white" stroke="#F2F2F2" stroke-width="0.134829"/>
<path d="M77.5037 72.3439H90.9324L84.2383 83.9383L77.5037 72.3439Z" fill="#F9F9F9" stroke="#F2F2F2" stroke-width="0.134829"/>
<path d="M53.178 94.3056H83.9152L68.593 67.767L53.178 94.3056Z" fill="white" stroke="#F2F2F2" stroke-width="0.134829"/>
<path d="M61.8323 89.5367H75.261L68.5669 77.9423L61.8323 89.5367Z" fill="#F9F9F9" stroke="#F2F2F2" stroke-width="0.134829"/>
</svg>
