<svg width="70" height="80" viewBox="0 0 70 80" fill="none" xmlns="http://www.w3.org/2000/svg">
<path d="M60.6012 0.407936L52.1003 3.64347C47.5555 1.90855 40.3323 1.52738 36.3415 1.45969C36.3356 1.45969 36.3303 1.45872 36.3244 1.45872C36.2223 1.45676 35.7175 1.44505 34.9025 1.44602C34.1022 1.447 33.5832 1.45676 33.4806 1.45872C33.4748 1.45872 33.4694 1.45969 33.4636 1.45969C29.4728 1.52738 22.2496 1.90855 17.7048 3.64347L9.22332 0.415749C9.16961 0.394265 3.9118 -1.78152 0.730644 4.05247C-2.38654 9.76634 5.36687 17.1511 7.18865 18.2224C7.31023 18.2937 7.5993 18.447 8.0158 18.6667C19.1032 24.5163 20.6359 27.0281 20.5627 28.0046L20.5632 28.0087C20.5191 31.3204 20.514 34.3084 20.6218 34.9909C20.8918 36.7038 21.6061 41.2302 27.6359 44.6462C28.5099 46.7146 27.6393 48.2204 27.2878 48.7058C26.6603 48.7146 25.0846 48.8484 24.0671 49.8952C23.446 50.5349 23.1467 51.3845 23.1755 52.4255C21.4289 53.4665 19.4846 55.699 19.3981 55.7986C19.3899 55.808 19.392 55.8224 19.3846 55.8324C19.3615 55.863 19.3346 55.8899 19.3185 55.9265C19.2966 55.9767 19.29 56.0288 19.2852 56.0807C19.2844 56.0886 19.2769 56.0943 19.2765 56.1023L18.7023 68.3249L17.089 69.9382C17.0007 70.0271 14.9245 72.1277 15.112 74.0886C15.2658 75.7068 15.1135 76.4236 15.1125 76.4275C15.0573 76.6628 15.1779 76.904 15.3996 76.9997C15.6696 77.1179 22.1447 79.8757 34.2761 79.8757H35.529C47.6603 79.8757 54.1349 77.1179 54.405 76.9997C54.6237 76.905 54.7443 76.6638 54.6926 76.4304C54.6911 76.4236 54.5392 75.7068 54.693 74.0896C54.8805 72.1277 52.8044 70.0271 52.716 69.9382L51.1027 68.3249L50.5285 56.1023C50.5281 56.0943 50.5206 56.0886 50.5198 56.0807C50.515 56.0288 50.5084 55.9767 50.4865 55.9265C50.4704 55.8894 50.4432 55.862 50.4199 55.8311C50.4128 55.8215 50.4147 55.8077 50.4069 55.7986C50.3205 55.699 48.3762 53.4665 46.6296 52.4255C46.6584 51.3845 46.3591 50.5349 45.738 49.8952C44.7214 48.8493 43.1467 48.7146 42.5187 48.7058C42.1711 48.2204 41.3 46.7048 42.1691 44.6462C48.1989 41.2302 48.9133 36.7038 49.1891 34.9538C49.2946 34.286 49.288 31.3017 49.2426 27.9969C49.1773 27.0153 50.7285 24.5022 61.7892 18.6667C62.2057 18.447 62.4948 18.2937 62.6159 18.2224C64.4382 17.1511 72.1916 9.76634 69.0744 4.05247C65.8932 -1.78054 60.634 0.394265 60.6012 0.407936ZM8.48211 17.782C8.0866 17.574 7.8117 17.4284 7.69598 17.3611C6.22625 16.4968 -1.15852 9.60423 1.60857 4.53098C4.34588 -0.486595 8.64861 1.25852 8.84832 1.34348L16.3973 4.21665C16.3638 4.23386 16.3256 4.24894 16.2927 4.26634C16.1349 4.35032 16.0334 4.51048 16.0265 4.68919C16.0192 4.86692 16.1076 5.03587 16.2585 5.13059C16.749 5.44187 17.2004 5.97172 17.6134 6.64445C16.4101 5.54929 14.8286 4.33762 13.2678 3.81712C10.9684 3.05051 7.99041 3.36106 6.18865 4.5554C5.13592 5.25266 4.53289 6.21458 4.44402 7.33665C4.17449 10.7536 6.89031 14.4411 8.78143 16.0857C10.5667 17.6388 19.0859 23.0796 20.629 24.0617C20.6175 24.6544 20.6063 25.2604 20.5958 25.8714C18.9026 23.8291 14.9462 21.1927 8.48211 17.782ZM20.6525 22.8905C18.2819 21.3753 11.0026 16.6927 9.43768 15.3318C7.69939 13.82 5.20037 10.4636 5.44109 7.41477C5.50555 6.59934 5.94256 5.9177 6.7409 5.38938C8.2824 4.36887 10.9509 4.09641 12.9513 4.76634C15.5499 5.63175 18.375 8.7866 18.844 9.32523C19.9086 12.2719 20.5579 15.8817 20.7761 17.612C20.7697 17.8507 20.7107 20.0893 20.6525 22.8905ZM33.5383 45.097C33.6024 45.1269 33.6722 45.1462 33.7477 45.1462C34.1208 45.1462 34.5091 45.1414 34.9025 45.1339C35.296 45.1414 35.6842 45.1462 36.0573 45.1462C36.1328 45.1462 36.2026 45.1269 36.2668 45.097C38.1716 45.0313 40.0297 44.9149 41.0391 44.8457C40.4955 46.6076 40.9635 47.997 41.3995 48.7955C40.0517 48.927 37.2901 49.1711 34.9026 49.2271C32.5156 49.1711 29.7535 48.9269 28.4055 48.7955C28.8415 47.997 29.3096 46.6076 28.766 44.8457C29.7754 44.9149 31.6334 45.0313 33.5383 45.097ZM33.8878 58.2348C33.9145 58.2392 33.9385 58.2507 33.9665 58.2507C34.2925 58.2507 34.5884 58.2453 34.9025 58.2431C35.2167 58.2453 35.5126 58.2507 35.8386 58.2507C35.8665 58.2507 35.8906 58.2392 35.9172 58.2348C44.2339 58.1133 48.1407 57.238 49.5607 56.8128L50.0933 68.1452C48.5489 68.4787 42.6055 69.6462 35.154 69.6462C35.0602 69.6462 34.9775 69.6789 34.9025 69.7237C34.8276 69.6789 34.7448 69.6462 34.6511 69.6462C27.1995 69.6462 21.2561 68.4787 19.7118 68.1452L20.2444 56.8128C21.6644 57.238 25.5711 58.1133 33.8878 58.2348ZM53.6559 76.2214C52.1598 76.7839 45.9011 78.8757 35.529 78.8757H34.2761C23.9235 78.8757 17.6481 76.7839 16.1486 76.2204C16.1872 75.8054 16.2111 75.0847 16.1071 73.9939C16.051 73.4062 16.3169 72.7397 16.663 72.1444C18.2914 72.6233 25.0303 74.4167 34.6511 74.4167C34.7448 74.4167 34.8276 74.384 34.9025 74.3392C34.9775 74.384 35.0602 74.4167 35.154 74.4167C44.777 74.4167 51.5167 72.6224 53.1433 72.144C53.4888 72.7386 53.7542 73.4051 53.6979 73.9949C53.5939 75.0847 53.6179 75.8064 53.6559 76.2214ZM52.5531 71.2734C50.5719 71.8328 44.1683 73.4167 35.154 73.4167C35.0602 73.4167 34.9775 73.4494 34.9025 73.4942C34.8276 73.4494 34.7448 73.4167 34.6511 73.4167C25.6492 73.4167 19.2382 71.833 17.2532 71.2735C17.4624 71.0052 17.6584 70.7835 17.7961 70.6452L19.3511 69.0902C20.6776 69.3827 26.8552 70.6462 34.6511 70.6462C34.7448 70.6462 34.8276 70.6135 34.9025 70.5687C34.9775 70.6135 35.0602 70.6462 35.154 70.6462C42.9498 70.6462 49.1274 69.3827 50.454 69.0902L52.009 70.6452C52.1469 70.7832 52.3434 71.0049 52.5531 71.2734ZM49.1355 55.8913C47.6454 56.3117 43.5108 57.182 34.9025 57.2431C26.2939 57.182 22.1593 56.3116 20.6694 55.8913C21.3709 55.1471 22.6697 53.8615 23.8012 53.2264C24.6766 53.334 29.055 53.8471 33.8248 53.9721C33.8705 53.9859 33.9162 54.0007 33.9665 54.0007C34.2786 54.0007 34.5908 53.9974 34.9025 53.9934C35.2143 53.9974 35.5264 54.0007 35.8386 54.0007C35.8888 54.0007 35.9345 53.9859 35.9803 53.9721C40.7501 53.8471 45.1287 53.334 46.0039 53.2263C47.1338 53.8603 48.4334 55.1468 49.1355 55.8913ZM45.6189 52.2649C44.2402 52.4286 39.6471 52.9316 34.9025 52.9933C30.158 52.9316 25.5648 52.4286 24.1861 52.2649C24.1941 51.5705 24.3856 51.0045 24.7814 50.5954C25.7138 49.6332 27.4299 49.7084 27.4889 49.7076C27.6567 49.7255 30.7704 50.0601 33.7552 50.1896C33.8199 50.2201 33.8902 50.24 33.9665 50.24C34.2684 50.24 34.5833 50.2347 34.9025 50.2273C35.2217 50.2347 35.5367 50.24 35.8386 50.24C35.9148 50.24 35.9852 50.2201 36.0499 50.1896C39.0347 50.0601 42.1482 49.7255 42.3162 49.7076C42.3781 49.7084 44.0915 49.633 45.0236 50.5954C45.4195 51.0045 45.611 51.5705 45.6189 52.2649ZM48.1955 34.8357C47.9454 36.4219 47.2786 40.6199 41.623 43.8023C41.0002 43.8482 37.7809 44.0788 34.9025 44.1339C32.0242 44.0788 28.8049 43.8482 28.1821 43.8023C22.5265 40.6199 21.8597 36.4217 21.6032 34.7976C21.4045 33.5359 21.6603 21.9841 21.7721 17.5642C21.7363 17.2735 21.1565 12.7387 19.7812 8.96391C19.7758 8.94303 19.7663 8.92429 19.758 8.90409C19.15 7.24912 18.3901 5.74381 17.4523 4.81809C22.2726 2.70481 31.4157 2.46165 34.9025 2.44993C38.3898 2.46165 47.5329 2.70579 52.3527 4.81809C51.4171 5.74198 50.6588 7.2432 50.0513 8.89622C50.0409 8.92051 50.0297 8.94328 50.0233 8.96848C48.6481 12.7492 48.0675 17.3001 48.029 17.6394C48.1447 21.9841 48.4011 33.5359 48.1955 34.8357ZM56.8537 4.76634C58.8522 4.09739 61.5226 4.3679 63.0641 5.38938C63.8625 5.9177 64.2995 6.59934 64.3639 7.41477C64.6047 10.4636 62.1056 13.82 60.3674 15.3318C58.8023 16.6929 51.5212 21.3765 49.1515 22.8912C49.0926 20.1106 49.0329 17.8975 49.0251 17.6872C49.2455 15.91 49.8957 12.2789 50.962 9.32407C51.4335 8.78245 54.2533 5.63297 56.8537 4.76634ZM62.1086 17.3611C61.9933 17.4284 61.7184 17.574 61.3229 17.782C54.859 21.1926 50.9026 23.829 49.2093 25.8712C49.1987 25.2601 49.1872 24.6542 49.1755 24.062C50.7174 23.0807 59.2382 17.639 61.0236 16.0857C62.9147 14.4411 65.6305 10.7536 65.361 7.33665C65.2721 6.21458 64.6691 5.25266 63.6164 4.5554C61.8141 3.36106 58.8366 3.05051 56.5373 3.81712C54.9762 4.33775 53.3945 5.54966 52.191 6.645C52.6041 5.9719 53.0558 5.44199 53.5466 5.13059C53.6974 5.03587 53.7858 4.86692 53.7785 4.68919C53.7717 4.51048 53.6701 4.35032 53.5124 4.26634C53.4794 4.24888 53.4412 4.2338 53.4077 4.21659L60.9762 1.33567C61.1574 1.25657 65.446 -0.511985 68.1965 4.53098C70.9636 9.60423 63.5788 16.4968 62.1086 17.3611Z" fill="black"/>
</svg>
