<svg width="52" height="90" viewBox="0 0 52 90" fill="none" xmlns="http://www.w3.org/2000/svg">
<path d="M48.1501 21.7419C45.4185 20.5915 42.615 21.8926 41.5635 22.4858C41.0333 21.8366 39.6849 20.6836 36.4376 19.8199C36.4887 19.708 36.5131 19.5861 36.4733 19.4646L36.0373 18.1306C36.0124 18.0544 35.9694 17.9851 35.9123 17.9294C35.8388 17.8569 34.5923 16.6769 31.4947 15.9313C31.9948 15.5461 32.371 14.9839 32.3308 14.1784C32.2385 12.3279 30.1613 11.5759 29.7663 11.449C28.861 10.9372 27.3869 10.0847 27.1813 9.93821C27.1188 9.81712 27.1276 9.39036 27.1936 8.96556C27.7502 8.69309 28.9855 7.97727 29.1818 6.92063C29.2585 6.50852 29.2043 5.87766 28.51 5.21556C26.9973 3.77415 27.9426 1.49583 27.9836 1.40013C28.0358 1.27806 28.0373 1.13938 27.9875 1.01634C27.9382 0.893289 27.842 0.794657 27.7199 0.742899L26.2298 0.108499C26.1336 0.0329379 26.0158 -0.00679605 25.8923 0.000955449C25.7685 -0.00679605 25.6502 0.0330599 25.5541 0.109049L24.0656 0.742899C23.9436 0.794657 23.8474 0.893289 23.798 1.01634C23.7482 1.13938 23.7497 1.27806 23.8019 1.40013C23.843 1.49583 24.7883 3.77415 23.2751 5.21556C22.5808 5.87766 22.5266 6.50852 22.6032 6.92063C22.7995 7.97825 24.0353 8.69309 24.5925 8.96556C24.6574 9.38548 24.6721 9.81126 24.6467 9.89134C24.3991 10.0837 22.924 10.9372 22.0187 11.449C21.6237 11.5759 19.5471 12.3279 19.4543 14.1775C19.414 14.9835 19.7903 15.5459 20.2906 15.9313C17.1932 16.6769 15.9467 17.8569 15.8732 17.9294C15.8161 17.9851 15.7731 18.0544 15.7482 18.1306L15.3122 19.4646C15.2725 19.5861 15.2968 19.708 15.3478 19.8199C12.0999 20.6836 10.7515 21.837 10.2214 22.4861C9.1692 21.8932 6.36414 20.5921 3.63496 21.7419C2.42451 22.2517 1.46308 23.2488 0.776557 24.7077C-0.0256889 26.4099 -0.213677 28.4382 0.246772 30.4206C0.677436 32.2761 1.15253 33.612 1.65986 34.3923C2.69892 35.99 6.14179 37.9216 6.87763 38.323L7.80634 40.0251C7.92451 40.2419 8.18183 40.3396 8.41425 40.2566C8.43012 40.2499 10.0359 39.7111 11.0522 40.4398C12.2014 42.0973 12.2476 44.812 12.246 45.2848C11.8387 46.5234 11.1703 47.9973 10.8366 48.1824C10.6105 48.3074 10.3947 48.5339 10.1569 48.8933C9.05488 50.5632 8.86298 52.7449 9.64423 54.7302C10.113 55.9187 10.6618 56.8161 11.2761 57.3982C12.8049 58.8493 17.4826 60.5066 18.5163 60.8611C18.676 61.2097 18.7805 61.6345 18.6945 61.7741C18.5749 61.9685 17.7429 62.3396 16.9636 62.5495L14.6721 63.0915C14.5241 63.1267 14.4001 63.2263 14.3352 63.364L13.634 64.8493L12.9235 66.2341C12.4851 66.4382 11.447 67.0066 11.2062 67.8855C10.7634 67.9226 10.2009 68.0456 10.0627 68.4626C10.0471 68.5105 10.0383 68.5603 10.0373 68.6111L9.99531 70.9861C9.99287 71.1228 10.0466 71.2536 10.1437 71.3503C10.2375 71.4431 10.364 71.4949 10.4953 71.4949C10.4997 71.4949 10.5046 71.4949 10.509 71.4949L11.1507 71.4771C11.1403 71.5118 11.1245 71.5441 11.1218 71.5818C10.9992 73.2077 10.4645 76.0652 9.55244 76.8171C8.27192 77.8715 7.63575 79.2186 7.45759 79.6415C7.0091 79.9989 5.49195 81.3381 5.62501 82.8339L4.50849 87.6316C4.45136 87.8767 4.58515 88.1257 4.8205 88.2136C4.97755 88.2718 8.84327 89.6394 25.7015 89.6599L25.7062 89.6609C25.7698 89.6609 25.8293 89.6604 25.8925 89.6604C25.9558 89.6604 26.0152 89.6609 26.0788 89.6609L26.0835 89.6599C42.9423 89.6394 46.8075 88.2718 46.9645 88.2136C47.1999 88.1257 47.3337 87.8767 47.2766 87.6316L46.16 82.834C46.2924 81.3377 44.7759 79.9989 44.3275 79.6415C44.1493 79.2186 43.5131 77.8715 42.2326 76.8171C41.2072 75.9724 40.7521 72.7517 40.6633 71.5818C40.6604 71.5441 40.6443 71.5118 40.6336 71.4771L41.2761 71.4949C41.2805 71.4949 41.2853 71.4949 41.2897 71.4949C41.4211 71.4949 41.5476 71.4431 41.6413 71.3503C41.7385 71.2546 41.7922 71.1228 41.7897 70.9861L41.7482 68.6111C41.7473 68.5603 41.7385 68.5095 41.7224 68.4616C41.5837 68.0456 41.0217 67.9226 40.5793 67.8855C40.3386 67.0066 39.3 66.4382 38.862 66.2341L38.1584 64.864L37.4504 63.364C37.3854 63.2273 37.2614 63.1267 37.1135 63.0915L34.8356 62.5525C34.0422 62.3406 33.2106 61.9685 33.0905 61.7732C33.0046 61.6345 33.1091 61.2097 33.2687 60.8611C34.3024 60.5066 38.9797 58.8493 40.5085 57.3991C41.1227 56.8171 41.6721 55.9187 42.1408 54.7302C42.9221 52.7449 42.7307 50.5632 41.6281 48.8933C41.3903 48.5329 41.174 48.3064 40.9494 48.1833C40.775 48.0862 40.5166 47.6553 40.2501 47.0887C40.2487 47.0859 40.2477 47.0829 40.2462 47.0801C39.9957 46.5464 39.7399 45.8951 39.539 45.2849C39.5375 44.8123 39.5839 42.0967 40.7335 40.4392C41.7585 39.7069 43.3559 40.2517 43.3718 40.2566C43.6052 40.3386 43.861 40.24 43.9787 40.0251L44.9074 38.323C45.6433 37.9216 49.0866 35.99 50.1257 34.3923C50.6325 33.612 51.1081 32.2761 51.5393 30.4206C51.9987 28.4382 51.8102 26.4099 51.0085 24.7077C50.322 23.2488 49.3601 22.2507 48.1501 21.7419ZM38.9399 28.1075C37.8642 27.4856 33.8279 25.4935 26.3696 25.3445C26.3417 25.3397 26.3165 25.3279 26.2873 25.3279C26.1513 25.3279 26.0267 25.3341 25.8928 25.3354C25.7589 25.3341 25.6343 25.3279 25.4982 25.3279C25.4691 25.3279 25.4438 25.3397 25.416 25.3445C17.9572 25.4934 13.9208 27.4856 12.8451 28.1075C11.5143 27.2251 11.5565 25.9747 11.6196 25.5599C12.2828 25.0509 16.1267 22.488 25.8933 22.418C35.6562 22.4881 39.5008 25.0498 40.1657 25.5591C40.2291 25.9765 40.2696 27.2259 38.9399 28.1075ZM36.8347 44.945C36.9216 45.0827 37.1242 45.195 37.2868 45.2029C37.4477 45.2108 38.048 45.4494 38.6331 45.7303C38.7075 45.9513 38.8106 46.2392 38.9382 46.5664C37.1068 46.1315 32.8237 45.3279 26.1647 45.3279C26.062 45.3279 25.9719 45.3662 25.8925 45.4193C25.8131 45.3662 25.7231 45.3279 25.6203 45.3279C18.9612 45.3279 14.678 46.1317 12.8469 46.5666C12.9744 46.2393 13.0776 45.9514 13.1519 45.7303C13.7369 45.4494 14.337 45.2108 14.4953 45.2029C14.6672 45.2029 14.8586 45.0906 14.9504 44.945C15.4861 44.0936 15.2025 33.219 13.4647 28.9109C14.6146 28.2815 18.6605 26.4038 25.8928 26.3354C33.1246 26.4038 37.1704 28.2815 38.3204 28.9109C36.5825 33.219 36.299 44.0936 36.8347 44.945ZM25.9315 15.3294C25.9288 15.3293 25.9266 15.3279 25.924 15.3279C25.9131 15.3279 25.9035 15.3285 25.8925 15.3285C25.8816 15.3285 25.872 15.3279 25.861 15.3279C25.8584 15.3279 25.8562 15.3293 25.8536 15.3294C24.405 15.3327 23.1477 15.4356 22.0524 15.5965C22.696 15.1218 23.9143 14.5038 25.8926 14.4968C27.8705 14.5039 29.0878 15.1215 29.7316 15.5964C28.6365 15.4355 27.3795 15.3327 25.9315 15.3294ZM25.2604 10.6804C25.8019 10.2605 25.6594 9.14427 25.5266 8.51634C25.4924 8.3552 25.3811 8.22141 25.2292 8.15794C24.7419 7.95579 23.6984 7.34153 23.5861 6.73704C23.569 6.64622 23.5173 6.36692 23.965 5.94016C25.5227 4.45579 25.1594 2.40013 24.8869 1.4802L25.8926 1.05168L26.8986 1.4802C26.6262 2.40013 26.2629 4.45579 27.8195 5.94016C28.2673 6.36595 28.216 6.64524 28.1989 6.73704C28.0793 7.38548 26.944 7.99583 26.5559 8.15891C26.4045 8.22141 26.2932 8.3552 26.259 8.51634C26.1257 9.14427 25.9831 10.2605 26.5241 10.6804C26.6277 10.761 26.8575 10.907 27.1395 11.0785C26.7127 11.0317 26.2996 11.0016 25.9381 10.9977C25.9332 10.9976 25.929 10.9949 25.924 10.9949C25.9143 10.9949 25.9024 10.996 25.8925 10.996C25.8827 10.996 25.8708 10.9949 25.861 10.9949C25.856 10.9949 25.8519 10.9976 25.8469 10.9977C25.4854 11.0016 25.072 11.0317 24.6451 11.0785C24.9271 10.907 25.157 10.7611 25.2604 10.6804ZM22.0593 12.5C22.3829 12.435 24.6031 12.0023 25.8925 11.9955C27.171 12.0022 29.3661 12.4278 29.7164 12.498C30.2352 12.7135 31.2838 13.2655 31.3317 14.2283C31.3547 14.6847 31.1153 14.9929 30.8116 15.2032C30.2216 14.6348 28.7136 13.5274 25.9543 13.501C25.9437 13.5003 25.9348 13.4949 25.924 13.4949C25.9127 13.4949 25.9038 13.4969 25.8925 13.4969C25.8812 13.4969 25.8724 13.4949 25.861 13.4949C25.8503 13.4949 25.8413 13.5003 25.8308 13.501C23.0748 13.5274 21.5666 14.6324 20.9754 15.2015C20.6707 14.9909 20.4305 14.6822 20.4533 14.2283C20.5017 13.2642 21.5364 12.7161 22.0593 12.5ZM16.6564 18.571C17.0153 18.2752 18.5777 17.1474 21.997 16.6128C22.0043 16.6137 22.0135 16.6161 22.0207 16.6169C22.0397 16.6189 22.0588 16.6199 22.0773 16.6199C22.1484 16.6199 22.2149 16.6015 22.2769 16.5741C23.3155 16.4258 24.5096 16.3299 25.8924 16.3285C27.2768 16.3299 28.4741 16.4275 29.5161 16.5785C29.5759 16.6039 29.6401 16.6199 29.7082 16.6199C29.7268 16.6199 29.7458 16.6189 29.7648 16.6169C29.7685 16.6165 29.7731 16.6153 29.7768 16.6148C33.1838 17.1516 34.7689 18.2811 35.1301 18.573L35.2048 18.8015C33.6644 18.3033 30.4041 17.4637 25.9321 17.4545C25.9292 17.4544 25.9269 17.4529 25.924 17.4529C25.9132 17.4529 25.9034 17.4536 25.8925 17.4536C25.8817 17.4536 25.8719 17.4529 25.861 17.4529C25.8582 17.4529 25.8558 17.4544 25.853 17.4545C21.381 17.4637 18.1212 18.3033 16.5808 18.8015L16.6564 18.571ZM25.8925 18.4533C28.2782 18.4556 30.3144 18.7086 31.9149 19.014C30.2607 18.8313 28.3355 18.7184 26.0962 18.7064C26.0901 18.7062 26.085 18.7029 26.0788 18.7029C26.015 18.7029 25.9559 18.7043 25.8925 18.7045C25.8292 18.7043 25.7701 18.7029 25.7062 18.7029C25.7001 18.7029 25.695 18.7062 25.6889 18.7064C23.4497 18.7184 21.5245 18.8313 19.8703 19.014C21.4706 18.7086 23.5068 18.4556 25.8925 18.4533ZM25.8922 19.7057C37.6701 19.7364 40.3924 22.5531 40.864 23.2077L40.3864 24.4889C39.0134 23.581 34.9786 21.5588 26.3657 21.4267C26.3391 21.4223 26.3151 21.4109 26.2873 21.4109C26.15 21.4109 26.0278 21.4172 25.8928 21.4181C25.7577 21.4172 25.6355 21.4109 25.4982 21.4109C25.4704 21.4109 25.4464 21.4223 25.4199 21.4267C16.8068 21.5588 12.7719 23.5812 11.3991 24.489L10.9221 23.2097C11.4081 22.5367 14.1488 19.7364 25.8922 19.7057ZM7.68427 37.7136C7.6374 37.6277 7.56611 37.5574 7.47968 37.5115C6.37568 36.9245 3.32832 35.1238 2.49824 33.8474C2.06123 33.1745 1.61933 31.9118 1.2204 30.1941C0.810737 28.4304 0.974311 26.6335 1.68085 25.1335C2.25947 23.905 3.04706 23.074 4.02265 22.6638C6.57197 21.5888 9.3465 23.1208 9.96052 23.4938L10.6418 25.321C10.5388 25.8552 10.5568 26.6677 10.945 27.4665C10.9162 27.4597 10.8864 27.4548 10.8557 27.4538C10.5768 27.4304 10.3444 27.6511 10.3293 27.9265C10.3132 28.2283 10.2438 28.7458 9.95722 28.823C9.56415 28.9294 8.88251 28.4685 8.74677 28.2615C8.69355 28.1804 8.63593 27.9636 8.7165 27.8376C8.79951 27.7068 9.11591 27.6013 9.75458 27.697C10.0275 27.74 10.2741 27.5574 10.321 27.2898C10.7795 24.6931 8.81367 23.4382 7.66083 23.1267C7.56025 23.1111 5.154 22.7292 3.37421 24.2361C2.18281 25.2458 1.5788 26.8327 1.5788 28.9529C1.5788 35.5281 7.90644 37.0095 7.9704 37.0241C8.06757 37.0447 8.17011 37.0368 8.2624 37.0007C8.35224 37.0837 8.63203 37.4411 8.83466 38.7781C8.8556 38.9167 8.94483 39.0196 9.05543 39.0963C8.8415 39.1238 8.64735 39.1598 8.49335 39.196L7.68427 37.7136ZM9.76777 38.2927C9.53583 37.0046 9.1706 36.2917 8.62763 36.0593C8.41865 35.9704 8.21503 35.9695 8.04999 36.0115C7.18867 35.7693 2.5788 34.2214 2.5788 28.9529C2.5788 27.1433 3.06171 25.8152 4.01484 25.0046C5.41718 23.8122 7.42695 24.1023 7.44746 24.1023C7.5373 24.1267 9.46357 24.6784 9.38642 26.6618C8.50068 26.6667 8.07685 26.9822 7.87372 27.2995C7.54999 27.8054 7.66621 28.4382 7.91083 28.8103C8.21357 29.2722 9.30244 30.0388 10.2175 29.7888C10.675 29.6648 11.2311 29.2663 11.322 28.0749C11.5954 28.4304 11.9606 28.7673 12.4416 29.0564C14.09 32.7243 14.3747 42.4988 14.1188 44.2644C13.8478 44.3366 13.5251 44.4626 13.2292 44.5906C13.1393 42.9099 12.6184 39.1023 9.76777 38.2927ZM25.8925 65.1532C25.9702 65.2052 26.0579 65.2434 26.1584 65.2449C26.5787 65.2502 35.5983 65.366 37.3306 65.3871L37.6943 66.1225L26.1633 66.1609C26.061 66.1612 25.9716 66.1997 25.8925 66.2525C25.8135 66.1997 25.724 66.1612 25.6218 66.1609L14.1046 66.1225L14.4822 65.3867C16.2822 65.3648 25.2086 65.2502 25.6267 65.2449C25.7272 65.2434 25.8148 65.2052 25.8925 65.1532ZM25.8925 88.6601C12.0818 88.6515 6.96888 87.7218 5.59101 87.3913L6.45405 83.682C7.98261 84.2483 12.4332 84.9091 25.6169 84.9949H25.6203C25.723 84.9949 25.8131 84.9565 25.8925 84.9034C25.9719 84.9565 26.062 84.9949 26.1647 84.9949H26.1682C39.352 84.9091 43.8026 84.2483 45.3311 83.6824L46.194 87.3913C44.8132 87.7218 39.7 88.6515 25.8925 88.6601ZM45.1838 82.7263C44.0544 83.4509 34.7214 83.9392 26.1613 83.9949C26.0599 83.9956 25.9711 84.034 25.8925 84.0865C25.814 84.034 25.7252 83.9956 25.6237 83.9949C17.0632 83.9392 7.72919 83.4509 6.60126 82.7263C6.54188 81.8742 7.51862 80.886 8.04163 80.4567L25.6096 80.8279C25.6135 80.8279 25.6169 80.8279 25.6203 80.8279C25.7228 80.8279 25.813 80.7896 25.8925 80.7365C25.9721 80.7896 26.0623 80.8279 26.1647 80.8279C26.1682 80.8279 26.1716 80.8279 26.1755 80.8279L43.743 80.4567C44.2471 80.8711 45.2412 81.8752 45.1838 82.7263ZM41.5969 77.5886C42.3391 78.2009 42.8381 78.945 43.1291 79.4695L26.154 79.8279C26.0552 79.8299 25.9691 79.8679 25.8925 79.9191C25.8159 79.8679 25.7299 79.8299 25.6311 79.8279L8.65595 79.4695C8.94697 78.945 9.44599 78.2009 10.1882 77.5886C11.7253 76.323 12.0832 72.1316 12.1188 71.6579C12.1244 71.5851 12.1123 71.5158 12.089 71.4513L25.634 71.0779C25.7318 71.0751 25.8168 71.0374 25.8925 70.9868C25.9682 71.0374 26.0532 71.0751 26.1511 71.0779L39.6961 71.4513C39.6727 71.5157 39.6607 71.5851 39.6662 71.6579C39.7019 72.1316 40.0602 76.323 41.5969 77.5886ZM39.6267 68.3103C39.6096 68.4519 39.6545 68.5945 39.7492 68.7019C39.8439 68.8083 39.9802 68.8699 40.1232 68.8699C40.4392 68.8699 40.6364 68.8952 40.7536 68.9197L40.7805 70.4802L26.1784 70.0779C26.0804 70.0707 25.9816 70.1118 25.8942 70.1732C25.8073 70.1118 25.7083 70.0707 25.6066 70.0779L11.0046 70.4802L11.0319 68.9197C11.1491 68.8952 11.3464 68.8699 11.6623 68.8699C11.8054 68.8699 11.9416 68.8083 12.0363 68.7019C12.131 68.5945 12.176 68.4519 12.1589 68.3103C12.1031 67.8465 12.932 67.3276 13.3934 67.1202L25.6188 67.1609H25.6203C25.723 67.1609 25.8131 67.1224 25.8925 67.0693C25.972 67.1224 26.062 67.1609 26.1647 67.1609H26.1662L38.3917 67.1202C38.8525 67.3252 39.6829 67.8423 39.6267 68.3103ZM34.591 63.5222L36.6491 64.0095L36.8328 64.3808C34.2467 64.3484 26.1711 64.2449 26.1711 64.2449H26.1647C26.0621 64.2449 25.972 64.2831 25.8925 64.3362C25.8131 64.2831 25.7229 64.2449 25.6203 64.2449H25.614C25.614 64.2449 17.5568 64.3482 14.9608 64.3807L15.1364 64.0085L17.2082 63.5193C17.654 63.3991 19.1408 62.9577 19.5461 62.2986C19.7965 61.8921 19.74 61.3821 19.6178 60.9615L25.6838 61.0314C25.6917 61.0318 25.6983 61.0359 25.7062 61.0359H25.7121L25.8925 61.0338L26.0729 61.0359H26.0788C26.0867 61.0359 26.0934 61.0318 26.1012 61.0314L32.1672 60.9615C32.0451 61.382 31.9886 61.8917 32.239 62.2976C32.6452 62.9577 34.1311 63.3991 34.591 63.5222ZM40.7936 49.4441C41.7165 50.8425 41.8727 52.6814 41.2102 54.363C40.7956 55.4148 40.3283 56.1921 39.8205 56.6736C38.3903 58.0301 33.4835 59.7306 32.8287 59.9538L25.8925 60.0337L18.9562 59.9538C18.301 59.7306 13.3956 58.0309 11.9645 56.6726C11.4567 56.1921 10.9894 55.4148 10.5749 54.363C9.91279 52.6814 10.0685 50.8425 10.9919 49.4441C11.1984 49.1306 11.3088 49.0642 11.322 49.0564C11.6791 48.8578 12.0263 48.3288 12.3296 47.7329C13.2855 47.4674 17.8411 46.3279 25.6203 46.3279C25.7231 46.3279 25.8131 46.2895 25.8925 46.2364C25.9719 46.2895 26.062 46.3279 26.1647 46.3279C33.9433 46.3279 38.4989 47.4671 39.4556 47.7328C39.7592 48.329 40.1067 48.8583 40.4645 49.0574C40.4768 49.0642 40.5866 49.1306 40.7936 49.4441ZM38.5559 44.5906C38.26 44.4626 37.9372 44.3366 37.6667 44.2644C37.4108 42.4988 37.6955 32.7243 39.3435 29.0564C39.8244 28.7673 40.1896 28.4304 40.4631 28.0749C40.5539 29.2663 41.1105 29.6658 41.5681 29.7888C42.4841 30.0388 43.5725 29.2722 43.8742 28.8103C44.1188 28.4382 44.2351 27.8054 43.9113 27.2995C43.7082 26.9822 43.2736 26.6658 42.3991 26.6618C42.3264 24.6921 44.2482 24.1277 44.2883 24.113C44.3083 24.1101 46.3347 23.7878 47.7644 24.9988C48.7209 25.8093 49.2062 27.1394 49.2062 28.9529C49.2062 34.2693 44.6267 35.7712 43.738 36.0124C43.5705 35.9695 43.3669 35.9704 43.1579 36.0593C42.6149 36.2917 42.2492 37.0046 42.0173 38.2927C39.1672 39.1023 38.6457 42.9099 38.5559 44.5906ZM50.5651 30.1941C50.1662 31.9118 49.7243 33.1745 49.2868 33.8474C48.4572 35.1238 45.4094 36.9245 44.3054 37.5115C44.2189 37.5574 44.1477 37.6277 44.1008 37.7136L43.2917 39.196C43.1377 39.1598 42.9436 39.1239 42.7296 39.0964C42.8403 39.0196 42.9295 38.9167 42.9504 38.7781C43.1535 37.4402 43.4323 37.0837 43.5227 37.0007C43.614 37.0368 43.7165 37.0447 43.8146 37.0241C43.8786 37.0095 50.2062 35.5281 50.2062 28.9529C50.2062 26.8327 49.6022 25.2458 48.4108 24.2361C46.6306 22.7292 44.2248 23.1091 44.0749 23.1374C42.9714 23.4382 41.0056 24.6931 41.4641 27.2898C41.5109 27.5574 41.7561 27.74 42.0305 27.697C42.6677 27.6023 42.9851 27.7077 43.0686 27.8376C43.1491 27.9636 43.0915 28.1804 43.0378 28.2624C42.903 28.4685 42.2224 28.9324 41.8283 28.823C41.5412 28.7458 41.4719 28.2283 41.4558 27.9265C41.4411 27.6599 41.2204 27.4529 40.9567 27.4529C40.9191 27.4548 40.8781 27.4577 40.84 27.4665C41.2282 26.6677 41.2468 25.8552 41.1437 25.321L41.8247 23.4936C42.4388 23.1202 45.2114 21.589 47.7624 22.6638C48.738 23.074 49.5256 23.905 50.1042 25.1335C50.8102 26.6335 50.9743 28.4304 50.5651 30.1941Z" fill="black"/>
</svg>
