<svg width="30" height="81" viewBox="0 0 30 81" fill="none" xmlns="http://www.w3.org/2000/svg">
<path d="M10.1064 70.4111C8.53125 70.4111 7.25 71.6924 7.25 73.2676C7.25 74.8428 8.53125 76.124 10.1064 76.124C11.6816 76.124 12.9629 74.8428 12.9629 73.2676C12.9629 71.6924 11.6816 70.4111 10.1064 70.4111ZM10.1064 75.124C9.08301 75.124 8.25 74.291 8.25 73.2676C8.25 72.2441 9.08301 71.4111 10.1064 71.4111C11.1299 71.4111 11.9629 72.2441 11.9629 73.2676C11.9629 74.291 11.1299 75.124 10.1064 75.124Z" fill="black"/>
<path d="M29.1094 24H25.0359C26.4836 22.983 29.6094 20.1038 29.6094 14.1665C29.6094 1.1792 15.4424 0.17627 15.2695 0.166504L14.9766 0.16748C14.834 0.17627 0.666992 1.1792 0.666992 14.1665C0.666992 20.1038 3.79199 22.983 5.23975 24H1.16699C0.890625 24 0.666992 24.2236 0.666992 24.5V27.8335C0.666992 28.1099 0.890625 28.3335 1.16699 28.3335H4.44214L6.19873 62.9452L4.54883 63.3477C4.32422 63.4023 4.16699 63.603 4.16699 63.8335V77.5V79.5835C4.16699 79.8599 4.39062 80.0835 4.66699 80.0835H25.6094C25.8857 80.0835 26.1094 79.8599 26.1094 79.5835V77.5V63.8335C26.1094 63.603 25.9521 63.4023 25.7275 63.3477L24.0767 62.9451L25.8342 28.3335H29.1094C29.3857 28.3335 29.6094 28.1099 29.6094 27.8335V24.5C29.6094 24.2236 29.3857 24 29.1094 24ZM1.66699 14.1665C1.66699 2.12598 14.4912 1.19922 15.0068 1.1665L15.2393 1.16553C15.7852 1.19824 28.6094 2.10938 28.6094 14.1665C28.6094 20.6055 24.667 23.1079 23.9688 23.5H15.167C15.1484 23.5005 15.1299 23.5005 15.1094 23.5H6.30664C5.6084 23.1074 1.66699 20.605 1.66699 14.1665ZM15.0068 28.3335C15.0535 28.3335 15.0955 28.3189 15.1382 28.307C15.1809 28.3189 15.2229 28.3335 15.2695 28.3335H22.4661L18.7461 61.0835H11.5293L7.8103 28.3335H15.0068ZM7.33301 66.3073L9.74023 67.2178C9.79687 67.2393 9.85645 67.25 9.91699 67.25H20.3594C20.4199 67.25 20.4795 67.2393 20.5361 67.2178L22.9424 66.3073V67.8428L20.9189 68.75H9.35742L7.33301 67.8428V66.3073ZM12.1898 66.25L11.6519 62.0835H18.6235L18.0864 66.25H12.1898ZM6.80322 28.3335L10.5859 61.6401C10.5862 61.6415 10.5869 61.6427 10.5872 61.6441C10.5873 61.6453 10.5868 61.6463 10.5869 61.6475L11.1812 66.25H10.0088L7.31543 65.2313L5.44263 28.3335H6.80322ZM5.16699 79.0835V78H25.1094V79.0835H5.16699ZM25.1094 64.2261V77H5.16699V64.2261L6.25037 63.9619L6.33301 65.5897V68.1665C6.33301 68.3633 6.44824 68.542 6.62891 68.6226L9.0459 69.7061C9.10938 69.7349 9.17969 69.75 9.25 69.75H21.0264C21.0967 69.75 21.167 69.7349 21.2314 69.7061L23.6475 68.6226C23.8271 68.542 23.9424 68.3633 23.9424 68.1665V65.5897L24.025 63.9618L25.1094 64.2261ZM22.96 65.2314L20.2676 66.25H19.0952L19.6885 61.6475C19.6886 61.6463 19.6881 61.6453 19.6882 61.6441C19.6885 61.6427 19.6892 61.6415 19.6895 61.6401L23.4731 28.3335H24.8337L22.96 65.2314ZM28.6094 27.3335H15.2695C15.2229 27.3335 15.1809 27.3481 15.1382 27.36C15.0955 27.3481 15.0535 27.3335 15.0068 27.3335H1.66699V25H15.1094C15.1196 25 15.1282 24.9948 15.1382 24.9942C15.1482 24.9948 15.1567 25 15.167 25H28.6094V27.3335Z" fill="black"/>
<path d="M20.1699 70.4111C18.5947 70.4111 17.3135 71.6924 17.3135 73.2676C17.3135 74.8428 18.5947 76.124 20.1699 76.124C21.7451 76.124 23.0264 74.8428 23.0264 73.2676C23.0264 71.6924 21.7451 70.4111 20.1699 70.4111ZM20.1699 75.124C19.1465 75.124 18.3135 74.291 18.3135 73.2676C18.3135 72.2441 19.1465 71.4111 20.1699 71.4111C21.1934 71.4111 22.0264 72.2441 22.0264 73.2676C22.0264 74.291 21.1934 75.124 20.1699 75.124Z" fill="black"/>
</svg>
