<svg width="40" height="90" viewBox="0 0 40 90" fill="none" xmlns="http://www.w3.org/2000/svg">
<path d="M39.4824 0.857376C36.5161 -0.00175524 22.4706 -0.00822494 19.891 0.00166276C17.1602 -0.00718734 3.30389 0.00465345 0.360776 0.857376C0.186459 0.908157 0.0531584 1.04878 0.0126311 1.22652C-0.0278962 1.40327 0.0306975 1.58784 0.165463 1.70991C2.48382 3.79585 11.5776 22.8076 9.93597 32.7177C9.67767 33.7656 9.17376 34.0449 9.164 34.0498C9.11004 34.075 9.06262 34.109 9.02234 34.1492C9.01709 34.1544 9.01446 34.1616 9.00952 34.167C8.97363 34.2061 8.94372 34.2492 8.92193 34.297C8.91351 34.3152 8.9107 34.3352 8.90454 34.3546C8.89184 34.3943 8.88238 34.434 8.88 34.4762C8.87945 34.4859 8.87445 34.494 8.87445 34.5039V36.2948C8.44128 37.1115 6.12964 41.8418 8.7724 45.2285C10.495 47.4361 12.7712 48.5157 15.012 49.0372C14.6584 49.5344 14.2885 50.2719 14.2885 51.2128C14.2885 52.7085 15.3018 53.3202 15.6771 53.4966C16.1809 54.0728 16.915 55.1311 16.9155 55.7539L16.9194 55.9892C16.9516 57.2832 17.0356 60.7021 11.478 65.4257C8.55444 65.5742 8.03186 69.1615 7.93817 70.5039H4.24994C3.97357 70.5039 3.74994 70.7275 3.74994 71.0039V88.5039C3.74994 88.7802 3.97357 89.0039 4.24994 89.0039H19.8461H19.9965H35.5932C35.8696 89.0039 36.0932 88.7802 36.0932 88.5039V71.0039C36.0932 70.7275 35.8696 70.5039 35.5932 70.5039H31.905C31.8113 69.1615 31.2887 65.5742 28.3652 65.4257C22.8076 60.7021 22.8915 57.2832 22.9238 55.9892L22.9277 55.7539C22.9282 55.1328 23.6625 54.0744 24.1664 53.4965C24.542 53.3198 25.5546 52.7081 25.5546 51.2128C25.5546 50.2719 25.1847 49.5343 24.8311 49.0371C27.0717 48.5156 29.3479 47.4359 31.0707 45.2285C33.7135 41.8418 31.4019 37.1115 30.9687 36.2948V34.5039C30.9687 34.4868 30.9607 34.4725 30.959 34.4559C30.9589 34.4542 30.9581 34.4525 30.9579 34.4506C30.9418 34.3052 30.8657 34.1834 30.7523 34.103C30.7315 34.0874 30.7142 34.0681 30.6909 34.0556C30.6694 34.0449 30.1655 33.7656 29.9145 32.7558C28.2656 22.8076 37.3593 3.79585 39.6777 1.70991C39.8124 1.58784 39.871 1.40327 39.8305 1.22652C39.79 1.04878 39.6567 0.908157 39.4824 0.857376ZM19.9965 88.0039H19.8461H4.74994V71.5039H8.41595H19.6664C19.7618 71.5039 19.8458 71.4701 19.9216 71.4239C19.9973 71.4701 20.0814 71.5039 20.1767 71.5039H31.4267H35.0932V88.0039H19.9965ZM20.1767 70.5039C20.0814 70.5039 19.9973 70.5376 19.9216 70.5838C19.8458 70.5376 19.7618 70.5039 19.6664 70.5039H8.94342C8.95703 70.3375 8.97662 70.1421 9.00824 69.9209H19.8461H19.9965H30.8349C30.8665 70.1421 30.8861 70.3375 30.8997 70.5039H20.1767ZM30.6295 68.9209H19.9965H19.8461H9.21368C9.539 67.7099 10.2211 66.4212 11.666 66.4209L19.8353 66.5023C19.8381 66.5023 19.8404 66.5039 19.8432 66.5039C19.8447 66.5039 19.8466 66.5039 19.8481 66.5039L19.9216 66.5031L19.9951 66.5039C19.9965 66.5039 19.9985 66.5039 19.9999 66.5039C20.0027 66.5039 20.0051 66.5023 20.0079 66.5023L28.1771 66.4209C29.6221 66.4212 30.3041 67.7099 30.6295 68.9209ZM26.868 65.4339L19.9216 65.503L12.9752 65.4339C18.0334 60.7806 17.9525 57.3173 17.9194 55.9648L17.9155 55.7539C17.9149 55.0308 17.4402 54.1976 17.0119 53.5878H19.6664C19.7618 53.5878 19.8458 53.5541 19.9216 53.5079C19.9973 53.5541 20.0814 53.5878 20.1767 53.5878H22.8312C22.403 54.1976 21.9282 55.0308 21.9277 55.7539L21.9238 55.9648C21.8906 57.3173 21.8097 60.7806 26.868 65.4339ZM24.5546 51.2128C24.5546 52.1269 23.9662 52.4882 23.7582 52.5878H20.1767C20.0814 52.5878 19.9973 52.6216 19.9216 52.6678C19.8458 52.6216 19.7618 52.5878 19.6664 52.5878H16.0854C15.872 52.4863 15.2885 52.124 15.2885 51.2128C15.2885 50.2474 15.8458 49.5431 16.1219 49.2531C17.3829 49.4529 18.6013 49.5039 19.6664 49.5039C19.7618 49.5039 19.8458 49.4701 19.9216 49.4239C19.9973 49.4701 20.0814 49.5039 20.1767 49.5039C21.2424 49.5039 22.4615 49.4528 23.7233 49.2527C23.9996 49.5403 24.5546 50.2391 24.5546 51.2128ZM30.2826 44.6132C27.5605 48.1005 23.2114 48.5039 20.1767 48.5039C20.0814 48.5039 19.9973 48.5376 19.9216 48.5838C19.8458 48.5376 19.7618 48.5039 19.6664 48.5039C16.6313 48.5039 12.2822 48.1005 9.56048 44.6132C7.45257 41.9124 9.1726 37.9483 9.67932 36.9209H19.6406H20.2026H30.1645C30.6722 37.9472 32.3954 41.905 30.2826 44.6132ZM29.9687 35.0039V35.9209H20.2026H19.6406H9.87445V35.0039H19.5541H20.289H29.9687ZM28.936 32.958C29.0424 33.3886 29.1865 33.7314 29.3412 34.0039H20.289H19.5541H10.497C10.6557 33.7236 10.8046 33.3681 10.9145 32.9199C12.5327 23.1591 4.52533 5.77534 1.4306 1.65132C5.1679 1.04976 16.0209 1.00191 19.3554 1.00191C19.4069 1.00191 19.4443 1.00215 19.4918 1.00221C19.4947 1.00227 19.4971 1.00386 19.4999 1.00386C19.5009 1.00386 19.5014 1.00386 19.5024 1.00386C19.5142 1.0038 19.6172 1.00337 19.783 1.00294C20.1363 1.00459 20.328 1.00746 20.3432 1.00386C20.3462 1.00386 20.3487 1.00221 20.3517 1.00215C23.5059 1.00063 34.6197 1.04042 38.4125 1.65132C35.3178 5.77632 27.311 23.1611 28.936 32.958Z" fill="black"/>
<path d="M20.2046 73.5049C20.0947 73.4945 20.0005 73.5281 19.9179 73.5785C19.8353 73.529 19.7426 73.4957 19.6387 73.5049C17.7812 73.6074 14.6646 73.9941 14.6646 75.4209V84.4209C14.6646 84.5634 14.7256 84.7002 14.8325 84.7949C14.8984 84.8535 16.4834 86.2334 19.5977 86.666C19.6211 86.6689 19.644 86.6709 19.667 86.6709C19.7605 86.6709 19.8454 86.6382 19.9216 86.5919C19.9979 86.6382 20.0828 86.6709 20.1763 86.6709C20.1992 86.6709 20.2222 86.6689 20.2456 86.666C23.3599 86.2334 24.9448 84.8535 25.0107 84.7949C25.1177 84.7002 25.1787 84.5634 25.1787 84.4209V75.4209C25.1787 73.9941 22.062 73.6074 20.2046 73.5049ZM24.1787 84.1777C23.7285 84.5058 22.3745 85.3603 20.1079 85.6758C20.0399 85.6852 19.9772 85.7081 19.9216 85.7411C19.8661 85.7081 19.8033 85.6852 19.7354 85.6758C17.4868 85.3633 16.1191 84.5049 15.6646 84.1767L15.6616 75.4375C15.8213 75.0576 17.7432 74.6123 19.6943 74.5029C19.7791 74.4981 19.8536 74.4674 19.9214 74.4264C19.9894 74.4676 20.0641 74.4984 20.1489 74.5029C22.1001 74.6113 24.022 75.0566 24.1787 75.4209V84.1777Z" fill="black"/>
</svg>
