<svg width="42" height="89" viewBox="0 0 42 89" fill="none" xmlns="http://www.w3.org/2000/svg">
<path d="M41.6002 1.64853C39.0641 0.254001 22.9723 0.025485 21.1456 0.00400064C21.1437 0.00400064 21.1417 0.00400064 21.1398 0.00400064C21.0674 0.00400064 20.9996 0.0210905 20.9374 0.0488615C20.8673 0.0127897 20.7925 -0.00954916 20.714 0.00400064C18.8873 0.025485 2.79554 0.254001 0.259405 1.64853C0.0489562 1.76474 -0.0496766 2.01377 0.0245421 2.24228C0.922674 4.99997 8.7035 12.0829 17.1336 12.5769L17.2803 13.7982C17.2708 13.8071 17.2568 13.8122 17.2477 13.8214C17.2216 13.8513 16.6263 14.5528 16.612 15.5822C15.7284 15.0689 14.7317 14.382 13.6354 13.4552C13.4948 13.337 13.2994 13.3048 13.1285 13.3722C12.9572 13.4405 12.837 13.5968 12.816 13.7804C12.7861 14.04 9.96967 39.7195 18.3134 59.5245H16.6251C16.4869 59.5245 16.3551 59.5811 16.2609 59.6817C16.1661 59.7833 16.1173 59.9181 16.1261 60.0558C16.1704 60.7576 16.4847 64.25 18.3505 64.2725L16.9544 67.3536L10.9323 68.9796C10.714 69.0382 10.5626 69.2364 10.5626 69.462V69.9198L8.43146 70.876C8.43073 70.8763 8.43006 70.8767 8.42927 70.877L8.42054 70.881C8.41437 70.8837 8.41126 70.8902 8.40522 70.8932C8.34296 70.9242 8.29047 70.9679 8.24634 71.0207C8.23145 71.0385 8.22083 71.057 8.20856 71.0767C8.17908 71.1237 8.15925 71.1742 8.14667 71.23C8.14319 71.2453 8.13154 71.2569 8.12952 71.2726C8.12836 71.2816 8.13349 71.2898 8.13282 71.2989C8.13178 71.3121 8.12513 71.3235 8.12513 71.337V79.8366L6.93616 81.1954C6.85657 81.2862 6.81263 81.4034 6.81263 81.5245V85.1495C6.81263 85.2677 6.85413 85.3819 6.9303 85.4718C7.0362 85.5969 9.63074 88.4964 20.6769 88.5793C20.6901 88.5804 20.7015 88.587 20.715 88.587C20.7902 88.587 20.8554 88.5837 20.9298 88.5835C21.0042 88.5837 21.0695 88.587 21.1447 88.587C21.1581 88.587 21.1695 88.5804 21.1827 88.5793C32.2289 88.4964 34.8234 85.5969 34.9293 85.4718C35.0055 85.3819 35.047 85.2677 35.047 85.1495V81.5245C35.047 81.4034 35.0031 81.2862 34.9235 81.1954L33.7345 79.8366V71.337C33.7345 71.3235 33.7279 71.3121 33.7268 71.2989C33.7261 71.2898 33.7313 71.2816 33.7301 71.2726C33.7281 71.2569 33.7164 71.2453 33.713 71.23C33.7004 71.1742 33.6805 71.1237 33.6511 71.0767C33.6388 71.057 33.6282 71.0385 33.6133 71.0207C33.5692 70.9679 33.5167 70.9242 33.4544 70.8932C33.4484 70.8902 33.4453 70.8837 33.4391 70.881L33.4304 70.877C33.4296 70.8767 33.4289 70.8763 33.4282 70.876L31.297 69.9198V69.462C31.297 69.2364 31.1456 69.0382 30.9274 68.9796L24.9052 67.3536L23.5091 64.2725C25.3749 64.25 25.6892 60.7576 25.7335 60.0558C25.7423 59.9181 25.6935 59.7833 25.5988 59.6817C25.5045 59.5811 25.3727 59.5245 25.2345 59.5245H23.5462C31.89 39.7195 29.0735 14.04 29.0436 13.7804C29.0226 13.5968 28.9025 13.4405 28.7311 13.3722C28.5592 13.3048 28.3654 13.337 28.2242 13.4552C27.1281 14.3818 26.1312 15.0691 25.2476 15.5823C25.2334 14.5529 24.6377 13.851 24.588 13.796C24.5859 13.7939 24.5825 13.7927 24.5803 13.7906L24.7261 12.5769C33.1561 12.0829 40.937 4.99997 41.8351 2.24228C41.9093 2.01377 41.8107 1.76474 41.6002 1.64853ZM20.696 11.1418C20.7099 11.143 20.7224 11.1493 20.7365 11.1495C22.3321 11.0722 23.0747 11.4495 23.4276 11.7867C22.9351 11.93 22.0608 11.9825 21.302 11.977C21.2452 11.9608 21.1849 11.9524 21.1198 11.963C21.058 11.9659 20.9871 11.9671 20.9204 11.9691C20.8602 11.967 20.796 11.9659 20.7394 11.963C20.6898 11.9551 20.6439 11.9659 20.5979 11.9751C19.8398 11.9803 18.9314 11.9287 18.429 11.7844C18.7502 11.4814 19.3984 11.1482 20.696 11.1418ZM20.8654 14.2696C20.8868 14.2721 20.9065 14.2652 20.9277 14.265C20.9503 14.2652 20.9713 14.2724 20.9943 14.2696C21.8958 14.1387 23.3718 14.1193 23.8013 14.4414C23.8019 14.4417 23.8024 14.4421 23.8029 14.4424C23.8181 14.4539 23.8422 14.4624 23.8546 14.4747C23.8585 14.4796 24.2501 14.9522 24.2501 15.6183C24.2501 15.8565 23.046 16.3995 21.0626 16.3995C21.0155 16.3995 20.973 16.4142 20.9298 16.4263C20.8866 16.4142 20.8441 16.3995 20.797 16.3995C18.8136 16.3995 17.6095 15.8565 17.6095 15.6183C17.6095 14.9688 17.9825 14.502 17.9796 14.502C18.3698 14.1134 19.9318 14.1329 20.8654 14.2696ZM20.8682 59.5245C19.8087 56.0824 11.2058 26.9986 20.9298 22.1009C30.6516 26.9978 22.0503 56.0822 20.9913 59.5245H20.8682ZM20.9347 21.0245C20.9332 21.0245 20.9316 21.0253 20.9301 21.0254C20.9283 21.0254 20.9267 21.0245 20.9249 21.0245C19.9728 21.0519 18.4332 20.9698 18.0255 20.7364C17.7771 20.4774 17.5689 18.9361 17.5252 17.1829C19.5715 18.1087 20.8362 18.0846 21.0568 18.0717C21.5589 18.056 22.6957 17.9232 24.3345 17.182C24.2912 18.9352 24.086 20.4748 23.8605 20.7169C23.4274 20.9698 21.8908 21.0499 20.9347 21.0245ZM13.7208 14.8145C14.7458 15.62 15.6798 16.2205 16.5186 16.6784C16.525 18.7275 16.7059 21.122 17.4962 21.5821C17.8888 21.8097 18.5826 21.9239 19.2516 21.9796C10.8336 28.7622 18.4097 54.9353 19.8198 59.5245H19.3953C11.8569 42.0163 13.3028 19.5989 13.7208 14.8145ZM20.92 74.9304C20.9207 74.9304 20.9213 74.9308 20.922 74.9308C20.9247 74.9308 20.9271 74.9306 20.9298 74.9306C20.9325 74.9306 20.9349 74.9308 20.9376 74.9308C20.9383 74.9308 20.9389 74.9304 20.9396 74.9304C27.3932 74.9271 31.1864 73.1851 32.7345 72.2696V79.7833C31.9614 80.3603 28.4204 82.6478 20.9298 82.6494C13.4392 82.6478 9.89826 80.3603 9.12513 79.7833V72.2696C10.6732 73.1851 14.4664 74.9271 20.92 74.9304ZM34.047 84.9347C33.4351 85.4482 30.3477 87.5512 20.9299 87.584C11.4956 87.5512 8.41389 85.4414 7.81263 84.9356V81.712L8.69178 80.7076C9.83814 81.5233 13.5281 83.6456 20.9201 83.6491C20.9208 83.6491 20.9213 83.6495 20.922 83.6495C20.9247 83.6495 20.9271 83.6493 20.9298 83.6493C20.9325 83.6493 20.9349 83.6495 20.9376 83.6495C20.9383 83.6495 20.9388 83.6491 20.9395 83.6491C28.3315 83.6456 32.0215 81.5233 33.1679 80.7076L34.047 81.712V84.9347ZM20.9298 73.9306C14.7736 73.9292 11.1152 72.2585 9.66419 71.419L10.5933 71.0019C10.6278 71.156 10.7153 71.2942 10.8639 71.3585C11.0385 71.4336 15.2043 73.208 20.9204 73.2117C20.9209 73.2117 20.9215 73.212 20.922 73.212C20.9246 73.212 20.9272 73.2119 20.9298 73.2119C20.9324 73.2119 20.935 73.212 20.9376 73.212C20.9382 73.212 20.9387 73.2117 20.9393 73.2117C26.6553 73.208 30.8211 71.4336 30.9957 71.3585C31.1443 71.2942 31.2319 71.156 31.2664 71.0019L32.1954 71.419C30.7444 72.2585 27.0861 73.9292 20.9298 73.9306ZM30.297 70.5606C29.2517 70.9588 25.5926 72.2104 20.9298 72.2119C16.2768 72.2104 12.6099 70.9579 11.5626 70.5606V69.8448L17.2186 68.3175C17.6431 68.6022 18.7116 69.2148 20.2233 69.4455C20.3036 69.5005 20.3953 69.5401 20.5001 69.5401C20.65 69.5401 20.7861 69.5222 20.9298 69.5138C21.0736 69.5222 21.2097 69.5401 21.3595 69.5401C21.4643 69.5401 21.556 69.5005 21.6364 69.4455C23.148 69.2148 24.2166 68.6022 24.641 68.3175L30.297 69.8448V70.5606ZM20.9315 68.5206C19.523 68.4264 18.4496 67.8984 17.9435 67.5938L19.4475 64.2745H22.4121L23.9171 67.5958C23.4143 67.8994 22.3469 68.4264 20.9315 68.5206ZM23.4918 63.2745H20.922H18.3678C17.7765 63.2745 17.3341 61.8116 17.1744 60.5245H24.6857C24.527 61.8116 24.0851 63.2745 23.4918 63.2745ZM22.4644 59.5245H22.0398C23.45 54.9353 31.026 28.7622 22.608 21.9796C23.277 21.9239 23.9708 21.8097 24.3634 21.5821C25.1538 21.122 25.3347 18.727 25.341 16.6776C26.1798 16.2199 27.1137 15.6197 28.1388 14.8145C28.5573 19.5979 30.0051 42.0106 22.4644 59.5245ZM20.9296 13.2691C20.5045 13.2116 19.2407 13.0762 18.2314 13.3291L18.1614 12.7462C18.8371 12.9383 19.7631 12.9786 20.424 12.9786C20.6271 12.9786 20.7918 12.9748 20.9298 12.9704C21.0679 12.9748 21.2325 12.9786 21.4357 12.9786C22.0965 12.9786 23.0225 12.9383 23.6982 12.7462L23.6293 13.3203C22.627 13.073 21.3558 13.2112 20.9296 13.2691ZM24.5831 11.588C24.5672 11.5888 24.5541 11.5972 24.5387 11.5995C24.2091 11.0075 23.3142 10.1225 20.9682 10.148C18.5584 10.0961 17.6509 10.9986 17.3194 11.599C17.3044 11.5969 17.2919 11.5888 17.2765 11.588C9.63392 11.1827 2.57142 5.17295 1.15394 2.35654C4.09778 1.40634 16.0963 1.05869 20.7257 1.004C20.7991 1.00321 20.8674 0.984836 20.9298 0.955783C20.9923 0.984836 21.0605 1.00321 21.1339 1.004C25.7628 1.05869 37.7618 1.40634 40.7057 2.35654C39.2882 5.17295 32.2257 11.1827 24.5831 11.588Z" fill="black"/>
</svg>
