<svg width="33" height="87" viewBox="0 0 33 87" fill="none" xmlns="http://www.w3.org/2000/svg">
<path d="M29.3598 32.4297C32.2894 24.8125 32.2333 11.4531 32.2089 5.74805L32.2055 4.5625C32.2055 4.44824 32.1664 4.33789 32.0951 4.24902C29.1747 0.615234 17.038 0.0234376 16.5224 0.000976562C16.515 6.2515e-08 16.5072 0 16.4999 0L15.6918 0.000976562C15.1762 0.0234375 3.03944 0.615234 0.119029 4.24902C0.0477403 4.33789 0.00867769 4.44824 0.00867769 4.5625L0.00525972 5.74805C-0.0191543 11.4531 -0.0753067 24.8125 2.85438 32.4297C5.9662 40.5195 7.99208 42.8984 10.1464 43.7861C10.1937 46.1826 10.1962 46.9209 10.2025 46.9209L6.57264 68.1445C5.96083 68.332 5.18739 68.8555 5.13417 69.9766L5.09297 70.8421C5.04579 70.8273 4.99824 70.8125 4.94618 70.8125C4.66981 70.8125 4.44618 71.0361 4.44618 71.3125V74.1092C4.34162 75.5742 3.93873 79.5842 3.31141 80.8389C3.27674 80.9082 3.25868 80.9854 3.25868 81.0625V82.1765L2.15565 85.792C2.10926 85.9434 2.13758 86.1084 2.23231 86.2354C2.32655 86.3623 2.47547 86.4375 2.63368 86.4375C2.63319 86.4375 2.63417 86.4375 2.63368 86.4375C3.09413 86.4365 13.9315 86.416 15.7142 86.3545H16.4828C18.2826 86.416 29.119 86.4365 29.5795 86.4375C29.579 86.4375 29.58 86.4375 29.5795 86.4375C29.7377 86.4375 29.8876 86.3623 29.9818 86.2354C30.0765 86.1084 30.1049 85.9434 30.0585 85.792L28.9555 82.1765V81.0625C28.9555 80.9854 28.9374 80.9082 28.9027 80.8389C28.2754 79.5842 27.8725 75.5742 27.768 74.1092V71.3125C27.768 71.0361 27.5443 70.8125 27.268 70.8125C27.2159 70.8125 27.1683 70.8273 27.1212 70.8421L27.08 69.9766C27.0267 68.8555 26.2528 68.332 25.641 68.1445L22.018 47C22.018 46.9941 22.0184 46.3018 22.0678 43.7861C24.2221 42.8984 26.2479 40.5195 29.3598 32.4297ZM3.78797 32.0703C0.92567 24.6289 0.981334 11.4014 1.00526 5.75293L1.00819 4.74707C3.85536 1.57617 15.6166 1.00488 15.7142 1H16.4882C16.9071 1.02051 28.3964 1.61816 31.2059 4.74707L31.2089 5.75293C31.2328 11.4014 31.2885 24.6289 28.4262 32.0703C25.3431 40.0873 23.4119 42.2393 21.4816 42.9375H10.7325C8.8022 42.2393 6.87104 40.0873 3.78797 32.0703ZM16.4999 85.3545H15.6972C14.1703 85.4072 5.7704 85.4307 3.30946 85.4365L4.12861 82.75H28.0855L28.9047 85.4365C26.4437 85.4307 18.0414 85.4072 16.4999 85.3545ZM27.9555 81.75H4.25868V81.1748C4.93623 79.6694 5.29853 75.936 5.40809 74.625H26.806C26.9156 75.936 27.2779 79.6694 27.9555 81.1748V81.75ZM26.643 71.8125C26.6864 71.8125 26.7267 71.7978 26.768 71.7869V73.625H5.44618V71.7869C5.48744 71.7978 5.52778 71.8125 5.57118 71.8125H26.643ZM24.7128 68.6465C24.7499 68.8662 24.9325 69.0352 25.1537 69.0596C25.3016 69.0762 26.0419 69.2012 26.0809 70.0234L26.1185 70.8125H6.09559L6.13319 70.0234C6.17225 69.2012 6.91249 69.0762 7.05604 69.0605C7.28114 69.0391 7.46327 68.8691 7.50135 68.6465L11.1962 47C11.1962 47 11.1956 46.3211 11.1494 43.9375H21.0647C21.0186 46.3215 21.0184 47.0056 21.0253 47.084L24.7128 68.6465Z" fill="black"/>
</svg>
