<svg width="638" height="73" viewBox="0 0 638 73" fill="none" xmlns="http://www.w3.org/2000/svg">
<path d="M1.93394 61.5756L0 59.5037L9.46715 48.1772L11.9132 51.2471C13.8285 53.6484 16.3304 55.6184 19.1357 56.9384C21.7743 58.1844 24.6243 58.835 27.3736 58.835C30.6188 58.835 33.3855 58.1204 35.1641 56.8284C36.7674 55.6644 37.5467 54.1064 37.5467 52.0538C37.5467 49.8172 36.8594 48.4338 35.1094 47.1232C33.0922 45.6199 29.8295 44.3919 26.0449 42.9626C25.7243 42.8433 25.3949 42.7153 25.0556 42.5866C19.859 40.6533 14.8651 38.6647 10.8592 35.4754C8.53188 33.6241 6.80922 31.5802 5.58993 29.2342C4.23393 26.6316 3.54661 23.6716 3.54661 20.4363C3.54661 14.8004 5.98455 9.58583 10.4018 5.75461C14.691 2.04331 20.4544 0 26.6415 0C34.6321 0 42.4313 2.87731 49.1852 8.31188L51.6238 10.2825L42.834 21.7196L40.2686 19.6117C35.7507 15.8818 30.7828 13.7464 26.6415 13.7464C22.7923 13.7464 18.283 15.4144 18.2097 20.1157C18.1824 22.2143 19.1903 23.3596 20.7204 24.4323C22.9116 25.9716 26.3929 27.3002 30.0781 28.7115L30.1142 28.7209C30.6921 28.9502 31.2688 29.1795 31.8468 29.3989C37.0607 31.4428 41.9913 33.3674 45.7299 36.4467C50.1472 40.094 52.3011 44.8959 52.3011 51.1371C52.3011 54.5191 51.5778 57.6624 50.1472 60.4844C48.7999 63.1243 46.8759 65.4249 44.4013 67.3215C39.8933 70.7669 33.8168 72.6734 27.2829 72.6734C17.623 72.6734 8.62383 68.7335 1.93394 61.5756Z" fill="#23064B"/>
<path d="M74.9121 70.4015C71.5488 68.9809 68.5248 66.9363 65.9309 64.3436C63.3382 61.7497 61.303 58.7251 59.8736 55.3618C58.3983 51.8706 57.6464 48.168 57.6464 44.3554V0.641418H72.0348V44.3554C72.0348 52.0079 78.2667 58.2398 85.9192 58.2398C93.5717 58.2398 99.8023 52.0079 99.8023 44.3554V0.641418H114.191V44.3554C114.191 48.168 113.439 51.8706 111.964 55.3619C110.543 58.7251 108.5 61.7497 105.906 64.3437C103.312 66.9363 100.288 68.971 96.925 70.4015C93.4337 71.8769 89.7311 72.6276 85.9192 72.6276C82.106 72.6276 78.4046 71.8769 74.9121 70.4015Z" fill="#23064B"/>
<path d="M167.795 7.36799C163.47 2.90474 157.155 0.641418 149.017 0.641418H123.082V72.1236H137.47V14.2965H148.192C151.739 14.2965 154.579 15.1392 156.394 16.7432C158.191 18.3105 159.099 20.7024 159.099 23.8271C159.099 26.8516 158.219 29.1976 156.486 30.8016C154.451 32.6802 151.235 33.6335 146.91 33.6335H144.493V47.288H147.643C151.363 47.288 154.799 46.8393 157.842 45.9593C161.087 45.0154 163.9 43.5767 166.219 41.6794C168.665 39.6728 170.553 37.1615 171.827 34.2109C173.111 31.2323 173.761 27.805 173.761 24.0104C173.761 17.1558 171.699 11.4006 167.795 7.36799Z" fill="#23064B"/>
<path d="M179.281 72.1243H225.561V58.7432H179.281V72.1243ZM179.281 43.3474H225.561V29.6924H179.281V43.3474ZM179.281 0.641479V14.2966H225.561V0.641479H179.281Z" fill="#23064B"/>
<path d="M289.446 72.1243H272.061L255.044 47.5907V33.6336H257.793C262.127 33.6336 265.371 32.6803 267.424 30.7923C269.184 29.1703 270.073 26.8331 270.073 23.8271C270.073 20.6931 269.157 18.3105 267.351 16.7525C265.5 15.1486 262.567 14.2966 258.892 14.2966H248.078V72.1243H233.69V0.641479H259.992C264.015 0.641479 267.644 1.2188 270.796 2.35481C273.903 3.48212 276.561 5.16874 278.696 7.35872C282.646 11.4186 284.735 17.1739 284.735 24.0104C284.735 30.1417 283.04 35.2096 279.695 39.0769C277.367 41.7621 274.297 43.8148 270.531 45.1987L289.446 72.1243Z" fill="#23064B"/>
<path d="M292.573 5.22337L306.961 0.641418V58.4691H339.129V72.1236H292.573V5.22337Z" fill="#23064B"/>
<path d="M343.582 72.1243H389.862V58.7432H343.582V72.1243ZM343.582 43.3474H389.862V29.6924H343.582V43.3474ZM343.582 0.641479V14.2966H389.862V0.641479H343.582Z" fill="#23064B"/>
<path d="M430.232 0.641479H417.833L390.752 72.1243H405.983L424.01 22.5718L442.192 72.1243H457.423L430.232 0.641479Z" fill="#23064B"/>
<path d="M424.136 72.1243L412.758 54.5101H435.416L424.136 72.1243Z" fill="#23064B"/>
<path d="M474.621 69.8601C470.305 68.0367 466.429 65.4155 463.093 62.0895C459.775 58.7622 457.164 54.8857 455.33 50.5604C453.442 46.0878 452.48 41.3406 452.48 36.4466C452.48 31.5527 453.442 26.8055 455.33 22.3242C457.154 18.0076 459.775 14.131 463.102 10.7957C466.429 7.46848 470.305 4.85714 474.631 3.02387C479.104 1.13591 483.85 0.183228 488.744 0.183228C494.546 0.183228 500.328 1.58522 505.442 4.25186C510.39 6.82715 514.753 10.5664 518.043 15.0843L506.423 23.5708C504.434 20.8396 501.794 18.5763 498.806 17.0276C495.682 15.405 492.291 14.5804 488.735 14.5804C482.888 14.5804 477.399 16.853 473.265 20.9862C469.132 25.1195 466.859 30.6088 466.859 36.456C466.859 42.3026 469.132 47.7924 473.265 51.9251C477.399 56.059 482.888 58.331 488.735 58.331C494.582 58.331 500.072 56.0589 504.204 51.9251C506.578 49.5511 508.338 46.7291 509.409 43.6499H488.744V29.2621H525.008V36.456C525.008 41.3499 524.046 46.0971 522.158 50.5778C520.333 54.8943 517.713 58.7709 514.386 62.1069C511.06 65.4428 507.183 68.0454 502.857 69.8787C498.385 71.748 493.638 72.71 488.744 72.71C483.85 72.7101 479.104 71.748 474.621 69.8601Z" fill="#23064B"/>
<path d="M542.759 70.4015C539.395 68.9809 536.371 66.9363 533.777 64.3436C531.185 61.7497 529.15 58.7251 527.72 55.3618C526.245 51.8706 525.493 48.168 525.493 44.3554V0.641418H539.881V44.3554C539.881 52.0079 546.113 58.2398 553.766 58.2398C561.418 58.2398 567.649 52.0079 567.649 44.3554V0.641418H582.038V44.3554C582.038 48.168 581.286 51.8706 579.811 55.3619C578.39 58.7251 576.347 61.7497 573.753 64.3437C571.159 66.9363 568.135 68.971 564.772 70.4015C561.28 71.8769 557.578 72.6276 553.766 72.6276C549.953 72.6276 546.251 71.8769 542.759 70.4015Z" fill="#23064B"/>
<path d="M590.928 72.1243H637.208V58.7432H590.928V72.1243ZM590.928 43.3474H637.208V29.6924H590.928V43.3474ZM590.928 0.641479V14.2966H637.208V0.641479H590.928Z" fill="#23064B"/>
</svg>
