<svg width="49" height="89" viewBox="0 0 49 89" fill="none" xmlns="http://www.w3.org/2000/svg">
<path d="M38.2739 31.2711L39.2964 31.091C40.7974 30.8258 46.9556 26.6403 48.1743 25.8043C48.3784 25.6642 48.5005 25.4328 48.5005 25.1857C48.5005 23.695 48.0405 22.1022 46.7505 22.1022C45.7788 22.1022 41.2935 23.8883 39.3003 24.7028L38.8257 24.1496C38.605 15.6647 39.2397 8.84242 42.9604 3.18031C43.0767 3.00356 43.1128 2.78578 43.0601 2.5807C43.0063 2.37611 42.8696 2.20277 42.6821 2.10463C37.8918 -0.408188 26.4775 -0.0192114 24.246 0.0844263C21.9948 -0.018601 10.6024 -0.405076 5.81885 2.10463C5.63135 2.20277 5.49414 2.37611 5.44092 2.5807C5.3877 2.78578 5.42383 3.00356 5.54004 3.1808C9.26025 8.84145 9.89502 15.6632 9.67432 24.1496L9.2002 24.7023C7.20703 23.8883 2.72168 22.1022 1.75 22.1022C0.459961 22.1022 0 23.695 0 25.1857C0 25.4328 0.12207 25.6642 0.325684 25.8043C1.54492 26.6403 7.70264 30.8258 9.20312 31.091L10.2271 31.2711C10.8684 32.6105 13.325 36.8015 19.0156 37.2499C19.2281 37.3482 19.6589 37.5421 20.2031 37.7641C19.4741 38.6846 18.4722 40.2246 18.4722 41.7687C18.4722 43.0921 19.2499 44.1536 20.3722 44.8752C19.4016 46.4603 18.6636 49.046 20.4182 51.2741L16.3921 51.86C16.1118 51.901 15.8784 52.0963 15.7886 52.3649L14.1929 57.1539C13.4819 57.7379 11.0884 59.9147 11.0835 62.6832C11.0831 62.8598 11.1387 63.0255 11.2246 63.1852H8.54199C6.49707 63.1852 4.8335 64.8493 4.8335 66.8942V81.8317L3.36133 87.0661C3.28369 87.3434 3.37109 87.6413 3.5874 87.8317C3.72656 87.9547 3.90381 88.0192 4.0835 88.0192C4.18164 88.0192 4.28076 87.9996 4.37451 87.9606L10.5718 85.3502L23.75 85.1989L36.9282 85.3502L43.1255 87.9606C43.2192 87.9996 43.3179 88.0192 43.4165 88.0192C43.5962 88.0192 43.7729 87.9547 43.9126 87.8317C44.1284 87.6413 44.2163 87.3434 44.1382 87.0661L42.6665 81.8317V66.8942C42.6665 64.8493 41.0034 63.1852 38.9585 63.1852H37.2858C37.4042 62.9676 37.4542 62.7291 37.3911 62.4918C36.7085 59.9323 34.8286 57.7575 34.3257 57.2096L32.7124 52.3649C32.6226 52.0963 32.3892 51.901 32.1089 51.86L28.0819 51.2741C29.8369 49.0458 29.0989 46.4598 28.1283 44.8749C29.2503 44.1533 30.0278 43.0919 30.0278 41.7687C30.0278 40.2204 29.1164 38.6287 28.4727 37.6923C28.9343 37.5006 29.295 37.3375 29.4844 37.2499C35.175 36.8015 37.6326 32.61 38.2739 31.2711ZM24.2501 37.4062C23.1772 37.2963 21.5748 36.7119 20.461 36.2454C22.4651 34.1523 24.1433 34.1859 24.2095 34.1837C24.2222 34.185 24.2341 34.1787 24.2468 34.1791C24.2583 34.1792 24.2693 34.1852 24.2808 34.1847C24.3628 34.1776 26.035 34.1479 28.0396 36.2453C26.926 36.7118 25.3235 37.2963 24.2501 37.4062ZM11.4507 30.3336C11.356 30.0875 11.1401 29.9093 10.8804 29.8634L9.46387 29.6134C8.70361 29.4796 4.89453 27.1032 1.51758 24.8019C1.56152 24.2853 1.68164 23.778 1.80859 23.6085C2.56885 23.713 6.07031 25.0329 9.13086 26.2955C9.42969 26.4181 9.77588 26.3356 9.98682 26.09L10.9858 24.9235C11.0981 24.7931 11.1616 24.6286 11.1665 24.4567C11.4058 15.923 10.8179 8.98305 7.25781 3.09291C11.7676 1.27919 20.9959 1.46522 23.7476 1.56679C23.8162 1.58394 23.8846 1.60298 23.9585 1.60121C23.9694 1.6006 24.0739 1.59499 24.2496 1.58711C24.4259 1.59505 24.5306 1.6006 24.5415 1.60121C24.6135 1.60274 24.6805 1.58363 24.7479 1.56697C27.4933 1.46541 36.7288 1.27766 41.2427 3.09291C37.6821 8.98402 37.0942 15.924 37.3335 24.4567C37.3384 24.6286 37.4019 24.7936 37.5142 24.924L38.5142 26.0905C38.7241 26.3366 39.0708 26.4166 39.3696 26.2955C42.4302 25.0329 45.9312 23.713 46.6919 23.6085C46.8188 23.778 46.939 24.2853 46.9829 24.8019C43.606 27.1032 39.7974 29.4791 39.0356 29.6134L37.6196 29.8634C37.3608 29.9093 37.145 30.0875 37.0503 30.3336C37.0317 30.3829 35.1304 35.172 29.6069 35.7384C27.0491 32.7332 24.609 32.6715 24.2357 32.6849C23.7897 32.6767 21.4003 32.7932 18.8931 35.7389C13.4019 35.1793 11.5288 30.5338 11.4507 30.3336ZM41.1665 66.8942V81.9352C41.1665 82.0036 41.1763 82.0719 41.1948 82.1383L42.2729 85.9743L37.3745 83.9108C37.2847 83.8737 37.189 83.8532 37.0923 83.8522L25.1325 83.7146C25.0642 83.6971 24.9959 83.6777 24.9224 83.6852L23.75 83.6987L22.5776 83.6852C22.4932 83.6757 22.4166 83.694 22.3416 83.7149L10.4077 83.8522C10.311 83.8532 10.2153 83.8737 10.1255 83.9108L5.22705 85.9743L6.30566 82.1383C6.32422 82.0719 6.3335 82.0036 6.3335 81.9352V66.8942C6.3335 65.6764 7.32422 64.6852 8.54199 64.6852H14.1069C14.1362 64.6852 14.1611 64.6718 14.1895 64.6685C16.4079 65.162 19.8026 65.42 24.3774 65.4352C24.3784 65.4352 24.3794 65.4352 24.3804 65.4352C24.3803 65.4352 24.3804 65.4352 24.3804 65.4352C24.3956 65.4352 24.41 65.4352 24.4253 65.4342C27.1296 65.2735 30.1393 65.034 32.572 64.6852H38.9585C40.1763 64.6852 41.1665 65.6764 41.1665 66.8942ZM32.3757 63.1852H32.0835C31.966 63.1852 31.8585 63.2177 31.7594 63.2659C29.5683 63.5429 26.8605 63.7857 24.3552 63.935C19.2552 63.9165 13.4023 63.3742 12.5854 62.5885C12.6478 60.5844 14.4887 58.8691 15.0908 58.3596C16.1461 58.3869 20.1404 58.4811 24.9263 58.4811C27.6132 58.4811 30.5447 58.4498 33.343 58.3618C33.8555 58.9409 35.207 60.5858 35.8296 62.4987C35.271 62.7265 34.0005 62.9644 32.3757 63.1852ZM32.6359 56.8829C25.878 57.0737 18.5067 56.9389 15.866 56.8779L17.0659 53.278L21.1382 52.6852H23.9165H24.5835H27.3618L31.4351 53.278L32.6359 56.8829ZM26.3345 50.9557C26.2591 51.0219 26.2018 51.1006 26.1597 51.1852H24.5835H23.9165H22.3403C22.2982 51.1006 22.2409 51.0219 22.1655 50.9557C19.9216 48.9824 21.1072 46.5224 21.7398 45.5313C22.4984 45.7934 23.3176 45.9357 24.1196 45.9357C24.1659 45.9357 24.2061 45.9174 24.25 45.9094C24.2939 45.9174 24.3341 45.9357 24.3804 45.9357C25.1835 45.9357 26.0039 45.7931 26.7634 45.5303C27.3993 46.5167 28.5923 48.9702 26.3345 50.9557ZM28.5278 41.7687C28.5278 43.3405 26.3423 44.4357 24.3804 44.4357C24.3341 44.4357 24.2939 44.454 24.25 44.462C24.2061 44.454 24.1659 44.4357 24.1196 44.4357C22.1577 44.4357 19.9722 43.3405 19.9722 41.7687C19.9722 40.5417 21.0233 39.0805 21.6871 38.3191C22.3026 38.5266 22.9459 38.7103 23.5439 38.8223C23.6553 38.8878 23.778 38.9357 23.9165 38.9357C24.0232 38.9357 24.1356 38.9292 24.2501 38.9202C24.3644 38.9292 24.4769 38.9357 24.5835 38.9357C24.722 38.9357 24.8445 38.8879 24.9559 38.8224C25.6249 38.6972 26.3502 38.482 27.0292 38.2451C27.6245 39.0514 28.5278 40.5349 28.5278 41.7687Z" fill="black"/>
</svg>
