<svg width="42" height="86" viewBox="0 0 42 86" fill="none" xmlns="http://www.w3.org/2000/svg">
<path d="M20.7905 58.2383C18.2017 58.2383 16.0952 60.3447 16.0952 62.9336C16.0952 65.5225 18.2017 67.6289 20.7905 67.6289C23.3794 67.6289 25.4858 65.5225 25.4858 62.9336C25.4858 60.3447 23.3794 58.2383 20.7905 58.2383ZM20.7905 66.1289C19.0288 66.1289 17.5952 64.6953 17.5952 62.9336C17.5952 61.1719 19.0288 59.7383 20.7905 59.7383C22.5522 59.7383 23.9858 61.1719 23.9858 62.9336C23.9858 64.6953 22.5522 66.1289 20.7905 66.1289Z" fill="black"/>
<path d="M37.1896 9.18042C37.0794 7.203 36.9337 5.50165 36.7962 4.18213C36.6185 2.47315 35.2455 1.13086 33.5306 0.990723L21.3431 0L20.1537 0.00244141L8.02281 0.991211C6.30992 1.13086 4.93736 2.47022 4.75768 4.17627C4.61894 5.49402 4.4716 7.20007 4.36156 9.1889C4.05602 9.54919 -0.798784 15.4642 0.114119 25.5059C0.471052 29.4287 1.04722 33.0991 1.82652 36.4155C2.41246 38.9106 3.34752 41.3481 4.60582 43.6611C6.31187 46.7979 9.52867 52.8242 11.9252 57.9971C13.8246 61.4053 12.181 67.4111 11.892 68.0967C11.6849 68.5762 9.86852 73.2764 9.34312 74.6377C8.24156 74.9473 5.71812 75.8398 5.71812 77.5273C5.71812 78.3036 6.51396 78.9239 8.06969 79.3918V79.7513C7.22636 79.9858 5.63597 80.541 5.13951 81.5166C4.92906 81.9287 4.91588 82.373 5.10094 82.7998C5.94664 84.749 14.5238 85.8877 18.6791 85.8877C18.9369 85.8877 19.1791 85.8828 19.3998 85.874L22.1273 85.873C25.9613 86.042 35.5589 84.8701 36.4554 82.7998C36.641 82.374 36.6214 81.9199 36.4027 81.5215C35.9083 80.623 34.4311 80.1672 33.4877 79.9597V79.3918C35.0434 78.9239 35.8392 78.3036 35.8392 77.5273C35.8392 75.8398 33.3158 74.9473 32.2142 74.6377C31.6888 73.2764 29.8724 68.5762 29.6664 68.0977C29.3763 67.4111 27.7328 61.4053 29.6576 57.9473C32.0248 52.832 35.2435 46.8008 36.9515 43.6611C38.2103 41.3477 39.1449 38.9102 39.7318 36.4155C40.5111 33.0962 41.0863 29.4258 41.4427 25.5059C42.3602 15.4192 37.4549 9.49261 37.1896 9.18042ZM32.7377 82.5273C33.1517 82.5273 33.4877 82.1914 33.4877 81.7773V81.5043C34.2923 81.7156 34.9911 82.0073 35.1009 82.1641C34.4212 83.0381 27.0677 84.5723 22.1576 84.374L19.3695 84.375C14.4925 84.5557 7.13512 83.0381 6.47105 82.209C6.53392 81.9924 7.2025 81.6091 8.06969 81.3188V81.7773C8.06969 82.1914 8.40562 82.5273 8.81969 82.5273C9.23375 82.5273 9.56969 82.1914 9.56969 81.7773V79.7522C11.9891 80.2139 15.536 80.4482 20.2142 80.4482H21.3431C26.0213 80.4482 29.5683 80.2139 31.9877 79.7522V81.7773C31.9877 82.1914 32.3236 82.5273 32.7377 82.5273ZM34.3295 77.4609C33.7591 78.0547 29.8412 78.9482 21.3431 78.9482H20.2142C11.7162 78.9482 7.7982 78.0547 7.22789 77.4609C7.3499 77.0359 8.57951 76.3859 9.91508 76.0401C10.9148 76.2753 15.8091 77.373 20.2142 77.373H21.3431C25.7483 77.373 30.6426 76.2753 31.6423 76.0401C32.9778 76.3859 34.2074 77.0359 34.3295 77.4609ZM39.9486 25.3701C39.599 29.2207 39.0345 32.8213 38.2709 36.0728C37.7152 38.4365 36.8285 40.7485 35.6332 42.9443C33.9173 46.1006 30.682 52.1641 28.3216 57.2666C26.0824 61.2842 27.9437 67.8916 28.2884 68.6904C28.4488 69.0623 29.7588 72.4429 30.6402 74.7265C28.9399 75.0938 24.9133 75.873 21.3431 75.873H20.2142C16.6441 75.873 12.6174 75.0938 10.9171 74.7265C11.7985 72.4429 13.1086 69.0623 13.2689 68.6904C13.6136 67.8916 15.475 61.2842 13.2611 57.3164C10.8714 52.1562 7.63805 46.0967 5.9232 42.9443C4.72935 40.749 3.84215 38.437 3.28648 36.0728C2.5233 32.8242 1.95836 29.2231 1.60826 25.3701C1.04021 19.1212 2.89305 14.5367 4.23961 12.1095C4.10722 16.732 4.23235 22.429 5.04576 28.4775C5.04765 28.4917 5.05644 28.5025 5.05907 28.5164C5.0537 28.5604 5.03819 28.6016 5.04088 28.6475C5.0609 28.9907 5.54332 37.0903 6.38512 39.771C7.27867 42.6118 11.724 50.4346 15.7035 52.6787C15.8187 52.7441 15.9457 52.7754 16.0716 52.7754C16.2884 52.7754 16.5013 52.6816 16.6488 52.5049C16.8802 52.2256 16.8793 51.8213 16.6459 51.543C7.88414 41.0962 6.5482 28.6538 6.53551 28.5293C6.53362 28.5102 6.52263 28.4952 6.51933 28.4766C6.52837 28.411 6.54173 28.3461 6.53258 28.2773C5.16393 18.103 5.76793 8.90869 6.24937 4.33301C6.35387 3.34375 7.15074 2.56738 8.14391 2.48633L20.2142 1.5L21.2826 1.49756L33.4095 2.48584C34.4046 2.5669 35.2015 3.3457 35.3041 4.3374C35.7884 8.9873 36.3959 18.3096 35.0248 28.5034C35.0242 28.508 35.0262 28.5121 35.0256 28.5167C35.0251 28.5212 35.0223 28.5248 35.0218 28.5293C35.0091 28.6538 33.6732 41.0962 24.9115 51.543C24.6781 51.8213 24.6771 52.2256 24.9086 52.5049C25.056 52.6816 25.2689 52.7754 25.4857 52.7754C25.6117 52.7754 25.7386 52.7441 25.8539 52.6787C29.8461 50.4268 34.3177 42.5449 35.2181 39.6802C36.0529 37.0235 36.4894 29.1461 36.5157 28.6664C37.3332 22.5674 37.4524 16.7893 37.3135 12.1017C38.6603 14.5268 40.5179 19.1144 39.9486 25.3701ZM7.87926 39.5098C8.02379 39.8823 8.17613 40.2598 8.33629 40.6416C8.14488 40.2144 7.98961 39.832 7.87926 39.5098ZM33.7829 39.2399C33.6517 39.6552 33.4368 40.1904 33.1517 40.8071C33.3757 40.2753 33.5858 39.7524 33.7829 39.2399Z" fill="black"/>
</svg>
