<svg width="66" height="84" viewBox="0 0 66 84" fill="none" xmlns="http://www.w3.org/2000/svg">
<path d="M10.8442 6.93319C10.8076 6.70858 10.624 6.5367 10.397 6.51522C9.94628 6.47323 8.68456 6.2037 8.26171 5.46639C8.03661 5.07381 8.07177 4.55428 8.3662 3.92245C8.44775 3.74764 8.42138 3.54159 8.29833 3.39315C7.68505 2.65291 6.67626 2.45467 5.59667 2.85995C4.35302 3.32967 3.11767 4.58944 3.16308 6.09139C3.22753 8.21737 6.23095 13.482 6.58349 14.0924C6.62646 14.1607 10.8613 20.8951 11.0391 23.9176C11.0503 24.108 11.1685 24.275 11.3442 24.3492C13.6279 25.3111 16.5083 27.5709 16.5371 27.5933C16.6279 27.6646 16.7373 27.7008 16.8467 27.7008C16.9492 27.7008 17.0522 27.6695 17.1396 27.606C17.3208 27.4752 17.3931 27.2398 17.3164 27.0299C17.2583 26.8707 11.5161 11.0885 10.8442 6.93319ZM12.0083 23.5484C11.5889 20.1734 7.604 13.8355 7.43945 13.5758C6.54443 12.024 4.21093 7.64901 4.16308 6.06014C4.13281 5.07577 5.04785 4.13631 5.9497 3.79549C6.22412 3.69295 6.8496 3.51815 7.31835 3.83846C7.0205 4.64217 7.04589 5.35604 7.39404 5.96444C7.96826 6.96444 9.2705 7.32967 9.92187 7.4537C10.6724 11.3033 14.3804 21.816 15.8159 25.818C14.7974 25.1002 13.3486 24.1549 12.0083 23.5484Z" fill="black"/>
<path d="M61.7187 0.410722C59.6289 -0.232832 57.8091 -0.119551 56.3091 0.74666C54.792 1.62264 53.7026 3.23885 53.1474 5.43221C43.6894 9.0035 34.2285 8.80721 34.1191 8.80525H31.5615C31.4614 8.80428 22.0122 9.00643 12.5459 5.43221C11.9907 3.23885 10.9009 1.62264 9.38377 0.74666C7.88426 -0.118574 6.06345 -0.231856 3.97459 0.410722C-0.724143 1.85603 0.0370875 6.67342 0.057107 6.77596C0.106912 6.94881 1.28709 11.0299 2.89744 12.2828C4.31004 13.3814 8.71482 21.4527 8.78855 23.0777C8.87644 25.0094 9.41062 25.774 9.47166 25.8551C9.54441 25.9527 9.65037 26.0201 9.76951 26.0445C11.7798 26.4635 13.7251 27.1646 13.9326 27.5445C14.3716 28.3482 14.4546 29.817 14.4599 29.8795C14.4887 30.0709 14.7705 31.7594 15.8467 32.1861C16.541 32.4595 17.1479 31.9762 17.5674 31.4566C18.8657 35.1861 23.6245 47.9908 28.4648 50.2262C28.5786 52.1021 29.6264 52.9674 30.1474 53.2847C30.2807 55.1236 30.5644 65.6334 19.9804 68.7418C19.8305 68.7857 19.7099 68.897 19.6543 69.0435L19.0469 70.6363C18.5454 71.0269 17.6753 72.356 17.5381 76.8736C17.4692 79.1607 17.3432 80.148 17.2568 80.5689C17.1587 80.5914 17.0678 80.6441 16.9985 80.7222C16.875 80.8609 16.8384 81.0572 16.9033 81.231C17.0249 81.5533 17.3037 81.7369 17.5947 81.69C17.6445 81.6812 17.6938 81.6734 17.7417 81.6578C19.6338 82.1021 26.622 83.6549 32.3872 83.7955C32.4199 83.8013 32.4536 83.8053 32.4883 83.8053C32.7251 83.8053 32.9668 83.8053 33.2046 83.8053C33.2392 83.8053 33.2729 83.8013 33.3056 83.7955C39.0713 83.6549 46.0595 82.1021 47.9516 81.6578C47.9995 81.6734 48.0488 81.6812 48.0986 81.69C48.3911 81.7359 48.6689 81.5533 48.79 81.231C48.855 81.0572 48.8183 80.8609 48.6948 80.7222C48.6255 80.6441 48.5346 80.5914 48.4365 80.5689C48.3501 80.148 48.2241 79.1607 48.1553 76.8726C48.018 72.356 47.1479 71.0269 46.646 70.6363L46.039 69.0435C45.9834 68.897 45.8628 68.7857 45.7129 68.7418C35.1289 65.6334 35.4126 55.1226 35.5459 53.2847C36.0669 52.9674 37.1142 52.1021 37.228 50.2262C42.0683 47.9908 46.8271 35.1861 48.1255 31.4556C48.5449 31.9762 49.1533 32.4625 49.8462 32.1861C50.9228 31.7594 51.2041 30.0699 51.2378 29.8316C51.2593 29.4224 51.395 28.2144 51.7607 27.5445C51.9678 27.1646 53.9131 26.4635 55.9238 26.0445C56.0429 26.0201 56.1489 25.9527 56.2217 25.8551C56.2827 25.774 56.8169 25.0094 56.9048 23.0777C56.9785 21.4527 61.3823 13.3824 62.7954 12.2828C64.4057 11.0299 65.5864 6.94881 65.6484 6.72225C65.6562 6.67342 66.4175 1.85603 61.7187 0.410722ZM47.1553 76.9029C47.2168 78.9263 47.3218 80.0816 47.456 80.7467C45.2153 81.2642 38.3559 82.7408 32.8467 82.8033C27.3388 82.7408 20.478 81.2642 18.2373 80.7467C18.3716 80.0816 18.4765 78.9263 18.5381 76.9029C18.6585 72.9179 19.3527 71.7774 19.5565 71.5156C19.6076 71.7074 19.7689 71.859 19.978 71.8844C20.0542 71.8941 27.646 72.8053 32.3716 72.8053C32.6041 72.8053 32.7906 72.6436 32.8467 72.4288C32.9027 72.6436 33.0892 72.8053 33.3218 72.8053C38.0473 72.8053 45.6391 71.8941 45.7153 71.8844C45.9169 71.8599 46.0742 71.7177 46.1311 71.5357C46.3909 71.8673 47.0389 73.0683 47.1553 76.9029ZM64.6743 6.50057C64.3618 7.59334 63.3047 10.6197 62.1811 11.4937C60.5093 12.7945 55.9931 21.0982 55.9057 23.0328C55.8525 24.2056 55.6186 24.8512 55.4966 25.1138C54.31 25.3726 51.4121 26.0943 50.8828 27.066C50.3349 28.0699 50.2427 29.7096 50.2436 29.731C50.1831 30.1383 49.9057 31.0865 49.4775 31.2564C49.2803 31.3346 48.7553 30.7476 48.4394 30.0894C48.3511 29.9058 48.1655 29.8121 47.9555 29.8062C47.7519 29.8199 47.5766 29.9556 47.5132 30.15C47.456 30.3238 41.7768 47.524 36.5674 49.4185C36.3696 49.4898 36.2383 49.6783 36.2383 49.8883C36.2383 51.9117 34.937 52.4849 34.8862 52.5074C34.7148 52.5758 34.5952 52.733 34.5747 52.9156C34.5605 53.0465 33.2705 65.9527 45.1919 69.6295L45.6753 70.898C45.6482 70.897 45.623 70.8885 45.5952 70.8922C45.5195 70.901 37.9878 71.8053 33.3218 71.8053C33.0892 71.8053 32.9027 71.9669 32.8467 72.1817C32.7906 71.9669 32.6041 71.8053 32.3716 71.8053C27.7065 71.8053 20.1738 70.901 20.0981 70.8922C20.0702 70.8884 20.0447 70.8969 20.0176 70.8978L20.501 69.6295C32.4228 65.9527 31.1328 53.0465 31.1186 52.9156C31.0986 52.7359 30.978 52.5797 30.8115 52.5084C30.7563 52.4849 29.4546 51.9117 29.4546 49.8883C29.4546 49.6783 29.3232 49.4898 29.1255 49.4185C23.916 47.524 18.2368 30.3238 18.1797 30.15C18.1162 29.9556 17.9409 29.8189 17.7368 29.8062C17.5381 29.7857 17.3413 29.9058 17.2529 30.0904C16.9458 30.7359 16.4189 31.3453 16.2153 31.2564C15.7866 31.0865 15.5136 30.1549 15.4541 29.7789C15.4502 29.7096 15.3589 28.0699 14.8105 27.066C14.2812 26.0953 11.3847 25.3726 10.1977 25.1138C10.0727 24.8463 9.8408 24.2017 9.78758 23.0328C9.69969 21.0982 5.18308 12.7945 3.5117 11.4937C2.38816 10.6197 1.33152 7.59334 1.03123 6.55428C1.0034 6.39217 0.398904 2.55623 4.26853 1.3658C6.08054 0.80916 7.63377 0.891191 8.88377 1.61287C10.2134 2.38045 11.1645 3.86873 11.6343 5.91658C11.6714 6.07869 11.7866 6.21248 11.9419 6.27205C21.6728 10.0152 31.4873 9.8033 31.5742 9.80525H34.1064C34.2026 9.8033 44.019 10.0152 53.7514 6.27205C53.9067 6.21248 54.0219 6.07869 54.0591 5.91658C54.5283 3.86873 55.4795 2.38045 56.8091 1.61287C58.0586 0.890215 59.6108 0.80916 61.4248 1.3658C65.2759 2.55037 64.6889 6.39314 64.6743 6.50057Z" fill="black"/>
<path d="M60.0967 2.85993C59.0176 2.45368 58.0079 2.65193 57.3951 3.39314C57.272 3.54157 57.2456 3.74763 57.3272 3.92243C57.6216 4.55329 57.6568 5.07185 57.4327 5.46443C57.0142 6.19782 55.7481 6.47224 55.2955 6.51521C55.0694 6.53767 54.8853 6.70954 54.8492 6.93318C54.1773 11.0884 48.4351 26.8707 48.377 27.0299C48.3003 27.2398 48.3726 27.4752 48.5538 27.606C48.6412 27.6695 48.7442 27.7008 48.8467 27.7008C48.9561 27.7008 49.0655 27.6646 49.1563 27.5933C49.1851 27.5709 52.063 25.3121 54.3492 24.3492C54.5249 24.275 54.6431 24.108 54.6543 23.9176C54.8321 20.8951 59.0669 14.1607 59.1202 14.0758C59.4624 13.482 62.4659 8.21736 62.5303 6.09138C62.5757 4.58943 61.3404 3.32966 60.0967 2.85993ZM58.2642 13.5582C58.0899 13.8355 54.1045 20.1734 53.6851 23.5484C52.3448 24.1549 50.896 25.1002 49.8775 25.8179C51.313 21.816 55.021 11.3033 55.7715 7.45368C56.4229 7.32966 57.7251 6.96443 58.2994 5.96443C58.6475 5.35603 58.6729 4.64216 58.375 3.83845C58.8443 3.51814 59.4698 3.69294 59.7437 3.79548C60.6456 4.1363 61.5606 5.07575 61.5303 6.06013C61.4825 7.649 59.149 12.024 58.2642 13.5582Z" fill="black"/>
</svg>
